<?xml version="1.0" encoding="utf-8"?>
<!-- Generator: Adobe Illustrator 24.0.1, SVG Export Plug-In . SVG Version: 6.00 Build 0)  -->
<svg version="1.1" id="Layer_1" xmlns="http://www.w3.org/2000/svg" xmlns:xlink="http://www.w3.org/1999/xlink" x="0px" y="0px"
	 viewBox="0 0 283.46 89.15" style="enable-background:new 0 0 283.46 89.15;" xml:space="preserve">
<style type="text/css">
	.st0{fill:#F5F3F2;}
</style>
<g id="XMLID_11_">
	<path id="XMLID_10_" class="st0" d="M35.4,31.76v9.54h22.8c-0.7,5.35-2.48,9.27-5.2,12.02c-3.33,3.33-8.53,6.98-17.61,6.98
		c-14.04,0-25.01-11.32-25.01-25.36S21.37,9.58,35.4,9.58c7.56,0,13.11,2.99,17.18,6.82l6.71-6.71C53.63,4.19,46.03,0,35.4,0
		C16.17,0,0,15.67,0,34.9s16.17,34.9,35.4,34.9c10.39,0,18.23-3.41,24.35-9.77c6.28-6.28,8.26-15.16,8.26-22.3
		c0-2.21-0.16-4.27-0.5-5.97H35.4z"/>
	<path id="XMLID_24_" class="st0" d="M96.52,24c-12.45,0-22.61,9.46-22.61,22.53c0,12.95,10.16,22.53,22.61,22.53
		s22.61-9.54,22.61-22.53C119.12,33.47,108.97,24,96.52,24z M96.52,60.18c-6.82,0-12.72-5.62-12.72-13.65
		c0-8.1,5.89-13.65,12.72-13.65s12.72,5.55,12.72,13.65C109.24,54.56,103.34,60.18,96.52,60.18z"/>
	<path id="XMLID_21_" class="st0" d="M207.34,29.04H207c-2.21-2.64-6.48-5.04-11.87-5.04c-11.25,0-21.06,9.81-21.06,22.53
		c0,12.64,9.81,22.53,21.06,22.53c5.39,0,9.66-2.4,11.87-5.12h0.35v3.14c0,8.61-4.61,13.22-12.02,13.22
		c-6.05,0-9.81-4.34-11.36-8.03l-8.61,3.57c2.48,5.97,9.04,13.3,19.97,13.3c11.59,0,21.41-6.82,21.41-23.46V25.17h-9.38V29.04z
		 M195.98,60.18c-6.82,0-12.02-5.82-12.02-13.65c0-7.95,5.2-13.65,12.02-13.65c6.75,0,12.02,5.82,12.02,13.73
		C208.04,54.48,202.73,60.18,195.98,60.18z"/>
	<path id="XMLID_18_" class="st0" d="M146.93,24c-12.45,0-22.61,9.46-22.61,22.53c0,12.95,10.16,22.53,22.61,22.53
		c12.45,0,22.61-9.54,22.61-22.53C169.54,33.47,159.38,24,146.93,24z M146.93,60.18c-6.82,0-12.72-5.62-12.72-13.65
		c0-8.1,5.89-13.65,12.72-13.65c6.82,0,12.72,5.55,12.72,13.65C159.65,54.56,153.75,60.18,146.93,60.18z"/>
	<path id="XMLID_3_" class="st0" d="M224.48,0.93h9.73v68.13h-9.73V0.93z"/>
	<path id="XMLID_14_" class="st0" d="M264.27,60.18c-5.04,0-8.61-2.29-10.94-6.82l30.13-12.45l-1.01-2.56
		C280.6,33.31,274.86,24,263.18,24c-11.59,0-21.25,9.11-21.25,22.53c0,12.64,9.54,22.53,22.34,22.53c10.31,0,16.29-6.32,18.77-9.97
		l-7.68-5.12C272.8,57.7,269.31,60.18,264.27,60.18L264.27,60.18z M263.57,32.46c3.99,0,7.41,2.06,8.53,4.96l-20.36,8.41
		C251.74,36.37,258.45,32.46,263.57,32.46z"/>
</g>
</svg>
