<?xml version="1.0" encoding="utf-8"?>
<!-- Generator: Adobe Illustrator 24.0.1, SVG Export Plug-In . SVG Version: 6.00 Build 0)  -->
<svg version="1.1" id="Layer_1" xmlns="http://www.w3.org/2000/svg" xmlns:xlink="http://www.w3.org/1999/xlink" x="0px" y="0px"
	 viewBox="0 0 436.7 56.7" style="enable-background:new 0 0 436.7 56.7;" xml:space="preserve">
<style type="text/css">
	.st0{fill:#F5F3F2;}
</style>
<g>
	<rect x="351.8" y="5.6" class="st0" width="8.3" height="8.6"/>
	<path class="st0" d="M264.8,49c2,4.9,6.3,7.7,11.6,7.7c6.4,0,9.8-5.2,9.8-5.2v4.2h7.9V22.4h-8.2v18.4c0,1.5-0.1,3.3-0.7,4.5
		c-1.2,2.5-3.5,3.9-6.4,3.9c-2.8,0-5-1.4-6.2-3.9c-0.6-1.3-0.7-2.8-0.7-4.2l0-18.7h-8.2l0,19.5C263.8,44.3,263.9,46.8,264.8,49z"/>
	<rect x="351.8" y="22.4" class="st0" width="8.2" height="33.3"/>
	<path class="st0" d="M251.3,49.1c-3.4-0.3-4.7-1.8-4.7-5.4V29.9h6.3v-7.5h-6.3V10.5l-8.2,0v11.9h-3.3v7.5h3.3v15.2
		c0,3.4,1,6.2,2.9,8.1c3,3,7.5,3.4,9.3,3.4c1,0,2.3-0.2,2.3-0.2v-7.3C253,49.1,251.9,49.2,251.3,49.1z"/>
	<path class="st0" d="M18.8,2.7L0,55.7h9.2l3.1-9.6h18.9l3.1,9.6h9.2L25,2.7H18.8z M28.6,38H14.9l6.8-21.2L28.6,38z"/>
	<g>
		<path class="st0" d="M413.1,45.3L413.1,45.3c-0.3,6.6,5.2,11.3,11.8,11.3c5.8,0,11.9-3.9,11.9-10.6c0-4.3-2.4-7.5-7-9.2
			c-2.1-0.8-4.9-1.1-6.7-1.8c-1.4-0.5-2.4-1.8-2.4-3.4c0.1-2.3,1.7-3.7,4.3-3.7c4.8,0,4.7,4.5,4.7,4.5l6.8-1.3c0,0-0.9-9.7-11.5-9.7
			c-6.1,0-11.4,4.8-11.4,10.2c0,4.3,2.6,7.9,7,9.6c2.6,1,5.6,1.1,7,2c1,0.6,1.7,1.3,1.7,2.9c0,1.8-1.2,3.8-4.5,3.9h-0.1
			c-2.1,0-4.8-1.6-4.6-4.8l0,0L413.1,45.3L413.1,45.3z"/>
	</g>
	<path class="st0" d="M387.5,21.4c-9.8,0-17.7,7.9-17.7,17.6c0,9.7,7.9,17.6,17.7,17.6c9.8,0,17.7-7.9,17.7-17.6
		C405.2,29.3,397.3,21.4,387.5,21.4z M387.5,49.2c-5.3,0-9.7-4.5-9.7-10.1c0-5.6,4.3-10.1,9.7-10.1c5.3,0,9.7,4.5,9.7,10.1
		C397.1,44.6,392.8,49.2,387.5,49.2z"/>
	<path class="st0" d="M67,49.1c-5.3,0-9.7-4.5-9.7-10.1s4.3-10.1,9.7-10.1c3.8,0,7.2,2.4,8.7,5.8l6.9-3.9c-3-5.5-8.9-9.3-15.6-9.3
		c-9.8,0-17.7,7.9-17.7,17.6l0,0v0l0,0l0,0c0,0,0,0,0,0l0,0c0,9.7,7.9,17.6,17.7,17.6c6.8,0,12.6-3.8,15.6-9.3l-6.9-3.9
		C74.2,46.8,70.9,49.1,67,49.1z"/>
	<path class="st0" d="M204.2,23.4c-1.7-1.1-2.7-2.7-2.7-5.2c0-4,3.4-7.3,7.6-7.3c7.2,0,7.9,7.7,7.9,7.7l8.6-1.5
		c-0.4-4.3-3.5-14.2-16.5-14.4c-9.1-0.1-16.5,6.9-16.5,15.5c0,5.7,2.9,10.8,8,13.2c3.4,1.6,5.9,2,8.1,2.5c2.5,0.5,4.3,0.8,5.6,2
		c1.5,1.3,2.4,3.2,2.4,5.2c0,4.1-3.4,7.3-7.6,7.3c-2,0-7.5-0.9-7.5-8.4l-8.9,0c0,14.1,12.1,16.6,16.4,16.6c9.1,0,16.5-6.9,16.5-15.5
		c0-5.4-2.3-9.8-6.4-12.5c-2.6-1.7-5.5-2.4-8.1-2.9C208.8,25.3,206.4,24.9,204.2,23.4z"/>
	<path class="st0" d="M331.4,0v26.1c-2.6-3-7.1-4.7-10.8-4.7c-9.8,0-16.9,8-16.9,17.6c0,9.4,7.1,17.6,16.9,17.6
		c4.6,0,9.2-2.7,10.8-5v4.1h8V0H331.4z M321.4,49.2c-5.3,0-9.7-4.5-9.7-10.1c0-5.6,4.3-10.1,9.7-10.1c5.3,0,9.7,4.5,9.7,10.1
		C331.1,44.6,326.8,49.2,321.4,49.2z"/>
	<path class="st0" d="M167.5,39c0-9.7-7.9-17.6-17.7-17.6c-9.8,0-17.7,7.9-17.7,17.6c0,9.7,7.9,17.6,17.7,17.6
		c5.9,0,11.1-2.8,14.3-7.2l-6.4-4.6c-1.7,2.6-4.7,4.4-7.9,4.4c-4.4,0-8.1-3.1-9.3-7.1l26.8,0C167.5,40.9,167.5,40,167.5,39z
		 M140.8,35.2c1.4-3.8,4.9-6.5,9-6.5c4.1,0,7.7,2.7,9,6.5H140.8z"/>
	<path class="st0" d="M121.5,29.2c-2-4.9-6.3-7.7-11.6-7.7c-6.4,0-9.8,5.2-9.8,5.2v-4.2h-7.9v33.3h8.2V37.4c0-1.5,0.1-3.3,0.7-4.5
		c1.2-2.5,3.5-3.9,6.4-3.9c2.8,0,5,1.4,6.2,3.9c0.6,1.3,0.7,2.8,0.7,4.2l0,18.7h8.2l0-19.5C122.6,33.9,122.4,31.4,121.5,29.2z"/>
</g>
</svg>
