<?xml version="1.0" encoding="utf-8"?>
<!-- Generator: Adobe Illustrator 24.0.1, SVG Export Plug-In . SVG Version: 6.00 Build 0)  -->
<svg version="1.1" id="Layer_1" xmlns="http://www.w3.org/2000/svg" xmlns:xlink="http://www.w3.org/1999/xlink" x="0px" y="0px"
	 viewBox="0 0 283.465 118.071" enable-background="new 0 0 283.465 118.071" xml:space="preserve">
<g>
	<g>
		<path fill="#F5F3F2" d="M26.028,44.01v30.05h8.045V61.047h17.273V74.06h8.045V44.01h-8.045v10.884H34.072V44.01H26.028z
			 M149.304,44.01v6.389h11.594V74.06h8.045V50.399h11.594V44.01H149.304z M215.556,44.01v6.389h-21.295v4.496h17.983v6.152h-17.983
			v6.625h21.295v6.389h-29.34V44.01H215.556z"/>
		<path fill="#F5F3F2" d="M4.969,4.969h273.527v108.133H4.969V4.969z M0,118.071h283.465V0H0V118.071z"/>
		<path fill="#F5F3F2" d="M271.634,106.24H11.831V11.831h259.803V106.24z M10.174,107.896H273.29V10.174H10.174V107.896
			L10.174,107.896z"/>
		<path fill="#F5F3F2" d="M245.37,56.551h-14.434v-6.625h14.434C249.392,49.926,249.392,56.551,245.37,56.551 M248.919,62.466
			c4.969-0.71,7.335-4.496,7.335-9.465c0-4.969-4.259-8.755-9.228-8.755h-24.135v30.05h8.045V62.94h8.282l8.991,11.357h10.174
			L248.919,62.466L248.919,62.466z M110.499,44.01h8.518l16.563,20.586V44.01h8.282v30.05h-9.465l-15.853-19.639V74.06h-8.045V44.01
			z M84.945,67.672c5.205,0,8.518-1.893,8.518-6.152V44.01h8.045V62.94c0,7.808-7.808,11.831-17.036,11.831
			c-8.991,0-16.563-4.023-16.563-11.831V44.01h8.045V61.52C76.19,65.779,79.739,67.672,84.945,67.672"/>
	</g>
</g>
</svg>
