<?xml version="1.0" encoding="utf-8"?>
<!-- Generator: Adobe Illustrator 24.0.1, SVG Export Plug-In . SVG Version: 6.00 Build 0)  -->
<svg version="1.1" id="Layer_1" xmlns="http://www.w3.org/2000/svg" xmlns:xlink="http://www.w3.org/1999/xlink" x="0px" y="0px"
	 viewBox="0 0 283.5 39.7" style="enable-background:new 0 0 283.5 39.7;" xml:space="preserve">
<style type="text/css">
	.st0{fill:#F5F3F2;}
</style>
<path class="st0" d="M23.8,14.6h10C26,5.8,16.9,0,7,0c-8.1,0-9.5,6.7-2.7,15l11.5,14c4.1,5,8,9,9.7,10.3c0,0,0.1,0.1,0.2,0.1h11.7
	c-4-2.6-8.8-7.2-12.3-11.3L12,12.4c-2.8-3.4-2.3-5.2,0.9-4.7C14.5,7.9,19,10.1,23.8,14.6 M49.6,39.7c-0.4-3.1-1.7-6.6-4.5-10h-8.8
	c3.2,3.8,4.6,6.8,5.3,10H49.6z M98,39.7L57.4,0.8H45.2l19.8,38.5h8.3L58.3,11.3h0.3l29.1,28.4H98z M145.9,39.7L113.4,0.8h-8.6
	l31.5,36.9h-0.3L90.1,0.8h-9.3l32.3,38.5h9.2l-18.9-20.9h0.3l26.2,21.2H145.9z M184.6,39.7l-9.1-10.8L162.7,0.8h-8l9.6,19.2l-0.3,0
	L138.5,0.8h-11.3l40.1,29.7l7.7,9.1H184.6z M221.6,23.9l-5.9-7.2C207.4,6.6,197.6,0,187,0c-8.1,0-9.5,6.7-2.7,15l11.5,14
	c4.1,5,8,9,9.7,10.3c0,0,0.1,0,0.2,0h11.7c-4-2.6-8.8-7.2-12.4-11.3l-13-15.6c-2.8-3.4-2.3-5.2,0.9-4.7c2.1,0.3,9.1,3.9,15.6,11.8
	l8.4,10.2c3.2,3.8,4.6,6.8,5.3,10h7.6C228.9,34.9,227.2,30.7,221.6,23.9 M283.5,39.7L250.9,0.8h-8.6l31.5,36.9h-0.3L227.6,0.8h-9.3
	l32.3,38.5h9.2l-18.3-20.7l-0.3-0.2h0.1l0.2,0.2l25.9,21H283.5z"/>
</svg>
