<?xml version="1.0" encoding="utf-8"?>
<!-- Generator: Adobe Illustrator 24.0.1, SVG Export Plug-In . SVG Version: 6.00 Build 0)  -->
<svg version="1.1" id="Layer_1" xmlns="http://www.w3.org/2000/svg" xmlns:xlink="http://www.w3.org/1999/xlink" x="0px" y="0px"
	 viewBox="0 0 189.9 155.9" style="enable-background:new 0 0 189.9 155.9;" xml:space="preserve">
<style type="text/css">
	.st0{fill:#F5F3F2;}
</style>
<g>
	<g>
		<path class="st0" d="M151.8,10.3c0.1,0.1,0.4-0.2,0.6-0.3c0.2-0.1,0.6,0.1,0.5-0.3c0-0.2-0.4-0.3-0.4-0.6c0-0.1,0.1-0.2,0.1-0.3
			c0-0.1,0.1-0.2-0.1-0.1c-0.3,0.1-0.6,0.4-0.5,0.6C152.1,9.7,151.7,10,151.8,10.3"/>
		<path class="st0" d="M151.6,8.2c0.1,0,0.1-0.1,0.1-0.2c0,0-0.1-0.1-0.1-0.1c-0.1,0-0.1,0.1-0.1,0.2C151.5,8.2,151.5,8.2,151.6,8.2
			"/>
		<path class="st0" d="M147.9,11.2c0.1,0.1,0.1,0.3,0.3,0.4c0.1,0,0.1,0,0.2,0c0.3-0.1,0.4-0.5,0.9-0.3c0.1,0,0.1-0.3,0.2-0.4
			c0,0-0.2-0.2-0.2-0.2c-0.3,0.2-0.7,0.2-1.1,0.2C148,10.9,147.8,11,147.9,11.2"/>
		<path class="st0" d="M153,8c0.1,0,0.1-0.1,0.1-0.2c0,0-0.1-0.1-0.1-0.1c-0.1,0-0.1,0.1-0.1,0.2C152.9,8,153,8,153,8"/>
		<path class="st0" d="M151.6,10.5c0,0,0.1,0,0.1,0c0,0,0-0.1,0-0.1c-0.1,0-0.1,0-0.2,0C151.5,10.4,151.5,10.4,151.6,10.5"/>
		<path class="st0" d="M150,9.3c0.2,0.1,0.8-0.4,0.8-0.7c0-0.1-0.1-0.1-0.2-0.1c-0.2,0.1-0.4,0.1-0.6,0.1c-0.2,0-0.3,0-0.3,0.2
			C149.7,9.1,149.8,9.3,150,9.3"/>
		<path class="st0" d="M153.7,9.6c0.4,0.1,0.2-0.3,0.4-0.4c0.1-0.1,0.2-0.1,0.2-0.3c0-0.1,0.1-0.3,0-0.4c-0.1-0.1-0.2,0-0.3,0.1
			c-0.2,0.3-0.3,0.2-0.4-0.1c0-0.2-0.1-0.2-0.2-0.3c-0.1,0-0.2,0-0.2,0.1c0,0.2,0,0.5,0.1,0.6C153.4,9.2,153.5,9.5,153.7,9.6"/>
		<path class="st0" d="M150.1,10.7c-0.2,0.2-0.2,0.5,0,0.7c0.1,0.1,0.2,0.2,0.2,0.1c0.3-0.1,0.5-0.2,0.5-0.6c0.2-0.4,0-0.7-0.2-1
			c0-0.1-0.2-0.1-0.2-0.1c0,0-0.1,0.1-0.1,0.1C150,10.3,150.4,10.5,150.1,10.7"/>
		<path class="st0" d="M151.4,9.5c0.3,0,0.5-0.2,0.5-0.5c0-0.1,0-0.2,0-0.2c-0.1,0-0.2-0.1-0.2-0.1c-0.3,0.1-0.4,0.3-0.4,0.6
			C151.2,9.4,151.3,9.5,151.4,9.5"/>
		<path class="st0" d="M156.5,7.1c0.1,0,0.2-0.1,0.3-0.2c0.1-0.1,0.1-0.2,0.1-0.3c0-0.2,0.1-0.3,0-0.4c0,0-0.2,0.1-0.2,0.1
			c-0.1,0-0.2,0.1-0.3,0.1c-0.1,0.1-0.2,0.2-0.1,0.3C156.4,6.9,156.4,7.1,156.5,7.1"/>
		<path class="st0" d="M155.9,8.6c0.3,0.1,0.3-0.1,0.4-0.2c0-0.2,0.1-0.3-0.1-0.3c-0.2,0-0.5,0.2-0.5,0.3
			C155.6,8.6,155.8,8.6,155.9,8.6"/>
		<path class="st0" d="M154.7,8c0.1,0,0.1-0.1,0.1-0.2c0,0-0.1-0.1-0.1-0.1c-0.1,0-0.1,0.1-0.1,0.2C154.6,7.9,154.6,7.9,154.7,8"/>
		<path class="st0" d="M158.4,7c0.1-0.1,0.1-0.2,0.1-0.3c0-0.1,0.1-0.3,0.1-0.4c0-0.1-0.2-0.2-0.2-0.1c-0.2,0.1-0.3,0.6-0.2,0.8
			C158.2,7.1,158.4,7.1,158.4,7"/>
		<path class="st0" d="M159.2,6.4c0.1,0,0.1-0.1,0.1-0.2c0-0.1,0.1-0.3,0-0.3c-0.1,0-0.1,0.1-0.1,0.2C159.1,6.2,159,6.4,159.2,6.4"
			/>
		<path class="st0" d="M149.7,10.3c0,0-0.1-0.1-0.1-0.2c-0.1,0-0.2,0-0.3,0.1c0,0.1,0,0.1,0,0.2C149.4,10.4,149.6,10.4,149.7,10.3"
			/>
		<path class="st0" d="M141.7,10.4c0.2,0.1,0.2-0.1,0.3-0.2c0-0.1,0-0.2-0.1-0.2c-0.2-0.1-0.2,0-0.3,0.2
			C141.5,10.3,141.6,10.3,141.7,10.4"/>
		<path class="st0" d="M141.7,11.9c0.1,0.1,0.3,0.2,0.5,0.1c0.2-0.1,0.3-0.9,0.1-1.1c-0.1-0.1-0.1,0-0.2,0.1
			c-0.1,0.2-0.2,0.4-0.3,0.6C141.6,11.7,141.6,11.7,141.7,11.9"/>
		<path class="st0" d="M143.3,10.2c0,0.1,0.2,0.1,0.2,0.1c0,0,0.1-0.1,0-0.1c0.3-0.4-0.1-0.7-0.1-1c0.1-0.3-0.3-0.3-0.4-0.3
			c-0.2,0-0.3,0.3-0.2,0.5C142.9,9.7,143.1,9.9,143.3,10.2"/>
		<path class="st0" d="M139.7,12.1c0.2,0.1,0.2,0,0.3-0.2c0-0.1,0-0.2-0.1-0.2c-0.2-0.1-0.2,0-0.3,0.2
			C139.6,11.9,139.6,12,139.7,12.1"/>
		<path class="st0" d="M132.1,11.8c0.3,0.1,0.5,0.3,0.8,0.5c0.3,0.3,0.3,0.3,0.6-0.1c0.5-0.6,0.4-1-0.3-1.2
			c-0.4-0.2-0.8-0.1-1.1,0.3C131.9,11.6,131.8,11.8,132.1,11.8"/>
		<path class="st0" d="M130.6,12.7c0.2-0.3,0.3-0.3,0.9-0.4c0.1,0,0.1-0.1,0.2-0.2c-0.1-0.1-0.1-0.3-0.3-0.4
			c-0.1-0.1-0.3-0.2-0.5,0.1c-0.2,0.3-0.5,0.6-0.7,0.8c-0.2,0.2-0.1,0.2,0,0.2C130.3,12.7,130.4,12.9,130.6,12.7"/>
		<path class="st0" d="M134.4,11.3c0.1,0,0.1,0,0.2,0.1c0.3,0,1.4-0.6,1.6-0.8c0,0,0-0.1,0-0.1c0-0.1-0.1-0.1-0.1-0.1
			c-0.5,0.1-1.1,0.2-1.6,0.3c-0.2,0-0.2,0.2-0.3,0.3C134,11.2,134.2,11.2,134.4,11.3"/>
		<path class="st0" d="M148,10.2c0.1,0,0.3-0.1,0.3-0.2c0.1-0.1,0.1-0.2,0.1-0.3c0-0.2,0.1-0.3,0-0.4c0,0-0.2,0.1-0.2,0.1
			c-0.1,0-0.2,0.1-0.3,0.1c-0.1,0.1-0.2,0.2-0.1,0.3C147.9,10.1,147.9,10.2,148,10.2"/>
		<path class="st0" d="M138.4,10.9C138.4,10.9,138.4,10.9,138.4,10.9c-0.1-0.1-0.7,0-0.8,0.1c0,0.1,0,0.2,0,0.3
			C137.8,11.4,138.4,11.1,138.4,10.9"/>
		<path class="st0" d="M147.7,9.3C148,9,148,9,148.6,8.9c0,0,0.1-0.1,0.2-0.2c-0.1-0.1-0.1-0.3-0.3-0.4c-0.1-0.1-0.3-0.2-0.5,0
			c-0.2,0.3-0.5,0.6-0.7,0.8c-0.2,0.1-0.1,0.2,0,0.2C147.4,9.4,147.6,9.5,147.7,9.3"/>
		<path class="st0" d="M146.7,11.8c0.2-0.4-0.2-0.4-0.3-0.4c-0.1,0.1-0.3,0.1-0.3,0.2c-0.4,0.6-0.9,1-1.3,1.6c0,0,0,0,0,0.1
			c0.2-0.2,0.4-0.4,0.8-0.2c0.1,0,0.5-0.1,0.4-0.3C145.7,12,146.4,12.3,146.7,11.8"/>
		<path class="st0" d="M147.4,11.9c0,0,0.1,0.1,0.1,0.1c0.1,0,0.1-0.1,0.1-0.2c0,0-0.1-0.1-0.1-0.1
			C147.4,11.7,147.4,11.8,147.4,11.9"/>
		<path class="st0" d="M144.1,11.2c0.3-0.2,0.6-0.3,0.9-0.5C144.4,10.4,144.3,10.4,144.1,11.2"/>
		<path class="st0" d="M144.2,12.9c-0.1,0.1-0.1,0.2,0.1,0.3c0.1,0,0.2,0,0.2-0.1c0-0.1,0.1-0.2-0.1-0.3
			C144.3,12.8,144.3,12.8,144.2,12.9"/>
		<path class="st0" d="M145.6,10.5c-0.1,0.1-0.2,0.3,0.1,0.4c0.2,0.1,0.3,0.6,0.7,0.2c0,0,0.4,0.1,0.4,0.2l0.3,0
			c0.1-0.4,0-0.3,0.1-0.6c0.1-0.4,0.1-0.4-0.3-0.4c-0.1,0-0.2,0-0.4,0c-0.1,0-0.2,0.1-0.2,0c0.2-0.3-0.2-0.8,0-0.8
			c0.5-0.2,0.3-0.5,0.3-0.9c0-0.2,0.1-0.5,0.2-0.7c0-0.1,0.4-0.1,0.1-0.3c-0.2-0.1-0.2,0.2-0.3,0.2c-0.5,0.2-0.5,0.5-0.3,0.9
			c0.1,0.3,0,0.5-0.2,0.6c-0.1,0.1-0.2,0.2-0.1,0.2C146.1,10,145.8,10.3,145.6,10.5"/>
		<path class="st0" d="M144.6,9.5c0.3,0,0.4,0.1,0.2,0.3c-0.1,0.1-0.1,0.2-0.1,0.3c0.1,0.1,0.2,0.2,0.2,0.1c0.2-0.2,0.3-0.3,0.4-0.5
			c0.1-0.2,0.3-0.4,0.2-0.7c-0.2-0.4-0.4,0.1-0.6,0c-0.1-0.1-0.2-0.1-0.4,0c-0.1,0.1-0.3,0.1-0.2,0.3C144.4,9.4,144.5,9.5,144.6,9.5
			"/>
		<path class="st0" d="M140.6,9.9C140.6,9.8,140.5,9.8,140.6,9.9c-0.1-0.1-0.7,0-0.8,0.1c0,0.1,0,0.2,0,0.3
			C139.9,10.3,140.6,10,140.6,9.9"/>
		<path class="st0" d="M186.9,7.6c-0.9,0.4-2,0.9-3.1,0.4c-0.4-0.2-0.6,0.1-0.9,0.2c-1.4,0.3-2.9,0.4-3.8,1.9
			c-0.1,0.2-0.4,0.3-0.7,0.5c-1.1,0.6-2.4,1.5-2.9,2.4c-0.9,1.4-2,2.6-2.8,4.2c-0.9,1.7-1.5,3.6-2.1,5.4c-0.4,1.2-0.8,2.5-0.4,3.8
			c-0.5,2.7,0.1,5.3,0.6,7.8c0.2,1,0.4,2.1,0.4,3.1c-0.1,0-0.1,0-0.1,0c0,0-0.3-0.3-0.5-0.7c-0.5-1.9-1.1-3.8-1.2-5.8
			c0-1.7-0.5-3.5-0.3-5.1c0.3-2,0.4-4.2,1.6-6c0.5-2.6,2.4-4.4,3.5-6.7c1.8-1.4,3.3-3.3,5.2-4.6c0.5-0.3,1.3-0.1,1.6-0.8
			c-0.3-0.3-0.8-0.8-1-0.8c-1.6,0.3-3.4,0-4.4,1.7c-0.1,0.2-0.2,0.5-0.4,0.6c-1.4,0.9-2.3,2.2-3.3,3.6c-1.3,1.9-2.2,4-3,6.1
			c-0.7,1.9-0.9,4-1.4,6c-0.2,0.7,0,1.1-0.1,1.6c-0.1,0.6-0.1,1,0,1.6c0.3,1.6,0.5,3.2,0.8,4.8c0.5,2.7,1.5,5.2,2.7,7.6
			c0.2,0.4,0.1,0.9,0.4,1.3c0.3,0.3,0.7,0.7,0.6,1.3c-0.2,0.7,0.8,0.4,0.7,1.1c-0.1,0.7,0.7,1.2,0.9,1.8c0.3,0.7,2.1,2.6,6.1,14.2
			c0.6,1.9,0.5,3.7,0.8,5.6c-0.8,0.2,0.3,1-0.3,1.3c-0.5,0.2-0.5,1-1.1,1.1c-1.4,0.2-2.7,1-4.2,0.7c-1.1-0.2-2.4-0.4-4.2-1.2
			l-10.7-4.7c0,0,0,0,0,0c0.1-0.1,0.2-0.3,0.1-0.4c-0.2-0.3-0.3-0.6-0.2-0.9c0.1-0.5,0-0.9-0.1-1.4c-0.1-0.8-0.3-1.7-0.2-2.4
			c0.1-0.3,0.1-1.4,0.1-1.7c0-0.4-0.2-0.7-0.1-1.1c0.1-0.4-0.2-0.8,0-1.1c-0.2-0.6,0-1.2-0.1-1.8c-0.1-0.2-0.2-0.5-0.1-0.7
			c0.1-0.4,0-0.7,0-1.1c-0.1-0.4,0-0.7,0-1.1c0-0.7-0.2-1.3-0.2-2c0-0.5-0.1-1-0.1-1.5c0-0.7-0.3-1.3-0.1-2c-0.3-1,0.1-2.1,0-3.1
			l-0.1-1c-0.1-0.2-0.3-3.2-0.5-3.2c-0.1,0-0.5-0.2-0.7-0.3c-0.1,0-0.1,0.2-0.2,0.1c-0.2-0.2-0.5-2-0.7-1.8
			c-0.1,0.1-0.2-0.2-0.2-0.4c-0.1-0.1-0.6-0.1-0.5-0.1c0-0.1-0.3-0.2-0.1-0.4c-0.3-0.2,0-0.4-0.1-0.6c-0.1-0.2-0.3-0.3-0.5-0.5
			c0.2-0.2-0.1-0.3-0.1-0.4c-0.1-0.4-0.1,0.2-0.3,0c-0.3-0.3-0.5-0.8-1.2-1.1c-0.1,0-0.6-0.4-0.7-0.6c-0.1-0.1-0.2-0.1-0.3,0
			c-0.1,0.1-0.9,0.8-1.2,1.1c-0.2,0.2-0.6-0.1-0.6-0.1c-0.4-0.3-0.9-0.1-1.1,0.4c-0.1,0.2-0.2,0.3-0.2,0.5c-0.1,0.3-0.2,0.3-0.5,0.3
			c-0.2-0.1-0.4,0-0.6,0.1c-0.3,0.2-0.5,0.5-0.7,0.7c-0.3,0.3-0.8,0.6-0.5,1.3c0,0,0,0,0,0.1c-0.1,0.5-0.6,1.7-0.8,2.1
			c-0.2,0.3-0.7,1.2-0.9,1.4c-0.2,0.2-0.4,0.8-0.4,0.8c-0.2,0.6-1.5,3.4-2,4.3c-0.4,0.7-1.4,3.6-1.7,4.3c-0.1,0.3,0,0.7-0.2,0.8
			c-0.3,0.2-0.2,0.4-0.2,0.6c0,0-0.1,0.1-0.1,0.1c-0.1,0-0.1,0-0.2-0.1c0-0.1,0-0.2-0.1-0.4c-0.1-0.5-0.1-2.5-0.3-3
			c-0.1-0.4-0.3-1.8-0.3-2.2c-0.1-0.4-0.3-2.8-0.6-3.1c0.2-0.3,0-0.7,0-1c0-0.4-0.3-2.3-1.1-3.5c-0.3-0.4-0.4-0.9-0.8-1.3
			c-0.1-0.1-0.3,0-0.3-0.2c0-0.4-1.6-2-1.7-2.2c-0.1-0.3-0.6-0.2-0.6-0.6c0,0-0.2-0.3-0.2-0.1c-0.1,0.2-0.4,0-0.4,0.3
			c0,0.7-0.4,1.3-0.8,1.9c-0.2,0.4-1,2-1.2,2.3c-0.3,0.6-1.5,3.9-1.8,5c0.1-0.1-2.3,9-2.2,9c0.1,0.1-0.5,4.7-0.5,5.6
			c0,0.5-0.1,1-0.2,1.5c0,0.2,0,0.9,0,1c-0.1,0.6,0,2.6,0,2.9c0,0.3,0.1,1.6-0.1,1.9c-0.9-1.8-3.9,2.1-3.9,2.1l-0.1,0.1
			c-0.5,0.8-1,1.6-1.6,2.3c0,0-2.4,2.4-3.9,3.2c-0.4,0.2-0.6,0.2-0.8-0.2c-1.2-1.7-3.3-5.6-4.1-8c-0.6-2-1.2-4-1.7-6
			c-0.6-2.4-0.8-4.9-1.7-7.3l-0.9-5.5c-0.6-2.1-1.3-6.2-1.3-6.2c0-0.2-0.1-0.5,0-0.6c0.2-0.2,0.2-0.4,0.5-0.5c0.7-0.4,2.4-1.9,3.2-2
			c0.1,0,1-0.4,1-0.5c0.1-0.2,2.3-1.1,3-1.8c0.3-0.3,1.9-1.2,2.3-1.4c0.3-0.2,1.8-1,2.2-1.2c0.3-0.2,0.5-0.3,0.7-0.6
			c0.1-0.3,1.2-0.2,1.3-0.3c0.4-0.6,1.2-0.6,1.6-1.3c0.2-0.4,0.7-0.8,1.1-0.7c0.4,0,0.6-0.1,0.9-0.2c0.3-0.1,0.4-0.3,0.3-0.7
			c-0.1-0.3,0.4-0.6,0.7-0.3c0.2,0.1,0.8-0.4,1.1-0.5c0.1,0,0.1-0.2,0.1-0.2c-0.2-0.3,0-0.3,0.2-0.4c0.6-0.4,2.4-1,2.6-1.1
			c0.3-0.2,0.5-0.3,0.5-0.7c0-0.2,0.2-0.2,0.3-0.3c0.2-0.2,2.4-0.9,3-1.7c0.2-0.3,0.5-0.6,0.8-0.2c0.2-0.3,0.8,0,0.9-0.5
			c0.1-0.3,0.3-0.8,1.1-1.1c0.1,0,0.7-0.2,0.9-0.3c0.4-0.2,0.6-0.7,1.1-0.6c0.1,0,0.3-0.1,0.3-0.3c0.1-0.4,0.2-0.8,0.3-1.2
			c0.1-0.2,0.1-0.3,0.3-0.2c0.2,0.1,0.3,0.1,0.3,0.3c0,0.2-0.3,0.4,0,0.6c0.2,0.1,0.5-0.1,0.6-0.3c0.2-0.2,0.5-0.3,0.5-0.7
			c0-0.1,0-0.3,0.2-0.3c0.6-0.2,0.5-0.7,0.4-1.1c-0.1-0.3,0-0.6,0.1-0.8c0.1-0.1,0.2-0.2,0.3-0.2c-0.3-0.5-0.6-0.9-1.1-1.2
			c-0.1-0.1-0.2-0.3,0.1-0.4c0.1,0,0.1-0.2,0-0.3c-0.1-0.1-0.2-0.1-0.2-0.1c-0.2,0.1-0.5,0.1-0.4,0.4c0.2,0.6-0.1,0.9-0.5,1.1
			c-0.1,0.1-0.1,0.3,0.1,0.4c0.3,0.1,0.4,0,0.5-0.3c0-0.2,0.2-0.2,0.3-0.1c0.2,0.1,0.1,0.2,0.1,0.3c0,0,0,0.1,0,0.1
			c-0.2,0.3-0.6,0.4-0.7,0.8c0,0.1-0.3,0-0.3,0c-0.4-0.2-0.3-0.9-0.9-1c0,0,0-0.1,0-0.1c0.2-0.4,0.1-0.9,0.2-1.4
			c0-0.2,0.3-0.2,0.3-0.4c0-0.1,0.1-0.2,0-0.3c-0.1-0.1-0.3-0.1-0.4-0.1c-0.1,0-0.2,0.2-0.1,0.3c0.1,0.1,0.2,0.3,0,0.4
			c-0.3,0.2-0.3,0.5-0.4,0.8c0,0.1-0.1,0.2-0.2,0.3c-0.3,0.2-0.6,0.3-0.7,0.7c0,0.1-0.2,0.1-0.3,0.2c0-0.2-0.3-0.2-0.4-0.4
			c0-0.1,0.1-0.2,0.2-0.3c0.1,0,0.2-0.1,0.3-0.1c0.1-0.1,0.4-0.1,0.3-0.3c-0.1-0.3-0.2-0.6-0.4-0.7c0,0-0.1,0-0.2,0.1
			c0,0.1-0.1,0.2,0,0.3c0.1,0.2,0.1,0.3-0.1,0.4c-0.1,0-0.2-0.1-0.3-0.2c-0.1-0.1-0.1-0.4-0.3-0.4c-0.3,0-0.5,0.2-0.7,0.3
			c-0.2,0.1,0,0.3,0.1,0.5c0.2,0.5-0.1,1.2-0.5,1.4c-0.3,0.1-0.6,0.3-0.9,0.5c-0.2,0.1-0.3,0-0.4-0.1c-0.1-0.3-0.2-0.5,0.1-0.7
			c0.3-0.2,0.7-0.4,1-0.6c0.1-0.1,0.4,0,0.2-0.3c-0.1-0.3-0.5-0.6-0.7-0.4c-0.2,0.2-0.6,0.2-0.7,0.5c-0.1,0.3-0.3,0.5-0.6,0.4
			c-0.1,0-0.2,0-0.2,0.1c0.1,0.4-0.7,0.6-0.3,1.1c0,0,0,0.2-0.1,0.2c-0.3,0.2-0.6,0.3-0.9,0.5c-0.1,0-0.2-0.1-0.2-0.1
			c0.3-0.2-0.2-0.6,0.2-0.9c0.1-0.1,0.1-0.4,0.2-0.7c0-0.1,0-0.2-0.1-0.2c-0.1,0-0.2,0-0.2,0.1c-0.3,0.3-0.5,0.5-1,0.4
			c-0.4-0.1-0.6,0.4-0.9,0.6c-0.1,0.1,0,0.1,0.1,0.2c0.2,0.1,0.2-0.1,0.4-0.1c0.2,0,0.4,0.3,0.3,0.5c-0.3,0.4-0.9,0.6-1.3,0.5
			c-0.1,0-0.2-0.1-0.1-0.2c0-0.2,0.3-0.3,0.4-0.5c0-0.4-0.4-0.3-0.4-0.6c0-0.2,0.2-1,0.3-1.4c-0.4,0-0.5,0.4-0.9,0.2
			c-0.5-0.3-0.3,0.5-0.4,0.6c-0.2,0.1-0.3,0.5-0.7,0.3c-0.6-0.4-0.9-0.4-1.2,0.2c-0.2,0.4-0.5,0.7-0.9,0.8c-0.4,0.1-0.8,0.3-1.1,0.5
			c-0.3,0.2-0.6,0.3-0.9-0.1c-0.2-0.3-0.5-0.2-0.6,0.2c-0.2,0.9-1.7,0.3-2,0.5c-0.4,0.3-0.5,0.5-1.3,0.6c-0.8,0.1-4.6,1.7-5.5,2.1
			c-0.7,0.3-3.2,1.5-3.9,1.7c-0.5,0.2-0.7,0.4-1.1,0.5c-0.2,0-3.5,1.6-3.8,1.6c-0.1,0-0.2-0.4-0.3-0.6c-0.1-0.2,0.1-0.9,0-1.2
			c-0.2-0.6-0.2-2.9-0.3-3.4c-0.2-0.8-0.4-1.5-0.6-2.3c-0.1-0.8-0.5-1.5-0.4-2.3c-0.4-0.6-0.1-1,0.2-1.5c0.3-0.6,0.6-1.2,0.5-1.9
			c0-0.6-0.3-1.2-0.4-1.9c-0.6-0.2-0.7-0.8-1.2-1.1c-0.5-0.2-0.8-0.7-1.3-0.9c-0.2-0.1-0.9-1.4-1.9-1.3c-0.4,0-1.5-0.9-1.7-1.2
			c-0.4-0.6-1.1-0.9-1.7-1.3c-0.4-0.2-0.8,0-1.2,0c-0.7,0.1-1.1,0.7-1.7,1C93,2.3,93,2.8,92.9,3.1c-0.3,0.8-0.3,1.6,0,2.4
			c0.1,0.3-0.1,2.5-0.4,3.2c0.4,1.4-0.3,2.2-0.1,4.1c0,0.5-0.2,2.7-0.4,3.3c-0.2,0.4-0.1,1.9-0.2,2.4c-0.2,1.7-0.1,3.6-0.1,4.7
			c0,0.8-0.1,3-0.1,3.2c-0.1,0.8,0.2,1.6,0.2,2.4c0,0.5,0,0.8-0.5,1.1c-0.5,0.3-1.1,0.6-1.4,1.2c-0.1,0.2-0.2,0.4-0.4,0.5
			c-0.5,0.1-0.6,0.7-1.2,0.7c-0.5,0-0.7,0.7-1.2,0.8c-0.1,0-0.3,0.1-0.3,0.2c-0.1,0.5-0.5,0.8-0.9,1.1c-0.4,0.3-0.5,0.9-1.1,0.9
			c-0.1,0-0.1,0.2-0.2,0.2c-0.5,0.3-0.8,0.9-1.3,1.4c-0.4,0.5-0.8,1-1.2,1.5c-0.4,0.5-2.2,2.3-2.5,2.8c-0.5,0.7-1.1,1.4-1.8,1.9
			c-0.6,0.4-0.7,0.8-0.4,1.4c0.1,0.1,0.2,0.3,0.2,0.5c0.1,1.1,0.4,1.6,1.1,2.1c0.1,0.1,0.2,0.2,0.4,0.3c0.1,0.1,0.2-0.1,0.4,0
			c0.4,0.1,0.8,0.3,1.2,0.3c0.4,0,2-0.1,2.5-0.2c0.4,0,0.8-0.3,1.2-0.1c0.5,0.2,0.8-0.2,1.3-0.2c0.1,0,1.2-0.1,1.5-0.2
			c1.4-0.5,2.8-1.1,4.2-1.7c0.3-0.1,0.7-0.1,1-0.4c0.3-0.1,0.4,0.4,0.4,0.6c0.1,1.3,0.5,2.4,0.7,3.7c0.3,1.9,0.3,3.8,1.2,5.6
			c0.2,0.4,0.2,0.9,0.3,1.3c0.2,0.9,0.2,1.9,0.6,2.7c0.6,1.5,0.7,3.1,1.3,4.6c0,0,2.8,11.9,6.6,13.9c0.1,0.1,3.8,2.4,5.8,2.5
			c1.1,0,2.2,0.1,3.3,0.4c1,0.3,3.5-0.8,3.8-1.1c0.4-0.3,2.4-0.9,4.1-3c2.1-2.1,5-6.5,5-6.5c0.8-1.1,1.9-2.3,1.9-3.8
			c0-0.1,0-0.2,0-0.3c0.3,0.6,0.2,1.5,0.2,1.6c0.1,0.8,0.2,1.6,0.5,2.3c0.1,0.2,0.3,0.4,0.3,0.7c0,0.3,0.7,1.7,0.9,2.2
			c0.2,0.5,1.2,1.8,1.3,2c0.3,0.7,2.4,2.6,3,3.2c0.3,0.3,0.5,0.6,0.5,1.1c0,0.3-0.1,3.8,0,4c0,0.2-0.4,0.8-0.5,1.1
			c0,0.3,0,2.1,0.1,2.6c0,0.1-0.1,0.8-0.2,0.9c-0.3,0.6-0.4,2-0.4,2.1c0.2,0.6,0.2,2.1,0.1,2.2c-0.2,0.5,0.2,3.5,0.1,3.6
			c-0.2,0.3,0,0.6,0,0.9c-0.1,0.7-0.1,3.2-0.2,4.5c0,0.2-0.1,1.8-0.1,1.9c0,0.2,0,3.8,0,3.9c-0.2,0.3-0.1,1.3-0.1,1.6
			c0.1,0.3,0,3-0.2,3.6c0,0.1,0,3.4,0,3.7c0.3,1.5,0.2,3,0.5,4.5c0,0.2,0.1,2.2,0.2,2.4c0.2,0.4,0.1,0.8,0.3,1.2
			c0.2,0.5,0.9,3,1,3.7c0.3,0.2,0.7,1.4,0.7,1.7c0,0.6,0.4,1,0.7,1.4c0.1,0.1,0.1,0.1,0.1,0.2c0.1,0.9,0.8,1.3,1,2.1
			c0,0.1,0.1,0.1,0.2,0.1c0.4,0.3,0.7,0.6,1,1c0,0,0.1,0.1,0.2,0.1c0.1,0,0-0.1,0-0.2c0-0.1-0.1-0.2,0-0.2c0.1,0,0.1,0.1,0.1,0.2
			c0,0,0,0.2,0.1,0.2c0,0,0.1-0.1,0.1-0.1c0-0.2,0-0.4-0.2-0.6c0,0,0-0.2,0-0.2c0.1,0.1,0.3,0.2,0.2-0.1c0-0.2-0.1-0.4-0.2-0.6
			c-0.1-0.2-0.3-0.5-0.3-0.8c0-0.2-0.2-0.3-0.2-0.5c0-0.2,0-0.4-0.1-0.6c-0.2-0.3-0.2-0.5-0.2-0.8c0.2,0.1,0.1,0.3,0.2,0.4
			c0.1,0.1,0.2,0.2,0.3,0.3c0,0,0,0.2,0.1,0.2c0,0,0-0.1,0-0.2c0-0.2,0-0.2,0.2-0.2c0.1,0,0.2-0.1,0.2,0.1c0,0.5,0.3,0.8,0.5,1.2
			c0.3,0.6,0.5,1.1,0.9,1.6c0-0.3-0.1-0.6-0.1-0.9c0.3,0.2,0.3,0.5,0.6,0.7c-0.1-0.7-0.2-1.4-0.3-2.1c0.4,0.3,0.4,0.7,0.4,1
			c0,0.1,0.1,0.2,0.2,0.2c0.1,0,0.1-0.1,0.1-0.2c-0.1-0.3,0.1-0.5,0.3-0.7c0,0.5,0.3,0.8,0.3,1.2c0,0.1,0.1,0.1,0.1,0.1
			c0.1,0,0.1-0.1,0.1-0.1c0-0.1,0-0.1,0-0.2c0-0.1,0-0.1,0-0.2c0,0.1,0.1,0.1,0.1,0.2c0.1,0.1,0.2,0.1,0.2,0.1
			c0.1-0.1-0.1-0.2-0.1-0.2c0.2-0.3,0-0.6,0-0.9c0-0.2-0.2-0.3-0.2-0.6c0-0.2,0-0.4,0.2-0.5c0.2-0.1,0.1,0.2,0.3,0.3c0,0,0,0,0.1,0
			c0-0.1,0-0.2,0-0.2c-0.1-0.2,0-0.5,0.1-0.7c0-0.1,0.3,0.3,0.3,0.6c0,0.3,0.1,0.5,0.1,0.8c0,0.3,0.1,0.6,0.1,0.9
			c0.2-0.3,0.2-0.5,0.2-0.8c0.3-0.1,0.2-0.3,0.2-0.5c0-0.1-0.1-0.3,0-0.4c0-0.1,0.1-0.2,0.2-0.2c0.1,0,0.1,0.1,0.1,0.2
			c0,0.1,0,0.2,0.2,0.2c0.2,0,0.2-0.2,0.1-0.3c-0.1-0.2-0.1-0.4,0-0.6c0.1-0.2,0-0.3,0-0.5c0-0.1,0-0.2,0.1-0.2c0.1,0,0.1,0,0.2,0
			c0.1,0.1,0.2,0.1,0.2,0.3c0,0.2,0,0.4,0.1,0.7c0.1-0.2,0.1-0.3,0.2-0.5c0-0.2-0.2-0.5,0.1-0.7c0.2-0.2,0-0.5,0.2-0.6
			c0,0,0-0.2,0.1-0.1c0.1,0,0,0.1,0.1,0.2c0.1,0.1,0.1,0,0.1,0c0-0.2-0.2-0.3,0.1-0.5c0,0.3,0.1,0.6,0.1,0.9
			c0.1-0.2,0.3-0.4,0.2-0.6c-0.1-0.3,0.4-0.2,0.2-0.4c0,0,0.1-0.1,0.1-0.1c0.1,0,0.1,0,0.2,0c0.1,0.1,0.1,0,0.2-0.1
			c0.1-0.1,0.1-0.1,0.1-0.2c0.1,0,0-0.2,0.2-0.1c0.3,0.6-0.1,1.2,0.2,1.8c0.1-0.3,0.4-0.4,0.5-0.7c0.1-0.2,0-0.4,0-0.6
			c0-0.2,0.1-0.2,0.1-0.3c0,0,0,0,0,0c0.1,0,0.1,0.2,0.1,0.3c0.1,0.2,0.2,0.3,0.2,0.5c0,0.1,0,0.2,0.1,0.2c0,0,0-0.1,0-0.2
			c0-0.1,0.1-0.1,0.1,0c0,0.1,0,0.2,0.1,0.2c0.1,0,0.1-0.1,0.1-0.2c0-0.3,0-0.3,0.3-0.8c0.1-0.2,0.2-0.3,0.2-0.5
			c0-0.1-0.1-0.2,0.1-0.2c0.1,0,0.3,0.1,0.2,0.2c-0.1,0.2-0.1,0.4,0,0.6c0,0.2-0.2,0.1-0.3,0.3c-0.1,0.1-0.1,0.2-0.1,0.3
			c0,0.1,0,0.3,0.1,0.3c0.1,0,0-0.2,0-0.3c0-0.1,0.1-0.2,0.1-0.2c0.3-0.1,0.2-0.3,0.2-0.5c0-0.2,0.1-0.4,0.4-0.5c0,0,0-0.1,0.1,0
			c0.1-0.1,0.1,0,0.1,0c0,0.1,0,0.1-0.1,0.1c0,0.4,0.1,0.7,0.1,1c0,0,0.1,0,0.1,0.1c0-0.1,0.1-0.2,0.1-0.3c0-0.4,0.3-0.8,0.3-1.2
			c0-0.1,0-0.2,0.2-0.2c0.2,0,0.3,0,0.2-0.3c-0.1-0.1,0-0.3,0.1-0.3c0.2-0.1,0.6-1,0.8-1.3c0.3-0.3,0.8-1.7,0.9-2
			c0.1-0.3,0.3-1.6,0.6-1.7c0.5-0.3,0.5-0.8,0.6-1.2c0.3-0.8,0.2-1.7,0.4-2.5c0.1-1,0.6-3.6,0.6-3.9c0-1.2,0.3-2.3,0.4-3.5
			c0-0.4,0.7-4.6,0.7-4.9c0-0.6,0.6-5.5,0.7-5.9c0.1-0.4,0.3-1.8,0.3-2.2c0-0.4,0.2-2.8,0.4-3.1c0.1-0.1,0.3-3.8,0.3-4
			c0.1-0.4,0.5-4.1,0.5-5.4c0.3-0.3,0.4-2.4,0.4-3.1c0-0.8,0.3-1.6,0.1-2.4c0.3-0.9,0.5-3.5,0.3-3.9c0-0.1,0.1-1.8,0.2-2.6
			c0-0.3,0.1-3.1,0.2-3.6c5.6,3.5,9.1,4.8,9.1,4.8s3,1.4,6.7,2.2c0,0,0.1,0,0.1,0c0.7,0.2,1.4,0.3,2.1,0.4c0.1,0.2,0.5,0.1,0.7,0.2
			c0.3,0.2,0.5,0.1,0.6-0.1c0.4,0,0.8,0.1,1.2,0.1h0c0.2,0.1,0.5,0.1,0.7,0.2c0.1,0,0.2-0.2,0.3-0.2c2.2-0.1,3.2-0.7,3.6-1.2
			c0,0,0,0,0,0c1.2-1.4,1.9-1.7,2.1-2.6c0.3-1.2,0.1-2.5,0-3.8c-0.3-3.2-1-6.3-2-9.4c-0.7-2.1-1.4-4.1-2.3-6.1
			c-0.6-1.4-2.1-5.5-2.7-6.8c-0.4-0.9-0.8-1.8-1.1-2.8c-0.3-1-0.9-1.9-1.1-3c-0.1-0.5-0.3-1-0.5-1.5c-0.9-3-1.4-6-0.9-9.2
			c0.4-2.6,1.3-5,2.4-7.3c1.2-2.5,2.5-4.9,4.7-6.6c0-0.8,1.1-0.7,1.2-1.5c0.1-0.7,1.2,0.1,1.4-0.9c0.1-0.6,1-1.8,1-1.9
			c1.1-0.6,1.3-1.9,2.1-2.8C188.3,7.3,187.7,7.2,186.9,7.6 M137.8,129.1C137.8,129.1,137.8,129,137.8,129.1c-0.1-0.1,0-0.1,0-0.1
			C137.8,129,137.9,129,137.8,129.1C137.9,129,137.8,129.1,137.8,129.1 M140.3,131.3C140.3,131.3,140.3,131.2,140.3,131.3
			c-0.1-0.1,0-0.1,0-0.1C140.3,131.2,140.4,131.2,140.3,131.3C140.4,131.2,140.3,131.3,140.3,131.3 M141.1,129.5
			C141.1,129.5,141,129.4,141.1,129.5c-0.1-0.1,0-0.1,0-0.1C141.1,129.4,141.1,129.4,141.1,129.5
			C141.1,129.4,141.1,129.5,141.1,129.5 M143.7,128.2c0,0-0.1,0-0.1,0c0-0.1,0.1-0.2,0.1-0.3c0,0,0.1,0.1,0.1,0.1
			C143.9,128,143.9,128.1,143.7,128.2 M146.1,125.9c0-0.1-0.1-0.1-0.1-0.2c0,0,0-0.1,0-0.1c0.1,0,0.1,0.1,0.1,0.2
			C146.1,125.9,146.1,125.9,146.1,125.9 M146.4,126.2C146.4,126.2,146.4,126.1,146.4,126.2c0-0.1,0-0.1,0-0.1
			C146.5,126.1,146.5,126.1,146.4,126.2C146.5,126.1,146.4,126.2,146.4,126.2 M147.4,126.5c-0.1,0-0.1,0-0.1-0.1
			c0-0.2,0.1-0.3,0.2-0.3c0.1,0,0.1,0.1,0.1,0.1C147.6,126.4,147.6,126.5,147.4,126.5"/>
		<path class="st0" d="M142,12.7c-0.2,0.3,0.2,0.4,0.4,0.1c0-0.1,0.3,0.1,0.3-0.1c-0.1-0.1-0.2-0.2-0.3-0.2
			C142,12.5,142,12.7,142,12.7"/>
		<path class="st0" d="M142.6,13c0,0,0.1,0.1,0.1,0.2c0.1,0.3-0.1,0.5-0.3,0.7c-0.3,0.2-0.4,0.4,0,0.5c0.1,0,0.1,0.2,0.1,0.3
			c0.1,0.2,0.2,0.2,0.3,0.1c0.2-0.1,0.4-0.2,0.5-0.5c0-0.2,0.3-0.4,0.4-0.3c0.4,0.1,0.5-0.2,0.7-0.4c0,0,0.1-0.1,0.1-0.1
			c-0.1,0.1-0.3,0.2-0.5,0.3c-0.1,0-0.3,0-0.4-0.1c-0.1-0.3-0.1-0.6-0.2-0.9c-0.1-0.3,0.2-0.2,0.3-0.3c0.1-0.1,0.4-0.1,0.4-0.4
			c0-0.1,0.1-0.2,0-0.3c-0.1,0-0.2,0-0.3,0c-0.3-0.5-0.9,0.1-0.9,0.1c0-0.2-0.1-0.4-0.2-0.5c-0.1,0.5-0.4,0.9,0,1.4
			C142.9,12.6,142.9,13,142.6,13"/>
		<path class="st0" d="M89.5,95.4c0-1-0.5-4.9-0.3-5.2c0.1-0.3-0.1-2.6-0.2-3.2c-0.1-0.4,0-2.5-0.1-3.1c0-0.2-0.3-1.6-0.2-1.9
			c0.2-0.4,0.1-1.8,0-2.2c0-0.2-0.5-4.4-0.3-4.6c0.1-0.1-0.3-0.9-0.1-1.2c0.1-0.1-0.1-3-0.2-3.3c0,0,0,0,0-0.1
			c0.2-0.5-0.2-2.4-0.2-2.8c0-0.3-0.1-2.7,0-2.9c0.1-0.6-0.1-2.7-0.1-3c0.1-0.3,0.2-0.6,0.1-0.9c-0.1-0.2,0-0.5-0.1-0.8
			c0-0.6,0-1.3,0-1.9c0.1-0.6,0-1.2,0.4-1.7c0.1-0.1,0.1-0.4-0.1-0.4c-0.5-0.3-0.7-1-1.3-1.1c-0.1,0.2-0.3,0.2-0.4,0.1
			c-0.3-0.4-0.4-0.5-0.4-0.9c-0.1-0.5-0.5-0.8-0.7-1.2c0,0-0.1-0.1-0.1-0.1c-0.1,0.1-0.1,0.3-0.3,0.2c-0.2-0.1,0.2-0.3-0.1-0.4
			c-0.2-0.1-0.3-0.2-0.4,0.1c0,0.2-0.1,0.2-0.1,0.1c-0.1-0.2-0.2-0.2-0.3-0.3c-0.1-0.1-0.1,0.2-0.2,0.1c-0.2-0.1-0.1-0.2-0.1-0.4
			c-0.1-0.3-0.2-0.3-0.4-0.1c-0.1,0.2-0.1,0-0.2-0.1c0-0.1,0-0.3-0.1-0.3c-0.2,0-0.4,0.1-0.5-0.1c0,0-0.1,0.1,0,0.1
			c0,0.2-0.1,0.3-0.2,0.2c-0.1,0-0.4-0.1-0.4,0c0,0.1-0.3,0.3-0.3,0.4c0,0,0,0,0,0c-0.1,0.1-0.1-0.2-0.8,0.3
			c-0.8,0.5-0.6,1.8-0.6,1.9c0.3,0.3,0,1,0,1c0,0.2-0.5,0.4-0.5,0.5c0,0.5-1,2.9-1.1,3.7c0,0.2-0.3,1.5-0.6,1.9
			c-0.1,0.1,0,0.8,0,0.9c0,0.2-0.3,0.1-0.3,0.4c0,0.6-0.4,1.9-0.4,2.1c0,0,0,0,0,0c-0.3,0.3-0.3,0.4-0.4,0.8
			c-0.1-0.1-0.2-0.1-0.2-0.2c-0.2-0.2,0.4-0.7-0.5-0.6c-0.9,0.1-2,1.1-2.7,1.4c-1.5,0.7-2.5,1-3.6,1.9c-0.2,0.2-0.9,0.6-1.5,1
			c-0.2-0.7-0.7-2-0.8-2.9c0-0.5-0.3-1.1-0.2-1.6c-0.2-0.7,0.1-1.4-0.1-2.1c0.2-0.4,0.3-0.7,0.3-0.9c0.1-0.6,0.2-1.4,0.2-1.6
			c0.1-0.6-0.1-1.2-0.2-1.8c-0.2,0-0.5-0.3-0.6,0.1c0,0.1-0.1,0.2-0.1,0.2c-0.3-0.2-0.7-0.5-1-0.2c-0.5,0.4-0.7,0.4-1,0.3
			c0.2-0.6,0.2-0.7-0.1-1c0,0-0.2-0.1-0.5-0.1c-0.1-0.5-0.3-0.4-0.6-0.5c0-0.1-0.1-0.2-0.1-0.2c0-0.1,0.2-0.3,0-0.4
			c-0.1,0-0.5,0.2-0.8,0.5c-0.1-0.1-0.1,0.1-0.4,0.1c-0.3-0.1-0.8-0.2-1-0.2c-0.2,0-1,0.3-1.3,0.8c0.2,0.3-0.2,0.5-0.1,0.8
			c-0.1,0.1-0.1,0.1-0.2,0.1c-0.4,0.1-0.4-0.2-1.1,0c-0.7,0.2-0.1,0.7-0.3,1.1c-0.2,0.4,0.1,1,0.1,1l0,0c0,0.1,0.1,0.3,0.1,0.4
			c0.3,0.8,0.3,0.8,0.3,1.4c0,0.2-0.1,0.4-0.1,0.7c0.2,0.8,0.3,1.6,0.2,2.5c0,0.3-0.2,0.9,0.1,1.2c0.1,0.2-0.1,1-0.1,1
			c0.1,0.6,0.3,2,0.3,2.3c-0.1,0.4,0,0.8,0,1.1c0,0.7-0.1,1.3,0.1,1.9c0,0,0,0.8,0.1,1.6c-0.1,0.1-0.2,0.2-0.3,0.2
			c-0.6,0.5-1.4,0.8-1.9,1.4c-0.5,0.6-1.4,0.6-1.5,1.6c-0.8,0.1-1,1.4-1.7,1.6c-0.8,0.2-0.9,1.4-1.4,1.7c-1.1,0.7-1.7,2-2.7,2.7
			c-0.5,0.4-1.2,0.6-1.3,1.5c0,0.3-0.3,0.4-0.5,0.5c-0.7,0.3-1.1,1-1.6,1.5c0,0-5.1,6.4-6.3,8.2c-1.3,1.8-6.2,7.9-7.6,10.1
			c-5.6,8.6-11.2,18-11.2,18c0-1.2-0.2-2.6,0-3.8c0.1-0.6-0.1-10.4-0.1-11c0.1-1.8,0.2-5.3,0.1-7.1c-0.2-1.9-0.1-3.1-0.2-5
			c-0.1-2.8,0.1-5.7,0-8.5c0,0,1.6-1.5,4.8-3.9c0,0,3-2.1,3.7-2.6c1.3-0.8,2.3-1.6,3.3-2.1c0.2-0.1,0.4-0.3,0.5-0.4
			c0.3-0.3,0.8-0.3,1.2-0.6c0.5-0.4,0.6-0.5,1.1-0.8c0.3-0.1,0.5-0.2,0.6-0.4c0.1,0,0.1-0.1,0.2-0.2c0.1,0,0.1,0,0.2-0.1
			c0.4,0,0.4-0.4,0.9-0.4c0.4,0,0.3-0.6,0.8-0.7c0.7-0.2,1.4-0.9,1.8-1.4c-0.6,0.1-0.8,0.1-1.2,0.6c-0.1,0.1-0.2,0.1-0.1,0
			c0.1-0.2-0.1-0.2,0.1-0.2c0.3-0.1,0,0,0.2-0.2c0.1-0.1,0.2,0,0.3-0.1c0.2-0.2,0-0.3,0.6-0.4c0.3,0,0.2-0.1,0.6-0.2
			c0.3-0.3,0.4-0.7,0.8-1c0.2-0.2,0.2-0.5,0.7-0.2c0.1,0.1,0.3-0.4,0.3-0.3c0,0,0,0.1,0,0.1c0.6-0.3,1.3-0.6,1.4-1.2
			C43.8,72,44,72,44.2,72c0.2,0,0.4,0,0.5-0.1c0.2-0.1,0.4-0.3,0.2-0.5c-0.2-0.2-0.6-0.1-0.7-0.1c-0.4,0.5-1.1,0.4-1.6,0.7
			c-0.1,0.1-0.2,0.1-0.3,0.2c-0.2-0.1-0.5-0.1-0.6,0c-0.4,0.5-1.2,0.4-1.6,0.7c0,0,0,0,0,0c0,0,0-0.1,0-0.1c0-0.2,0-0.3,0.3-0.3
			c0.1-0.4,0.7-0.3,1-0.5c0.7-0.4,3.4-1.6,4.4-2.6c0.1-0.3-1,0.6-1,0.3c0-0.3,0.3-0.5,0.8-0.8c0,0,0,0,0,0c0.4,0,0.6-0.1,0.8-0.4
			c0.6-0.2,1.1-0.4,1.5-0.4c0.4,0,0.7-0.2,0.8-0.5c-0.5,0-1,0.1-1.5,0c0.7-0.4,1.3-0.8,2-1.1c1-0.2,1.9-0.6,2.8-0.9c0,0,0,0,0-0.1
			c0.7-0.2,1.4-0.5,2.1-0.7c0-0.1-0.1-0.2-0.2-0.2c-0.9,0.2-1.9,0.5-2.8,0.7c-0.7,0.1-1.4,0.5-2.1,0.6c-1.3,0.1-2.4,0.5-3.6,0.8
			c-1.2,0.2-2.2,0.4-3.5,0.6c-1.3,0.2-2,0.3-3.2,0.7c-0.1,0-0.6,0.3-0.9,0.4c-1.1,0.3-2,0.8-3.3,1.3c-1,0.4-1.9,0.6-3.1,1
			c-0.1,0-0.7,0.3-0.8,0.3c-1.5,0.4-1.5,0.7-2.9,1.2c-0.4,0.1-1.5,0.7-1.7,0.8c0,0-3.1,1.4-5.2,2.9c-0.1,0.1-0.3,0.2-0.3,0.2
			c-0.5-2.1-0.8-10.5-1-13.8c-0.5-2.9-0.5-5.3-0.7-7.6c0-0.5,0-1-0.1-2.6c1.9-1,4.6-2.1,6.1-2.9c2-1,5.2-2.1,8-3.4
			c4.7-2.1,11.2-4.5,11.4-4.6l9.8-4c0.6-0.2,0.5-0.4,0.6-0.5c0.6-0.3,0.6-0.2,1.1-0.5c0-0.2,0.9-0.4,0.5-0.4c-0.1,0-0.2,0-0.2-0.1
			c0-0.1-0.1-0.1-0.2-0.2c-0.1-0.1,0.3-0.5,0.3-0.5c0-0.2,0.5-0.3,0.6-0.4c0.8-0.7-1.3,0.2-1.3-0.1l0.3-0.2c0.1,0,1.7-0.8,1.7-0.9
			c0-0.2,0.3-0.3,0.3-0.5c0-0.3,0.3-0.3,0.4-0.4c0.1-0.1,1.8-0.9,1.8-1.1c-0.2,0-2,0.9-2.1,1c-0.1,0.1-0.2,0.1-0.3,0
			c-0.1,0-1.4,0.6-1.4,0.5c0-0.1,1.3-0.7,1.3-0.8c0.1-0.1,0.3-0.1,0.3-0.3c0.1-0.2,1.8-1,2-1c0.1,0,0.2-0.1,0.1-0.2
			c-0.1-0.1-0.1,0-0.2,0c-0.1,0-1.8,0.8-1.8,0.7c0-0.1,0.9-0.6,1-0.6c0.1-0.1,0.2-0.1,0.3-0.2c0.2-0.1,0.3-0.1,0.4-0.2
			c0.2-0.1,0.9-0.2,1-0.4C60.2,30,59.2,30,59,30.2c-0.2,0.1-1.4,0.3-1.6,0.4c-0.2,0.1-1.9,0.8-1.8,0.7c0.1-0.2,0.3-0.3,0.5-0.4
			c0.1,0,2-1.1,2.1-1.2c0,0-1.2,0.3-1.2,0.3c-0.1,0.1-1,0.6-1.1,0.4c-0.1-0.2,0-0.1,0.1-0.2c0.2-0.1,2.6-1,2.7-1.2
			c0.2-0.2,1.1-0.5,1.2-0.8c0,0,0.2,0.1,0.2,0c0-0.1-0.1-0.2-0.2-0.1c-0.1,0-0.1,0-0.2,0c0,0,0.1-0.1,0.1-0.1c0,0,0.1,0,0.1-0.1
			c0-0.1,0.1-0.1,0-0.2c0-0.1-0.1-0.1-0.2,0c-0.3,0.2-2.3,0.7-2.6,0.9c0-0.2,1-0.7,1.3-0.8c0.1,0,0.1-0.1,0-0.2
			c-0.1-0.1-0.1-0.1-0.2,0c-0.3,0.2-3.2,1-3.6,1l-0.8,0.3c-3.2,0.6-21.4,5.7-26.4,7.1c0,0-5.4,1.5-16,4.7c-0.2,0.1-2.1,0.8-2.2,0.9
			c-0.4,0.5-4.5,1.6-4.8,2.2c-0.1,0.2-1.8,1.5-1.9,1.7c-0.2,0.1-0.3,0.3-0.4,0.5c-0.1,0.1-0.3,0.2-0.4,0.4c-0.4,0.4,0.2,1.4,0,1.9
			c-0.1,0.2-0.2,0.3-0.3,0.5c-0.2,0.3-0.1,0.5,0,0.7c-0.3,2.1,0.2,1,0,2.5c0.1,0.3-0.7,1.3-0.4,1.8c0.1,0.2,0.9,1,1,1.8
			c0.1,0.5,2.5,0.5,2.8,0.9c0,1.5-0.3,7.1-0.5,8.6c-0.2,1.6,0.1,2.9,0,4.6c-0.1,0.6,0.1,2,0.2,3c0.1,0.9-0.2,5.7,0,6.9
			c0.1,1.2,0.5,2.5,0.2,3.7c-0.1,0.9-0.1,2-0.1,3c0.1,0.6,0.1,1.2,0.1,1.7c0,0,0,0.4,0.1,1.3c0,0-0.3,6.6,0.2,8.2
			c0.1,2.3,0.6,6.3,0.7,9.4c0,0.7,0,4.3,0.1,5.4c0.3,3.7,0.7,5.2,1.2,8.9c0.3,2,0.2,4.4,0.5,6.4c0.2,1.3,0,2.4,0.3,3.7
			c0.2,1.1,0.6,4.4,0.7,4.9c0.7,3.1-1.3,4-1,4.5c0.3,0.7,0.6,0.3,0.6,1.4c0,0.8,0.9,0.1,0.9,0.7c0,1.3,0.9,0.8,1.4,1.6
			c0.2,0.3,0.1,1.2,0.4,1.1c2.2,3.2,4,2.7,4,2.7c0,0,0,0,0.1,0l0,0c0.9,0.3,2.1-0.5,3.4-0.7c1.4-0.2,2.6-2.3,2.6-2.3l8.3-11.3
			c0,0,17.9-28.1,26.9-42.3c0.3-0.3,0.5-0.5,0.7-0.9c0.7-0.9,0.7-1.2,0.8-1.6c0.2-0.3,0.4-0.6,0.6-0.9c0.1-0.1,0.2-0.2,0.3-0.3
			c0.2-0.4,1.2-1.9,1.4-2.3c0-0.1,0.5-0.8,0.5-0.8c0.6-0.9,0.5-0.8,0.7-1.1c0,0.3-0.1,0.8,0.3,1.4l0.1,0.1c0,0,0.4,1.5,0.4,1.5
			c0.6,0.9,1.1,2.3,2.1,3.4c0.1,0.1,0.3,0.1,0.3,0.3c0,0,0.2,0.2,1.1,0.2c0.1,0,0.1,0.1,0.2,0.1c0,0,0.1,0,0.2,0
			c0.1,0.1,0.3,0.1,0.6,0.1c0.3,0,1.7-0.3,2.2-0.4c0.4,0,0.8,0,1.1-0.1c0,0,0,0,0.1,0c0.5,0,1-0.1,1.3-0.3c0.2-0.1,0.4-0.1,0.6-0.2
			c0,0,0.1,0.1,0.1,0.2c0.1,0.3,0,1,0.1,2.1c0,0.4-0.2,5.5-0.2,5.7c0,1.4,0.1,2.6,0,3.9c0,0.3,0,1.6,0.1,1.9
			c0.1,0.7,0.2,3.8,0.2,3.9c-0.1,0.3-0.3,1.6,0.1,1.9c0,0.1,0,0.2,0,0.3c-0.1,0.2-0.1,0.4-0.1,0.5c0.1,0.7,0,1.4,0.2,2.1
			c0,0.3,0,0.7,0.1,1c-0.1,0.1-0.1,0.2-0.1,0.3c0,0,0.1,0.1,0.1,0.1c0,0.1,0,0.3,0,0.5c0,0,0,0.1,0,0.1c0,0.1,0,0.1,0,0.2
			c0,0.3,0,0.6,0.1,1c-0.1,0.2-0.1,0.4-0.1,0.6c0.1,0,0.1,0.1,0.2,0.2c0,0.6,0.1,1.3,0.1,1.9c0,0.1,0,0.1,0,0.2
			c-0.1,0.3,0.1,1,0.1,1.4c0,0.1,0,0.2,0,0.3c-0.2,0.9,0,1.8,0.1,2.6c0.1,0.8,0,1.7,0.3,2.5c0.2,0.5,0.3,2.2,0.3,2.2
			c0.1,0.6,0.1,1.2,0.2,1.8c0,0,0,0,0,0c0,0,0,0.1,0,0.1c0.1,0.5,0.1,1,0.2,1.5c-0.1,0-0.1,0.1,0,0.2c0.1,0.3,0.1,0.5,0.2,0.8
			c0.1,0.5,0.1,1.1,0.2,1.6c0,0.2,0,0.4,0.1,0.5c0.1,0.4,0.1,0.9,0.2,1.3c-0.1,0-0.1,0,0,0.2c0,0,0,0,0,0c0,0.1,0,0.1,0,0.2
			c-0.2,0.1-0.2,0.1-0.2,0.3c0,0.3,0.2,0.5,0.3,0.7c0,0.2,0.1,0.4,0.1,0.6c-0.1,0.4-0.2,0.7-0.1,1.1c0.1,0.4,0.2,0.8,0.2,1.2
			c0,0.6,0.1,1.3,0.4,1.9c0.1-0.1,0-0.2,0-0.3c0-0.1-0.1-0.4,0.1-0.4c0.2,0,0.3,0.3,0.3,0.4c-0.1,0.2,0,0.4,0.1,0.6
			c0.1,0.4,0.2,0.8,0.2,1.2c0,0.2,0,1-0.1,1.2c0,0.3,0.4,0.5,0.2,0.9c-0.1,0.1,0.2,0.3,0.2,0.4c-0.1,0.2-0.1,0.4,0,0.5
			c0.2,0.2,0.2,0.3,0.1,0.5c0.3,0.2,0,0.4,0.1,0.6c0.1,0.3,0.2,0.5,0.2,0.8c0,0.3,0.3,0.4,0.4,0.6c0,0,0,0,0,0c0,0,0.1,0.1,0,0
			c0.1,0.1,0,0.1-0.1,0c0,0,0,0,0,0c-0.1,0-0.1,0.1-0.1,0.1c0.2,1.1,0.5,2.1,0.9,3.1c-0.2-0.6-0.1-1.2-0.4-1.7
			c-0.2-0.3-0.4-0.7,0.1-1.2c0.1,0.6,0.2,1.2,0.3,1.8c0,0.2,0,0.5,0.1,0.6c0.3,0.3,0.3,0.6,0.3,0.9c0.1,0.4,0.4,0.6,0.4,1
			c0.3-0.2-0.1-0.6,0.1-0.8c0,0,0,0-0.1,0c-0.3-0.1-0.2-0.4-0.2-0.6c0-0.2,0.2-0.4-0.1-0.6c-0.2-0.2-0.1-0.5-0.2-0.8
			c0-0.2-0.2-0.5,0.2-0.7c0-0.3,0-0.6-0.2-0.8c-0.1-0.1-0.2-0.2,0-0.3c0.2-0.2,0.1-0.5,0.1-0.7c0,0,0-0.1,0-0.1c0.1,0,0.1,0,0.1,0.1
			c0.1,0.5,0.2,1.1,0.3,1.6c0.3-0.1-0.1-0.4,0.2-0.5c0.1,1.1,0.7,2.1,0.8,3.2c0,0.3,0.5,0.5,0.4,0.8c0,0.1,0,0.1,0,0.2c0,0,0,0,0,0
			c0,0.1,0.1,0.1,0.1,0.2c0,0,0,0.1,0,0.1h0c0,0,0,0,0,0.1c0.2,0.2,0.2,0.5,0.5,0.7c0,0,0,0.1,0,0.2c0,0.1,0,0.2-0.1,0.3
			c0,0,0,0,0,0c0.1,0.2,0.2,0.1,0.3,0.1c-0.1-0.2,0-0.5-0.3-0.7c-0.1-0.1,0-0.2,0.1-0.4c0-0.1,0,0,0.2,0.1c0.2,0.1,0.2,0.3,0.2,0.5
			c0.1,0.5,0.2-0.2,0.3,0c0-0.4-0.4-0.8-0.3-1.3c-0.3-0.1,0-0.7-0.5-0.7c0-0.3-0.2-0.5-0.1-0.8c0,0,0.1-0.1,0.1-0.1
			c0.1-0.1,0.1,0.1,0.1,0.1c0.2,0.2,0.1,0.5,0.2,0.6c0.1,0.2,0.4,0.4,0.5,0.7c0.1,0.3,0.3,0.3,0.4,0.5c0.1,0.2,0,0.5,0.2,0.6
			c0,0,0.1,0.1,0.1,0.1c0.2,0,0.1-0.1,0.1-0.2c0-0.3-0.2-0.5-0.1-0.8c0.1,0.3,0.4,0.5,0.4,0.9c0,0,0.1,0.1,0.1,0
			c0.1-0.1,0.1-0.1,0.1-0.2c0.1-0.1-0.1-0.1-0.1-0.2c-0.2-0.3-0.4-0.5-0.4-0.9c0-0.5-0.4-1-0.1-1.5c0,0,0-0.1-0.1-0.1
			c-0.2-0.5-0.2-0.5,0.1-1c0.1-0.1,0-0.2,0-0.2c0.1-0.7,0.4-1.3-0.1-2c-0.1-0.1,0.1-0.3,0.1-0.4c0-0.1,0.1-0.1,0.2-0.1
			c0,0,0.1,0.1,0.1,0.1c0.1,0.4,0.2,0.8,0.1,1.3c-0.1,0.2,0.2,0.5,0.1,0.7c-0.1,0.3,0.2,0.3,0.2,0.5c0,0.3-0.2,0.5-0.1,0.7
			c0.1,0.1,0,0.3,0.2,0.5c0-0.5-0.1-1,0.3-1.6c0,0.7,0.5,1.1,0.5,1.7c0.2,0,0.1-0.2,0.1-0.3c0-0.1,0-0.2,0.1-0.2
			c0.3,0,0,0.2,0.1,0.2c0,0.1,0.1,0.1,0.2,0.1c0.1,0,0.2,0,0.1,0.1c-0.2,0.3,0,0.5,0,0.7c0.3,0,0.1-0.4,0.3-0.5
			c0.3-0.1-0.1-0.3-0.2-0.4c-0.2-0.3,0.5-0.2,0.1-0.4c-0.1-0.1-0.2-0.3-0.1-0.4c0.2-0.4,0-0.9,0.3-1.2c0.1-0.1,0-0.1-0.1-0.2
			c-0.1-0.1-0.1-0.2,0-0.3c0.3-0.4,0.3-0.8,0.2-1.3c0-0.2,0.1-0.3-0.2-0.3c-0.1,0-0.1-0.1-0.1-0.2c0-0.1,0.1-0.1,0.2,0
			c0.1,0.1,0.3-0.1,0.3-0.1c-0.3-0.1,0-0.3-0.1-0.5c-0.2-0.3,0.2-0.3,0.2-0.4c-0.1-0.4,0.1-0.8,0.1-1.2c0-0.4,0.2-1.7,0.2-2.1
			c-0.1-0.1,0.1-0.9,0.1-0.9c-0.1-0.2-0.1-0.5-0.2-0.7c-0.1-0.3,0-0.5,0.3-0.6c0.2,0,0.4-1.6,0.3-1.8c-0.2-0.3-0.1-0.4,0-0.7
			c0.1-0.1,0.3-0.3,0.2-0.4c-0.2-0.2,0-0.8,0.1-1.3c0-0.2-0.1-0.4-0.1-0.6c0-0.1,0.1-0.3,0.2,0.3c0.1,0.1,0,0.2,0.1,0.5
			c0,0,0,0,0,0.1c0,0.7,0,1-0.1,1.4c-0.1,0.1-0.2,0.3-0.1,0.5c0.1,0.2,0.1,0.3,0.2,0.5c-0.2,0.1-0.5,1.2-0.3,1.5
			c0.3,0.3,0.1,0.6,0.1,0.9c0.1,0,0.2,0.1,0.2,0.2c-0.1,0.3-0.1,0.4,0.1,0.6c0.1,0.1,0,0.2,0.1,0.3c0.1,0.5,0.2-0.2,0.3,0
			c0-0.2-0.4-0.3-0.2-0.5c0-0.1,0-0.2,0-0.3c0-0.1,0-0.2,0.1-0.2c0.1,0,0.2,0,0.2,0.2c0,0.1,0,0.2,0.2,0.3c-0.1-0.2-0.1-0.4,0-0.6
			c0,0-0.1,0.1-0.1,0c-0.1-0.1-0.1-0.2,0-0.3c0.1-0.1,0.3-0.2,0.3-0.4c0-0.1,0-0.1,0.1,0c0,0,0,0,0,0c0-0.2,0-0.2-0.3-0.2
			c0.1,0,0.2-0.2,0.4-1.2l0-0.3c0-0.9,0.1-1.8,0.3-2.6c0.1-0.2,0-0.3-0.1-0.5c-0.1-0.1-0.2-0.1-0.1-0.2c0.2-0.2,0.4-1.4,0.4-1.7
			c0,0,0-0.1,0-0.1c-0.2-0.5,0.1-1.1,0.1-1.6c0.1-1.1-0.1-2.2,0.3-3.2c-0.2-1.4,0.1-4.2,0.1-4.2c0.1-0.9,0.3-4.1,0.3-4.7
			c0-0.7,0.2-4.9,0.3-5.4c0.1-0.4,0.3-2.7,0-3.4c0.2-0.4-0.1-2.3,0.1-2.8c-0.2-0.3,0.1-4.9,0.2-5.8C89.6,102.3,89.3,95.7,89.5,95.4
			 M76.4,69.2c-0.2,0.7-1.1,4.7-1.1,5c0,0.3-0.3,1.4-0.2,1.7c0.1,0.5-1,5-0.9,5c0.2,0.2-0.3,1.4-0.4,2.1c0.2,0.5-0.2,1.6-0.3,1.6
			c-0.1,0-0.3-0.3-0.3-0.3c-0.1-0.5-1.1-2.4-1.3-3.5c-0.1-0.4-0.9-2.4-1-2.7c-0.1-0.2-1-2.9-1.2-4c0,0,0,0,0-0.1
			c0,0.1,1.2-1.5,1.5-1.6c0.4-0.2,1-1.2,1.1-1.2c0.9-0.4,1.4-1,1.5-1.2c0.2-0.3,0.9-0.8,0.9-1.4c0-0.4,0.5-0.3,0.6-0.6
			c0.3-0.8,1.3-1,1.8-1.7C76.9,66.8,76.5,68.8,76.4,69.2"/>
	</g>
</g>
</svg>
