<?xml version="1.0" encoding="utf-8"?>
<!-- Generator: Adobe Illustrator 24.0.1, SVG Export Plug-In . SVG Version: 6.00 Build 0)  -->
<svg version="1.1" id="Layer_1" xmlns="http://www.w3.org/2000/svg" xmlns:xlink="http://www.w3.org/1999/xlink" x="0px" y="0px"
	 viewBox="0 0 170.1 18.4" style="enable-background:new 0 0 170.1 18.4;" xml:space="preserve">
<style type="text/css">
	.st0{fill:#F5F3F2;}
</style>
<g>
	<path class="st0" d="M89.5,0.4h2.7L96,14.2h0l4.1-13.8h2.7l4.1,13.9h0l3.8-13.9h2.6L108.2,18h-2.6l-4.2-14.2h0L97.2,18h-2.5
		L89.5,0.4z"/>
	<path class="st0" d="M122.2,16.9c4.6,0,7.4-3.4,7.4-7.7s-2.8-7.7-7.4-7.7c-4.6,0-7.4,3.4-7.4,7.7S117.6,16.9,122.2,16.9z M122.2,0
		c5.3,0,9.1,3.9,9.1,9.2c0,5.3-3.7,9.2-9.1,9.2c-5.3,0-9.1-3.9-9.1-9.2C113.2,3.9,116.9,0,122.2,0z"/>
	<path class="st0" d="M142.5,14.8c3.3,0,5.4-2.4,5.4-5.6c0-3.3-2.2-5.6-5.4-5.6c-3.3,0-5.4,2.4-5.4,5.6
		C137.1,12.5,139.2,14.8,142.5,14.8z M142.5,0c5.5,0,9.4,3.6,9.4,9.2c0,5.6-4,9.2-9.4,9.2c-5.5,0-9.5-3.6-9.5-9.2
		C133.1,3.6,137.1,0,142.5,0z"/>
	<path class="st0" d="M157.3,15.4h2.6c4.1,0,7.2-1.8,7.2-6.2c0-4.2-3.2-6.1-7.1-6.1h-2.8V15.4z M154.5,0.4h5.6c7.3,0,10,4.8,10,8.8
		c0,3.6-2.6,8.7-9.7,8.7h-5.9V0.4z"/>
	<path class="st0" d="M0,0.4h2.4l3.9,14.4h0l4.2-14.4H13l4.2,14.4h0l4-14.4h2.3L18.5,18h-2.4L11.8,3.3h0L7.5,18H5.1L0,0.4z"/>
	<path class="st0" d="M53.2,16.6c4.4,0,7.2-3.2,7.2-7.4c0-4.2-2.8-7.4-7.2-7.4C48.8,1.8,46,5,46,9.2C46,13.4,48.8,16.6,53.2,16.6z
		 M53.2,0c5.4,0,9.1,3.8,9.1,9.2c0,5.4-3.7,9.2-9.1,9.2c-5.4,0-9.1-3.8-9.1-9.2C44,3.8,47.8,0,53.2,0z"/>
	<path class="st0" d="M32.9,15.3c3.5,0,5.8-2.6,5.8-6.1c0-3.5-2.3-6.1-5.8-6.1c-3.5,0-5.8,2.6-5.8,6.1
		C27.1,12.7,29.4,15.3,32.9,15.3z M32.9,0c5.4,0,9.4,3.6,9.4,9.2c0,5.6-3.9,9.2-9.4,9.2c-5.4,0-9.4-3.6-9.4-9.2
		C23.5,3.6,27.5,0,32.9,0z"/>
	<path class="st0" d="M67.7,15h2.4c3.9,0,6.8-1.6,6.8-5.9c0-3.9-3-5.6-6.6-5.6h-2.6V15z M64.5,0.4h5.7c6.6,0,10.1,3.8,10.1,8.8
		c0,4.5-3.5,8.7-9.7,8.7h-6.1V0.4z"/>
</g>
</svg>
