<?xml version="1.0" encoding="utf-8"?>
<!-- Generator: Adobe Illustrator 24.0.1, SVG Export Plug-In . SVG Version: 6.00 Build 0)  -->
<svg version="1.1" id="Layer_1" xmlns="http://www.w3.org/2000/svg" xmlns:xlink="http://www.w3.org/1999/xlink" x="0px" y="0px"
	 viewBox="0 0 283.46 62.38" style="enable-background:new 0 0 283.46 62.38;" xml:space="preserve">
<style type="text/css">
	.st0{fill:#F5F3F2;}
</style>
<g>
	<path class="st0" d="M106.26,30.76c0,3.98-0.72,7.47-2.18,10.47c-1.45,3-3.54,5.31-6.26,6.92c-2.72,1.62-5.85,2.43-9.4,2.43
		c-3.43,0-6.47-0.79-9.14-2.36c-2.67-1.57-4.73-3.81-6.19-6.7c-1.46-2.89-2.19-6.17-2.19-9.84c0-3.95,0.74-7.42,2.22-10.43
		c1.47-3.01,3.6-5.31,6.36-6.92c2.76-1.61,5.96-2.41,9.6-2.41c3.32,0,6.3,0.79,8.93,2.37c2.63,1.58,4.67,3.81,6.1,6.67
		C105.54,23.82,106.26,27.09,106.26,30.76 M101.67,31.33c0-4.87-1.14-8.67-3.42-11.4c-2.28-2.73-5.45-4.09-9.52-4.09
		c-2.56,0-4.85,0.65-6.87,1.94c-2.02,1.29-3.59,3.13-4.71,5.52c-1.11,2.38-1.67,5.04-1.67,7.98c0,2.99,0.53,5.66,1.61,7.99
		c1.07,2.34,2.59,4.15,4.57,5.42c1.98,1.28,4.23,1.92,6.75,1.92c4.14,0,7.38-1.36,9.73-4.07C100.49,39.83,101.67,36.09,101.67,31.33
		 M125.06,14.15c-0.84-0.47-1.78-0.7-2.84-0.7c-2.99,0-4.48,1.89-4.48,5.66v4.12h6.26v3.62h-6.26v23.08h-4.28V26.84h-4.54v-3.62
		h4.54v-4.33c0-2.72,0.8-4.9,2.4-6.57c1.6-1.67,3.64-2.5,6.1-2.5c1.3,0,2.34,0.16,3.1,0.47L125.06,14.15L125.06,14.15L125.06,14.15z
		"/>
	<path class="st0" d="M139.79,14.15c-0.83-0.47-1.78-0.7-2.84-0.7c-2.99,0-4.48,1.89-4.48,5.66v4.12h6.26v3.62h-6.26v23.08h-4.28
		V26.84h-4.54v-3.62h4.54v-4.33c0-2.72,0.8-4.9,2.4-6.57c1.6-1.67,3.63-2.5,6.1-2.5c1.31,0,2.34,0.16,3.1,0.47L139.79,14.15
		L139.79,14.15z M147.68,13.65c0,0.8-0.28,1.47-0.83,1.99c-0.56,0.53-1.22,0.79-1.98,0.79c-0.78,0-1.44-0.25-1.98-0.77
		c-0.54-0.51-0.81-1.19-0.81-2.02c0-0.75,0.26-1.4,0.79-1.94c0.53-0.55,1.2-0.82,1.99-0.82c0.8,0,1.47,0.27,2.01,0.81
		C147.41,12.23,147.68,12.88,147.68,13.65 M146.95,49.92h-4.28v-26.7h4.28V49.92z M171.35,48.7c-2.07,1.25-4.51,1.88-7.33,1.88
		c-2.43,0-4.62-0.56-6.56-1.68c-1.94-1.12-3.44-2.71-4.52-4.76c-1.08-2.05-1.62-4.35-1.62-6.91c0-4.41,1.26-7.96,3.79-10.64
		c2.53-2.67,5.9-4.02,10.1-4.02c2.33,0,4.39,0.45,6.18,1.36v4.38c-2-1.39-4.12-2.08-6.36-2.08c-2.76,0-5.01,0.99-6.74,2.96
		c-1.73,1.97-2.6,4.52-2.6,7.65c0,3.11,0.82,5.57,2.47,7.38c1.64,1.81,3.84,2.71,6.61,2.71c2.33,0,4.52-0.76,6.57-2.3L171.35,48.7
		L171.35,48.7z M197.63,37.64h-18.85c0.07,3.01,0.87,5.31,2.39,6.9c1.52,1.59,3.63,2.38,6.32,2.38c3.03,0,5.78-0.97,8.27-2.92v3.99
		c-2.33,1.72-5.42,2.58-9.28,2.58c-3.81,0-6.78-1.23-8.92-3.69c-2.14-2.46-3.21-5.86-3.21-10.21c0-2.64,0.54-5.05,1.61-7.23
		c1.07-2.18,2.54-3.87,4.42-5.07c1.88-1.2,3.96-1.8,6.26-1.8c3.46,0,6.16,1.13,8.1,3.38c1.94,2.25,2.91,5.4,2.91,9.45L197.63,37.64
		L197.63,37.64z M193.25,34.02c-0.04-2.47-0.63-4.38-1.79-5.75c-1.16-1.36-2.78-2.05-4.89-2.05c-1.98,0-3.68,0.71-5.08,2.14
		c-1.41,1.42-2.29,3.31-2.66,5.66L193.25,34.02L193.25,34.02z M230.17,39.33c0,3.37-1.21,6.09-3.62,8.15
		c-2.42,2.06-5.59,3.09-9.52,3.09c-3.56,0-6.4-0.68-8.5-2.03v-4.59c2.52,1.98,5.41,2.97,8.66,2.97c2.63,0,4.72-0.65,6.27-1.94
		c1.56-1.29,2.34-3.05,2.34-5.25c0-4.88-3.48-7.33-10.43-7.33h-3.1v-3.63h2.95c6.15,0,9.23-2.29,9.23-6.88
		c0-4.24-2.35-6.36-7.04-6.36c-2.64,0-5.12,0.89-7.43,2.66v-4.15c2.38-1.42,5.21-2.14,8.5-2.14c3.1,0,5.59,0.82,7.5,2.47
		c1.9,1.64,2.85,3.8,2.85,6.45c0,4.92-2.49,8.08-7.46,9.49v0.1c2.64,0.3,4.78,1.25,6.39,2.87C229.36,34.9,230.17,36.92,230.17,39.33
		 M258.3,38.06c0,2.37-0.51,4.51-1.52,6.44c-1.02,1.93-2.42,3.43-4.21,4.48c-1.79,1.06-3.8,1.59-6.02,1.59
		c-3.74,0-6.67-1.5-8.8-4.51c-2.13-3.01-3.19-7.21-3.19-12.6c0-4.27,0.63-8.05,1.89-11.33c1.26-3.28,3.04-5.8,5.36-7.57
		c2.31-1.78,4.98-2.66,8.01-2.66c2.57,0,4.64,0.36,6.21,1.07v4.04c-1.93-0.99-3.97-1.49-6.1-1.49c-3.3,0-5.95,1.48-7.94,4.45
		c-1.99,2.96-2.99,6.91-2.99,11.85h0.1c1.72-3.53,4.56-5.29,8.53-5.29c3.23,0,5.83,1.06,7.77,3.17
		C257.33,31.81,258.3,34.6,258.3,38.06 M253.92,38.61c0-2.61-0.64-4.67-1.92-6.18c-1.28-1.51-3.06-2.26-5.36-2.26
		c-2.08,0-3.84,0.73-5.27,2.2c-1.43,1.47-2.14,3.25-2.14,5.33c0,2.63,0.71,4.82,2.12,6.58c1.42,1.77,3.2,2.65,5.36,2.65
		c2.14,0,3.87-0.77,5.2-2.31C253.26,43.08,253.92,41.07,253.92,38.61 M283.46,38.5c0,3.64-1.2,6.55-3.61,8.76
		c-2.41,2.2-5.62,3.31-9.64,3.31c-3.48,0-6.06-0.52-7.74-1.56v-4.54c2.54,1.64,5.13,2.45,7.79,2.45c2.64,0,4.77-0.74,6.39-2.22
		c1.62-1.48,2.43-3.46,2.43-5.94c0-2.44-0.82-4.34-2.45-5.73c-1.64-1.38-4.01-2.07-7.12-2.07c-2.49,0-4.6,0.1-6.34,0.31l1.28-18.75
		h17.29v3.86h-13.59l-0.76,10.98l3.44-0.13c3.89,0,6.97,0.99,9.23,2.95C282.33,32.15,283.46,34.92,283.46,38.5 M52.03,57.18
		L52.03,57.18L52.03,5.36L33.46,0L0.08,12.53L0,12.55l0,37.47l11.39-4.46V15.07L33.46,9.8l0,44.82l-33.43-4.6l33.43,12.35v0.01
		l18.57-5.14L52.03,57.18L52.03,57.18z"/>
</g>
</svg>
