<?xml version="1.0" encoding="utf-8"?>
<!-- Generator: Adobe Illustrator 24.0.1, SVG Export Plug-In . SVG Version: 6.00 Build 0)  -->
<svg version="1.1" id="Layer_1" xmlns="http://www.w3.org/2000/svg" xmlns:xlink="http://www.w3.org/1999/xlink" x="0px" y="0px"
	 viewBox="0 0 283.46 56.79" style="enable-background:new 0 0 283.46 56.79;" xml:space="preserve">
<style type="text/css">
	.st0{fill:#F5F3F2;}
</style>
<g>
	<g>
		<g>
			<path class="st0" d="M106.89,43.33c0.17,1.95,1.74,4.44,4.44,4.44h1.58c0.61,0,1.12-0.5,1.12-1.12V11.83h-0.01
				c-0.03-0.59-0.52-1.06-1.11-1.06H108c-0.59,0-1.08,0.47-1.11,1.06h-0.01v2.83c-3.01-3.71-7.75-5.24-12.51-5.24
				c-10.81,0-19.58,8.76-19.58,19.58c0,10.81,8.76,19.58,19.58,19.58v0C99.13,48.57,104.32,46.73,106.89,43.33L106.89,43.33z
				 M94.4,41.72c-6.88,0-12.45-5.7-12.45-12.73c0-7.03,5.57-12.73,12.45-12.73c6.88,0,12.45,5.7,12.45,12.73
				C106.85,36.02,101.27,41.72,94.4,41.72z"/>
			<path class="st0" d="M186.89,43.33c0.17,1.95,1.74,4.44,4.44,4.44h1.58c0.61,0,1.12-0.5,1.12-1.12V11.83h-0.01
				c-0.03-0.59-0.52-1.06-1.11-1.06H188c-0.59,0-1.08,0.47-1.11,1.06h-0.01v2.83c-3.01-3.71-7.75-5.24-12.51-5.24
				c-10.81,0-19.58,8.76-19.58,19.58c0,10.81,8.76,19.58,19.58,19.58v0C179.13,48.57,184.32,46.73,186.89,43.33L186.89,43.33z
				 M174.4,41.72c-6.88,0-12.45-5.7-12.45-12.73c0-7.03,5.57-12.73,12.45-12.73c6.88,0,12.45,5.7,12.45,12.73
				C186.85,36.02,181.27,41.72,174.4,41.72z"/>
			<path class="st0" d="M276.32,43.33c0.17,1.95,1.73,4.44,4.44,4.44h1.58c0.61,0,1.12-0.5,1.12-1.12V11.83h-0.01
				c-0.03-0.59-0.52-1.06-1.11-1.06h-4.91c-0.59,0-1.08,0.47-1.11,1.06h-0.01v2.83c-3.01-3.71-7.75-5.24-12.51-5.24
				c-10.81,0-19.58,8.76-19.58,19.58c0,10.81,8.76,19.58,19.58,19.58v0C268.57,48.57,273.75,46.73,276.32,43.33L276.32,43.33z
				 M263.83,41.72c-6.88,0-12.45-5.7-12.45-12.73c0-7.03,5.57-12.73,12.45-12.73c6.88,0,12.45,5.7,12.45,12.73
				C276.28,36.02,270.71,41.72,263.83,41.72z"/>
			<path class="st0" d="M238.03,44.53l0-18.02h0c0-10.16-6.41-17.01-16.63-17.01c-4.88,0-9.34,2.8-10.29,5.24
				c-0.31-1.89-1.31-3.89-4.43-3.89h-1.59c-0.61,0-1.12,0.5-1.12,1.12v31.45c0,0,0,0,0,0v3.32v0.06h0.01
				c0.03,0.59,0.52,1.06,1.11,1.06h3.33H210c0.08,0,0.15-0.01,0.22-0.02c0.03-0.01,0.06-0.02,0.09-0.03
				c0.04-0.01,0.07-0.02,0.11-0.03c0.04-0.02,0.08-0.04,0.12-0.06c0.02-0.01,0.04-0.02,0.06-0.03c0.05-0.03,0.09-0.07,0.14-0.11
				c0.01-0.01,0.02-0.01,0.02-0.02c0.05-0.05,0.09-0.1,0.13-0.15c0,0,0,0,0,0c0.12-0.17,0.2-0.37,0.21-0.59h0.01v-0.06v-2.21v-0.58
				V26.23c0-5.46,4.42-9.88,9.88-9.88c5.46,0,9.88,4.42,9.88,9.88l0,17.2l0-0.01c0,0.02,0,0.03,0,0.05v3.27v0.06h0.01
				c0.03,0.59,0.52,1.06,1.11,1.06h3.32h1.59l0,0c0.08,0,0.15-0.01,0.22-0.02c0.03-0.01,0.06-0.02,0.08-0.03
				c0.04-0.01,0.08-0.02,0.12-0.04c0.04-0.02,0.08-0.04,0.11-0.06c0.02-0.01,0.05-0.02,0.07-0.04c0.05-0.03,0.09-0.07,0.13-0.1
				c0.01-0.01,0.02-0.02,0.03-0.03c0.05-0.04,0.09-0.09,0.13-0.14c0,0,0.01-0.01,0.01-0.01c0.12-0.17,0.2-0.37,0.21-0.59
				c0,0,0,0,0,0h0.01v-0.06L238.03,44.53L238.03,44.53z"/>
			<path class="st0" d="M125.76,38.34c3.28,2.27,6.86,3.37,10.29,3.37c3.28,0,6.66-1.7,6.66-4.65c0-3.95-7.38-4.56-12.02-6.14
				c-4.64-1.58-8.63-4.83-8.63-10.11c0-8.07,7.19-11.41,13.9-11.41c4.25,0,8.64,1.4,11.49,3.41c0.98,0.74,0.38,1.6,0.38,1.6
				l-2.72,3.88c-0.31,0.44-0.84,0.81-1.61,0.34c-0.77-0.47-3.45-2.37-7.55-2.37c-4.1,0-6.56,1.89-6.56,4.24
				c0,2.81,3.21,3.7,6.96,4.65c6.54,1.76,13.68,3.88,13.68,11.91c0,7.11-6.65,11.51-14,11.51c-5.57,0-10.32-1.59-14.29-4.51
				c-0.83-0.83-0.25-1.6-0.25-1.6l2.7-3.86C124.77,37.88,125.46,38.14,125.76,38.34z"/>
		</g>
	</g>
	<path class="st0" d="M44.08,13.36c0,7.38-5.98,13.36-13.36,13.36c-7.38,0-13.36-5.98-13.36-13.36C17.36,5.98,23.34,0,30.72,0
		C38.1,0,44.08,5.98,44.08,13.36z M13.36,30.07C5.98,30.07,0,36.05,0,43.43c0,7.38,5.98,13.36,13.36,13.36
		c7.38,0,13.36-5.98,13.36-13.36C26.72,36.05,20.74,30.07,13.36,30.07z M48.08,30.07c-7.38,0-13.36,5.98-13.36,13.36
		c0,7.38,5.98,13.36,13.36,13.36c7.38,0,13.36-5.98,13.36-13.36C61.44,36.05,55.46,30.07,48.08,30.07z"/>
</g>
</svg>
