<?xml version="1.0" encoding="utf-8"?>
<!-- Generator: Adobe Illustrator 24.0.1, SVG Export Plug-In . SVG Version: 6.00 Build 0)  -->
<svg version="1.1" id="Lager_1" xmlns="http://www.w3.org/2000/svg" xmlns:xlink="http://www.w3.org/1999/xlink" x="0px" y="0px"
	 viewBox="0 0 248.1 85.1" style="enable-background:new 0 0 248.1 85.1;" xml:space="preserve">
<style type="text/css">
	.st0{fill:#F5F3F2;}
</style>
<g>
	<path class="st0" d="M78.2,35.3C78.1,10.6,71.2,0.1,39.1,0S0,10.5,0,35.3c0,1.6,0,3.2,0.1,4.7v45.1h17.1V68.4
		c5.5,1.9,12.6,2.8,21.8,2.8C71.2,71.1,78.3,60.8,78.2,35.3z M39.1,55.4c-17.9,0-21.8-6.1-21.8-19.9s3.9-19.8,21.8-19.7
		c17.9,0.1,21.7,5.9,21.8,19.7C60.9,49.7,57,55.4,39.1,55.4z"/>
	<path class="st0" d="M163.5,35.4c0.1,25.5-6.9,35.8-39.1,35.8c-32.1,0-39-11-39-35.8s7-35.5,39.1-35.3
		C156.5,0.2,163.4,10.7,163.5,35.4z M124.4,15.8c-17.8-0.1-21.8,5.9-21.8,19.7s3.9,19.9,21.8,19.9s21.9-5.7,21.8-19.9
		C146.1,21.7,142.3,15.9,124.4,15.8z"/>
	<path class="st0" d="M248.1,44.7c-1.8,18.7-10.8,26.5-38.8,26.5c-32.1,0-39-11-39-35.8s7-35.5,39.1-35.3c28.3,0.1,37,8.2,38.7,27
		h-17.7c-1.8-7.8-7.3-11.2-21-11.3c-17.8-0.1-21.8,5.9-21.8,19.7s3.9,19.9,21.8,19.9c13.4,0,19-3.2,20.9-10.7H248.1z"/>
</g>
</svg>
