<?xml version="1.0" encoding="utf-8"?>
<!-- Generator: Adobe Illustrator 24.0.1, SVG Export Plug-In . SVG Version: 6.00 Build 0)  -->
<svg version="1.1" id="Layer_1" xmlns="http://www.w3.org/2000/svg" xmlns:xlink="http://www.w3.org/1999/xlink" x="0px" y="0px"
	 viewBox="0 0 283.46 80.41" style="enable-background:new 0 0 283.46 80.41;" xml:space="preserve">
<style type="text/css">
	.st0{fill-rule:evenodd;clip-rule:evenodd;fill:#F5F3F2;}
</style>
<title>trello-logo-blue-flat</title>
<desc>Created with Sketch.</desc>
<g>
	<path class="st0" d="M110.81,22.15c0-0.22-0.11-0.54-0.32-0.86c4.3-0.97,9.46-1.61,14.19-1.61c0.54,0,2.69,0.75,3.01,1.08
		c0.75,0.75,1.51,1.51,2.8,1.51c1.08,0,2.9-0.75,3.55-1.18c1.51-1.08,2.26-2.26,2.26-4.19c0-1.83-6.77-6.34-11.5-6.34
		c-5.81,0-11.07,0.75-16.02,1.72c-2.15,0.43-9.89,1.61-15.48,1.61c-5.38,0-5.05-0.75-7.31-0.75c-1.29,0-1.94,0.65-2.47,1.18
		c-0.54,0.54-0.86,2.69-0.86,4.62c0,0.97,0,1.72,0.54,2.37c1.61,1.94,4.73,2.37,7.85,2.37c2.69,0,4.19-0.22,4.52-0.22
		c0.32,0,0.54,0.11,0.54,0.43c0,0.22-0.11,0.54-0.86,2.15C88.67,40.1,84.15,54.4,80.18,70.2c-0.11,0.43-0.43,2.04-0.43,3.66
		c0,1.51,0.43,3.12,1.94,3.98c2.9,1.72,5.27,2.47,6.88,2.47c2.37,0,3.55-1.51,3.55-3.98c0-2.15,0.11-4.41,0.43-6.13
		c3.01-15.8,7.53-28.17,14.51-41.07C110.38,23.01,110.81,22.68,110.81,22.15z"/>
	<path class="st0" d="M275.08,34.19c-3.98,0-6.34,0.32-7.96,0.32c-2.47,0-3.12-0.75-4.73-4.95c0.02,0.06,0.04,0.11,0.06,0.16
		c-0.04-0.1-0.06-0.16-0.06-0.16c-0.32-0.86-0.65-1.29-1.61-2.15c-2.26-1.94-5.05-2.58-7.31-2.58c-5.38,0-10,5.48-13.22,10.11
		c-0.75,1.08-1.83,1.94-2.58,3.12c-4.43,6.64-8.67,14.13-9.19,22.21c-4.33,1.77-7.75,7.87-12.95,11.33
		c-0.32,0.22-0.65,0.32-0.86,0.32c-0.43,0-0.97-0.43-0.97-2.37c0-6.67,2.15-9.89,3.98-14.62c6.34-16.45,17.2-30.53,26.88-45.9
		c0.75-1.18,1.18-2.47,1.18-3.87c0-1.18-0.43-2.15-0.97-3.33C244.33,0.86,242.4,0,240.25,0c-1.18,0-2.26,0.11-3.66,0.11
		c-5.05,0-6.13,7.42-7.31,9.35c-8.06,13.65-17.31,30.53-22.04,42.46c-1.04,2.68-2.16,5.35-3.01,8.1
		c-4.67,1.35-8.18,7.93-13.65,11.58c-0.32,0.22-0.65,0.32-0.86,0.32c-0.43,0-0.97-0.43-0.97-2.37c0-6.67,2.15-9.89,3.98-14.62
		c6.34-16.45,17.2-30.53,26.88-45.9c0.75-1.18,1.18-2.47,1.18-3.87c0-1.18-0.43-2.15-0.97-3.33C219.39,0.86,217.46,0,215.31,0
		c-1.18,0-2.26,0.11-3.66,0.11c-5.05,0-6.13,7.42-7.31,9.35c-8.06,13.65-17.31,30.53-22.04,42.46c-0.38,0.97-0.76,1.94-1.14,2.91
		c-0.12,0.06-0.24,0.13-0.36,0.2c-5.48,3.23-10.11,8.92-16.77,12.79c-1.29,0.75-5.27,3.55-8.49,3.55c-0.75,0-1.4-0.21-2.04-0.54
		c-0.97-0.43-1.94-2.47-1.94-3.12c0-0.54,0.11-0.65,1.18-1.29c9.46-5.7,17.2-13.87,23.87-22.04c2.47-3.01,5.7-8.92,5.7-13.22
		c0-2.8-0.97-6.02-4.3-7.2c-2.37-0.86-5.05-1.29-7.2-1.29c-5.7,0-9.89,2.58-12.26,5.05c-2.41,2.57-4.74,5.21-6.9,7.94
		c-2.26-1.95-5.45-2.78-8.47-2.78c-3.55,0-10.21,4.41-13.65,6.99c-0.54,0.43-0.86,0.65-1.08,0.65c-0.11,0-0.21-0.11-0.21-0.32
		c0-0.11,0.21-1.08,0.21-2.8c0-1.51-0.32-3.44-1.72-5.81c-0.32-0.54-2.26-1.72-4.62-1.72c-2.9,0-5.59,1.4-5.59,2.9
		c0,1.08,0.97,1.51,0.97,2.47c0,0.54-0.43,3.01-1.08,5.38c-1.83,6.88-4.09,13.65-6.45,20.43c-1.29,3.76-5.59,7.1-5.59,11.18
		c0,1.29,0.86,3.01,2.04,4.3c1.94,2.15,3.12,2.9,4.84,2.9c0.75,0,1.61-0.22,2.37-0.86c1.61-1.4,2.47-2.8,2.9-4.73
		c2.8-12.69,10.86-21.29,19.78-26.98c3.01-1.94,7.1-3.98,7.63-3.98c0.55,0,1.41,0.25,2.28,0.5c-2.49,4.07-4.52,8.36-5.83,12.94
		c-0.43,1.51-0.65,2.9-0.65,4.41c0,2.47,0.54,5.05,1.4,7.53c1.18,3.44,3.12,6.45,5.81,7.85c4.95,2.58,8.49,3.98,11.72,3.98
		c1.83,0,3.23-0.32,4.73-1.18c7.07-4,11.4-7.03,14.53-9.72c0.09,2.73,0.62,4.24,2.57,6.28c1.94,2.04,4.95,3.87,8.92,4.73
		c0.65,0.11,1.29,0.22,1.94,0.22c4.55,0,8.93-3.7,12.31-7.37c0.39,0.8,0.96,1.56,1.78,2.42c1.94,2.04,4.95,3.87,8.92,4.73
		c0.65,0.11,1.29,0.22,1.94,0.22c5.33,0,10.43-5.08,13.95-9.23c1.17,2.43,4.46,4.83,8.41,6.76c1.08,0.54,2.37,0.86,3.55,0.86
		c4.62,0,7.96-3.76,10.54-6.56c6.67-7.31,10.32-16.34,13.12-27.74c0.21-0.86,0.54-1.18,0.97-1.18c1.08,0,2.47,0,3.98-0.22
		c2.9-0.43,5.16-1.4,7.85-1.83c1.61-0.32,1.4-0.86,2.9-1.4c1.08-0.43,1.94-0.86,1.94-1.94C283.46,36.12,280.13,34.19,275.08,34.19z
		 M153.71,51.17c3.33-6.99,7.42-11.61,11.93-16.13c2.47-2.47,3.98-3.33,4.52-3.33c0.32,0,0.54,0.11,0.54,0.65
		c0,0.97-0.32,1.61-1.61,3.66c-1.29,2.04-0.75,2.04-2.37,4.19c-3.12,4.19-6.99,8.39-12.04,13.01c-1.4,1.29-1.61,1.29-1.83,1.29
		c-0.11,0-0.32-0.11-0.32-0.32C152.53,53.86,152.63,53.43,153.71,51.17z M243.26,67.3c-1.29,1.94-2.04,2.26-2.69,2.26
		c-0.54,0-1.4-1.4-1.72-2.26c-0.43-1.18-0.54-2.58-0.54-3.12c0-8.39,7.96-20.86,13.22-27.74c0.86-1.18,1.51-1.29,1.83-1.29
		c0.11,0,0.22,0.11,0.32,0.32c0.11,0.32,0.32,0.65,0.86,1.08c0.43,0.32,0.43,1.83,0.43,3.01C254.98,49.99,249.06,58.59,243.26,67.3z
		 M262.53,29.91c0.04,0.1,0.08,0.22,0.13,0.34C262.62,30.15,262.57,30.03,262.53,29.91z M262.9,30.88c0.05,0.12,0.09,0.22,0.12,0.3
		C262.98,31.1,262.94,30.99,262.9,30.88z M263.03,31.23c0.04,0.1,0.06,0.15,0.07,0.18C263.09,31.38,263.07,31.31,263.03,31.23z"/>
	<path class="st0" d="M59.38,11.88H8.48C3.8,11.88,0,15.68,0,20.36v50.9c0,4.69,3.8,8.48,8.48,8.48h50.9c4.69,0,8.48-3.8,8.48-8.48
		v-50.9C67.87,15.68,64.07,11.88,59.38,11.88z M29.52,63.29c0,2.25-1.82,4.07-4.07,4.07H12.89c-2.25,0-4.07-1.82-4.07-4.07V24.77
		c0-2.25,1.82-4.07,4.07-4.07h12.56c2.25,0,4.07,1.82,4.07,4.07V63.29z M59.05,46.32c0,2.25-1.82,4.07-4.07,4.07H42.42
		c-2.25,0-4.07-1.82-4.07-4.07V24.77c0-2.25,1.82-4.07,4.07-4.07h12.56c2.25,0,4.07,1.82,4.07,4.07V46.32z"/>
</g>
</svg>
