<?xml version="1.0" encoding="utf-8"?>
<!-- Generator: Adobe Illustrator 24.0.1, SVG Export Plug-In . SVG Version: 6.00 Build 0)  -->
<svg version="1.1" id="Layer_1" xmlns="http://www.w3.org/2000/svg" xmlns:xlink="http://www.w3.org/1999/xlink" x="0px" y="0px"
	 viewBox="0 0 283.465 89.85" enable-background="new 0 0 283.465 89.85" xml:space="preserve">
<g>
	<path fill="#F5F3F2" d="M79.416,0v55.07h10.434V36.52h13.913l6.376-5.797V5.797L103.763,0H79.416z M100.285,26.666H89.851V10.434
		h10.435V26.666z"/>
	<path fill="#F5F3F2" d="M140.283,0h-14.492l-11.014,55.07h10.434l2.319-12.173h11.014l2.319,12.173h10.434L140.283,0z
		 M129.849,33.042l3.478-16.811l3.478,16.811H129.849z"/>
	<path fill="#F5F3F2" d="M110.14,79.996c0-2.319-1.739-4.058-4.637-4.058h-4.637v13.333h1.739v-5.217h2.319l3.478,5.217h1.739
		l-3.478-5.217C108.98,83.474,110.14,82.315,110.14,79.996z M105.502,82.315h-2.898v-5.217h2.898c1.739,0,2.898,1.159,2.898,2.898
		C108.401,81.155,107.241,82.315,105.502,82.315z"/>
	<polygon fill="#F5F3F2" points="132.747,75.939 126.371,83.474 126.371,75.939 124.632,75.939 124.632,89.271 126.371,89.271 
		126.371,85.793 128.11,83.474 132.747,89.271 132.747,89.851 135.066,89.851 129.849,82.315 135.066,75.939 	"/>
	<path fill="#F5F3F2" d="M79.416,75.359c-4.058,0-6.956,2.898-6.956,6.956c0,4.058,2.898,6.956,6.956,6.956
		c4.058,0,6.956-2.898,6.956-6.956C86.373,78.257,83.474,75.359,79.416,75.359z M79.416,87.532c-2.898,0-5.217-2.319-5.217-5.217
		c0-2.898,2.319-5.217,5.217-5.217c2.898,0,5.217,2.319,5.217,5.217C84.634,85.213,82.315,87.532,79.416,87.532z"/>
	<path fill="#F5F3F2" d="M0,0v55.07h24.927l6.376-5.797V5.797L24.927,0H0z M21.448,45.215H9.855V10.434h11.594V45.215z"/>
	<polygon fill="#F5F3F2" points="187.817,45.215 172.745,45.215 172.745,0 162.311,0 162.311,55.65 187.817,55.65 	"/>
	<polygon fill="#F5F3F2" points="42.317,55.07 68.982,55.07 68.982,45.215 52.751,45.215 52.751,33.042 66.663,33.042 
		66.663,22.608 52.751,22.608 52.751,10.434 68.982,10.434 68.982,0 42.317,0 	"/>
	<polygon fill="#F5F3F2" points="55.07,86.952 52.171,75.939 50.432,75.939 47.534,86.952 44.056,75.939 42.317,75.939 
		46.375,89.271 48.114,89.271 51.592,78.257 54.49,89.271 56.229,89.271 60.287,75.939 58.548,75.939 	"/>
	<polygon fill="#F5F3F2" points="181.441,84.054 186.658,84.054 186.658,82.315 181.441,82.315 181.441,77.678 187.817,77.678 
		187.817,75.939 179.701,75.939 179.701,89.271 188.397,89.271 188.397,88.691 181.441,88.691 	"/>
	<path fill="#F5F3F2" d="M206.946,75.939l-5.217,13.333h1.739l1.159-3.478h5.797l1.159,3.478h2.319l-5.217-13.333H206.946z
		 M204.628,84.634l2.319-6.956l2.898,6.956H204.628z"/>
	<polygon fill="#F5F3F2" points="217.381,19.129 208.685,0 198.251,0 198.251,55.07 208.685,55.07 208.685,23.767 217.381,42.897 
		226.076,23.767 226.076,55.07 236.51,55.07 236.51,0 226.076,0 	"/>
	<path fill="#F5F3F2" d="M272.45,0h-14.492l-11.014,55.07h10.434l2.319-12.173h11.014l2.319,12.173h10.434L272.45,0z
		 M262.016,33.042l3.478-16.811l2.898,16.811H262.016z"/>
	<path fill="#F5F3F2" d="M235.931,79.996c0-2.319-1.739-4.058-4.637-4.058h-4.637v13.333h1.739v-5.217h2.898l3.478,5.217h1.159
		l-3.478-5.217C234.771,83.474,235.931,82.315,235.931,79.996z M231.293,82.315h-2.898v-5.217h2.898
		c1.739,0,2.898,1.159,2.898,2.898C234.192,81.155,233.612,82.315,231.293,82.315z"/>
	<polygon fill="#F5F3F2" points="159.992,86.952 157.094,75.939 155.355,75.939 152.457,86.952 148.978,75.939 147.239,75.939 
		151.297,89.271 153.036,89.271 156.514,78.257 159.413,89.271 161.152,89.271 165.209,75.939 163.47,75.939 	"/>
</g>
</svg>
