<?xml version="1.0" encoding="utf-8"?>
<!-- Generator: Adobe Illustrator 24.0.1, SVG Export Plug-In . SVG Version: 6.00 Build 0)  -->
<svg version="1.1" id="Layer_1" xmlns="http://www.w3.org/2000/svg" xmlns:xlink="http://www.w3.org/1999/xlink" x="0px" y="0px"
	 viewBox="0 0 136.06 75.27" style="enable-background:new 0 0 136.06 75.27;" xml:space="preserve">
<style type="text/css">
	.st0{fill:#F5F3F2;}
</style>
<path class="st0" d="M3.3,75.23c-3.17,0-3.22-2.36-3.22-3.28v-4.31c0-0.26-0.02-0.61,0.54-0.61h1.64c0.53,0,0.5,0.37,0.5,0.61v4.31
	c0,0.3,0.06,1.13,1.21,1.13h2.75c1.13,0,1.2-0.82,1.2-1.13v-4.31c0-0.24-0.03-0.61,0.5-0.61h1.65c0.6,0,0.54,0.37,0.54,0.61v4.31
	c0,0.91-0.06,3.28-3.23,3.28H3.3z M20.01,75.23h3.06v-7.59c0-0.24,0.03-0.61-0.5-0.61H20.9c-0.55,0-0.52,0.37-0.52,0.61v5.19
	c-0.75-0.94-1.87-2.2-2.48-3.04c-0.79-1.1-1.98-2.76-2.82-2.76H12.1c-0.51,0-0.49,0.37-0.49,0.61v7.01c0,0.23-0.07,0.58,0.49,0.58
	h1.53c0.55,0,0.5-0.35,0.5-0.58v-5.24c1.63,1.97,3.22,3.82,4.34,5.3C19.07,75.27,19.35,75.23,20.01,75.23 M26.65,73.07v-3.84h4.21
	c0.89,0,1.44,0.07,1.44,2.01c0,0.58,0.1,1.84-1.24,1.84H26.65z M26.67,75.23v-1.72l0.86,1.72h3.97c3.77,0,3.41-1.94,3.41-5.12
	c0-3.11-3.02-3.06-3.48-3.06h-7.38v8.18H26.67z M35.93,68.78v4.51c0,1.8,1.15,1.98,1.74,1.98h7.07c0.56,0,0.51-0.37,0.51-1.03
	c0-0.62,0.05-1-0.51-1h-5.58c-0.13,0-0.59,0.1-0.59-0.41v-2.15l0.76,1.45h4.92c0.42,0,0.43-0.18,0.32-0.38
	c-0.08-0.22-0.76-1.5-0.76-1.5h-4.75c-0.54,0-0.44-0.19-0.44-0.69c0-0.5,0.49-0.42,0.63-0.42h5.37c0.59,0,0.5-0.36,0.5-1
	c0-0.68,0.08-1.05-0.5-1.05h-6.8C36.19,67.1,35.93,68.31,35.93,68.78 M54.09,70.19c0,0.42,0,0.83-1.65,0.83h-3.41v-1.47
	c0-0.16-0.02-0.35,0.53-0.35h3.31C54.03,69.2,54.09,69.34,54.09,70.19 M46.26,67.75v7.21c0,0.29,0.34,0.27,0.22,0.27h2.19
	c0.11,0,0.41-0.05,0.41-0.34v-3.4c0,0,0.6,1.17,0.91,1.7h3.21c0.22,0,0.8-0.05,0.8,0.96c0,0.37-0.11,1.08,0.34,1.08h2.18
	c0.13,0,0.3,0.01,0.3-0.43c0-0.87,0.18-2.55-1.16-2.78c0.8-0.53,1.17-0.62,1.17-2.35c0-2.64-1.45-2.62-2.45-2.62h-7.44
	C46.63,67.05,46.26,67.24,46.26,67.75 M68.9,69.35c0.11,0.22,1.22,2.28,1.31,2.47c0.05,0.09,0.01,0.12-0.13,0.12h-2.56
	c-0.12,0-0.18-0.03-0.12-0.12c0.09-0.18,1.25-2.25,1.37-2.46C68.79,69.3,68.87,69.3,68.9,69.35 M67.13,67.1c0,0-3.93,6.94-4.51,8
	v0.17h2.82c0.39-0.64,1.52-2.74,1.73-3.08c0.17,0.36,0.74,1.65,0.74,1.65h3.42l0.81,1.43h2.81V75c-0.57-1-3.27-5.79-3.65-6.57
	c-0.58-1.1-1.11-1.34-1.65-1.34H67.13z M83.56,70.19c0,0.42,0,0.83-1.65,0.83h-3.41v-1.47c0-0.16-0.02-0.35,0.53-0.35h3.31
	C83.49,69.2,83.56,69.34,83.56,70.19 M75.72,67.75v7.21c0,0.29,0.34,0.27,0.22,0.27h2.19c0.11,0,0.41-0.05,0.41-0.34v-3.4
	c0,0,0.6,1.17,0.91,1.7h3.21c0.22,0,0.8-0.05,0.8,0.96c0,0.37-0.11,1.08,0.34,1.08h2.18c0.13,0,0.3,0.01,0.3-0.43
	c0-0.87,0.18-2.55-1.16-2.78c0.8-0.53,1.17-0.62,1.17-2.35c0-2.64-1.45-2.62-2.45-2.62h-7.44C76.09,67.05,75.72,67.24,75.72,67.75
	 M95.12,75.23c0.58-1.02,2.1-3.83,3.16-5.68v5.1c0,0.23-0.04,0.58,0.51,0.58h1.52c0.55,0,0.47-0.35,0.47-0.58v-7.01
	c0-0.24,0.06-0.59-0.47-0.59h-2.59c-0.43,0-0.98-0.09-1.58,1.12c-0.46,0.98-1.47,3-2.17,4.07c-0.68-1.08-1.66-3.1-2.13-4.07
	c-0.62-1.21-1.17-1.12-1.56-1.12h-2.6c-0.55,0-0.52,0.35-0.52,0.59v7.01c0,0.23-0.04,0.58,0.52,0.58h1.5c0.53,0,0.5-0.35,0.5-0.58
	v-5.1c1.04,1.84,2.58,4.66,3.14,5.68H95.12z M105.83,73.14c-1.25,0-1.17-1.27-1.17-2.12c0-0.76-0.19-1.95,1.43-1.95h2.76
	c1.63,0,1.45,1.19,1.45,1.95c0,0.85,0.04,2.12-1.21,2.12H105.83z M110.67,75.25c2.51,0,2.38-2.59,2.38-4.28
	c0-1.53,0.2-3.97-2.9-3.97h-5.48c-3.09,0.02-2.91,2.43-2.91,3.97c0,1.68-0.11,4.28,2.36,4.28H110.67z M121.25,75.23
	c3.18,0,3.23-2.36,3.23-3.28v-4.31c0-0.24,0.06-0.61-0.54-0.61h-1.65c-0.53,0-0.5,0.37-0.5,0.61v4.31c0,0.3-0.07,1.13-1.2,1.13
	h-2.75c-1.15,0-1.21-0.82-1.21-1.13v-4.31c0-0.24,0.03-0.61-0.5-0.61h-1.64c-0.57,0-0.54,0.35-0.54,0.61v4.31
	c0,0.91,0.05,3.28,3.22,3.28H121.25z M133.39,70.19c0,0.42,0,0.83-1.65,0.83h-3.41v-1.47c0-0.16-0.02-0.35,0.53-0.35h3.31
	C133.32,69.2,133.39,69.34,133.39,70.19 M125.56,67.75v7.21c0,0.29,0.34,0.27,0.22,0.27h2.19c0.11,0,0.41-0.05,0.41-0.34v-3.4
	c0,0,0.6,1.17,0.91,1.7h3.21c0.22,0,0.8-0.05,0.8,0.96c0,0.37-0.11,1.08,0.34,1.08h2.18c0.13,0,0.3,0.01,0.3-0.43
	c0-0.87,0.18-2.55-1.16-2.78c0.8-0.53,1.17-0.62,1.17-2.35c0-2.64-1.45-2.62-2.45-2.62h-7.44
	C125.93,67.05,125.56,67.24,125.56,67.75 M118.58,48.95c0,0-2.91,2.2-12.33,5.59c-8.27,2.98-14.58,3.67-14.58,3.67l0.03-17.68
	c0-2.64-1.08-5.34-3.13-7.73c-6.26,1.48-13.17,2.31-20.42,2.31h0h0c-7.24,0-14.15-0.83-20.4-2.31c-2.04,2.39-3.12,5.08-3.12,7.72
	l0.03,17.68c0,0-6.31-0.68-14.57-3.67c-9.41-3.39-12.33-5.59-12.33-5.59c0.39-7.93,7.6-15.08,18.65-19.84
	C25.36,24.35,18.14,17.19,17.75,9.26c0,0,2.91-2.21,12.33-5.6C38.35,0.68,44.65,0,44.65,0l-0.03,17.68c0,2.64,1.08,5.34,3.13,7.73
	c6.25-1.48,13.17-2.31,20.42-2.31h0h0c7.24,0,14.15,0.83,20.4,2.31c2.04-2.39,3.12-5.08,3.12-7.72L91.67,0c0,0,6.3,0.68,14.58,3.66
	c9.41,3.39,12.33,5.6,12.33,5.6c-0.39,7.93-7.6,15.08-18.65,19.84C110.97,33.86,118.19,41.02,118.58,48.95 M68.37,33.08
	c6.55,0,11.88-1.57,15.79-3.97c-3.91-2.4-9.24-3.97-15.78-3.97l-0.2,0h-0.01l-0.21,0c-6.55,0-11.89,1.57-15.79,3.98
	c3.91,2.4,9.24,3.97,15.78,3.97l0.21,0h0.01L68.37,33.08z"/>
</svg>
