<?xml version="1.0" encoding="utf-8"?>
<!-- Generator: Adobe Illustrator 24.0.1, SVG Export Plug-In . SVG Version: 6.00 Build 0)  -->
<svg version="1.1" id="logo" xmlns="http://www.w3.org/2000/svg" xmlns:xlink="http://www.w3.org/1999/xlink" x="0px" y="0px"
	 viewBox="0 0 283.46 129.67" style="enable-background:new 0 0 283.46 129.67;" xml:space="preserve">
<style type="text/css">
	.st0{fill:#F5F3F2;}
</style>
<g>
	<path class="st0" d="M0,102.06l29.35-45.65H3.48c-0.22-1.3-0.33-2.75-0.33-4.35c0-1.52,0.11-2.94,0.33-4.24h41.85l0.54,1.41
		L16.3,95h27.72c0.22,1.45,0.33,2.93,0.33,4.46c0,1.45-0.11,2.83-0.33,4.13H0.54L0,102.06z"/>
	<path class="st0" d="M84.67,66.85c0-4.28-1.09-7.25-3.26-8.91c-2.17-1.67-5.33-2.5-9.46-2.5c-2.54,0-4.91,0.2-7.12,0.6
		c-2.21,0.4-4.37,0.92-6.47,1.57c-1.38-2.39-2.06-5.25-2.06-8.59c2.46-0.8,5.18-1.41,8.15-1.85c2.97-0.44,5.83-0.65,8.59-0.65
		c7.24,0,12.75,1.65,16.52,4.95c3.77,3.3,5.65,8.57,5.65,15.81v34.89c-2.54,0.58-5.62,1.18-9.24,1.79
		c-3.62,0.61-7.32,0.92-11.09,0.92c-3.55,0-6.76-0.33-9.62-0.98c-2.86-0.65-5.29-1.7-7.28-3.15c-1.99-1.45-3.53-3.3-4.62-5.54
		c-1.09-2.25-1.63-4.96-1.63-8.15c0-3.11,0.63-5.85,1.9-8.21c1.27-2.35,2.99-4.31,5.16-5.87c2.17-1.56,4.67-2.72,7.5-3.48
		c2.83-0.76,5.8-1.14,8.91-1.14c2.32,0,4.22,0.06,5.71,0.16c1.48,0.11,2.73,0.24,3.75,0.38V66.85z M84.67,77.39
		c-1.09-0.14-2.46-0.29-4.13-0.43c-1.67-0.14-3.08-0.22-4.24-0.22c-4.49,0-7.92,0.83-10.27,2.5c-2.36,1.67-3.53,4.2-3.53,7.61
		c0,2.17,0.4,3.88,1.2,5.11c0.8,1.23,1.79,2.17,2.99,2.83c1.2,0.65,2.52,1.05,3.97,1.2c1.45,0.15,2.83,0.22,4.13,0.22
		c1.67,0,3.39-0.09,5.16-0.27c1.78-0.18,3.35-0.45,4.73-0.81V77.39z"/>
	<path class="st0" d="M106.95,47.82c0.72-0.14,1.47-0.25,2.23-0.33c0.76-0.07,1.54-0.11,2.34-0.11c0.72,0,1.48,0.04,2.28,0.11
		c0.8,0.07,1.56,0.18,2.28,0.33c0.07,0.15,0.16,0.6,0.27,1.36c0.11,0.76,0.22,1.58,0.33,2.44c0.11,0.87,0.22,1.7,0.33,2.5
		c0.11,0.8,0.16,1.31,0.16,1.52c0.72-1.16,1.59-2.28,2.61-3.37c1.01-1.09,2.23-2.07,3.64-2.93c1.41-0.87,3.01-1.56,4.78-2.07
		c1.77-0.51,3.75-0.76,5.92-0.76c3.26,0,6.29,0.54,9.08,1.63c2.79,1.09,5.18,2.77,7.17,5.05c1.99,2.28,3.55,5.18,4.67,8.7
		c1.12,3.52,1.68,7.66,1.68,12.45c0,9.56-2.59,17.05-7.77,22.44c-5.18,5.4-12.52,8.1-22.01,8.1c-1.59,0-3.22-0.11-4.89-0.33
		c-1.67-0.22-3.12-0.51-4.35-0.87v25.54c-0.87,0.14-1.79,0.25-2.77,0.33c-0.98,0.07-1.87,0.11-2.66,0.11c-0.8,0-1.68-0.04-2.66-0.11
		c-0.98-0.07-1.87-0.18-2.66-0.33V47.82z M117.71,94.45c1.38,0.51,2.79,0.87,4.24,1.09c1.45,0.22,3.33,0.33,5.65,0.33
		c2.61,0,5-0.42,7.17-1.25c2.17-0.83,4.04-2.12,5.6-3.86c1.56-1.74,2.79-3.93,3.7-6.58c0.91-2.64,1.36-5.78,1.36-9.4
		c0-5.8-1.07-10.4-3.21-13.8c-2.14-3.4-5.64-5.11-10.49-5.11c-1.81,0-3.55,0.33-5.22,0.98c-1.67,0.65-3.15,1.63-4.46,2.93
		c-1.3,1.3-2.35,2.95-3.15,4.95c-0.8,1.99-1.2,4.37-1.2,7.12V94.45z"/>
	<path class="st0" d="M170.1,56.3h-7.07c-0.15-0.58-0.25-1.25-0.33-2.01c-0.07-0.76-0.11-1.5-0.11-2.23c0-0.72,0.04-1.47,0.11-2.23
		c0.07-0.76,0.18-1.43,0.33-2.01h17.61v55.76c-0.8,0.14-1.69,0.25-2.66,0.33c-0.98,0.07-1.87,0.11-2.66,0.11
		c-0.72,0-1.58-0.04-2.55-0.11c-0.98-0.07-1.87-0.18-2.66-0.33V56.3z"/>
	<path class="st0" d="M203.79,78.37c0.15,6.09,1.72,10.54,4.73,13.37c3.01,2.83,7.44,4.24,13.31,4.24c5.14,0,10.04-0.91,14.67-2.72
		c0.58,1.09,1.05,2.41,1.41,3.97c0.36,1.56,0.58,3.1,0.65,4.62c-2.39,1.02-5.02,1.77-7.88,2.28c-2.86,0.51-6.03,0.76-9.51,0.76
		c-5.07,0-9.42-0.71-13.04-2.12c-3.62-1.41-6.61-3.41-8.97-5.98s-4.08-5.62-5.16-9.13c-1.09-3.51-1.63-7.37-1.63-11.58
		c0-4.13,0.52-7.99,1.58-11.58c1.05-3.59,2.66-6.7,4.84-9.35c2.17-2.65,4.91-4.75,8.21-6.3c3.3-1.56,7.19-2.34,11.68-2.34
		c3.84,0,7.21,0.65,10.11,1.96c2.9,1.3,5.33,3.1,7.28,5.38c1.96,2.28,3.44,5,4.46,8.15c1.01,3.15,1.52,6.58,1.52,10.27
		c0,1.02-0.04,2.08-0.11,3.21c-0.07,1.13-0.15,2.08-0.22,2.88H203.79z M231.4,70.32c0-2.03-0.27-3.97-0.81-5.82
		c-0.54-1.85-1.34-3.46-2.39-4.84c-1.05-1.38-2.39-2.48-4.02-3.31c-1.63-0.83-3.57-1.25-5.81-1.25c-4.42,0-7.81,1.34-10.16,4.02
		c-2.35,2.68-3.79,6.41-4.29,11.2H231.4z"/>
	<path class="st0" d="M253.9,47.82c0.8-0.14,1.56-0.25,2.28-0.33c0.72-0.07,1.48-0.11,2.28-0.11c0.8,0,1.59,0.04,2.39,0.11
		c0.8,0.07,1.52,0.18,2.17,0.33c0.22,1.09,0.43,2.52,0.65,4.29c0.22,1.78,0.33,3.28,0.33,4.51c1.52-2.46,3.53-4.6,6.03-6.41
		c2.5-1.81,5.71-2.72,9.62-2.72c0.58,0,1.18,0.02,1.79,0.06c0.61,0.04,1.14,0.09,1.58,0.16c0.14,0.65,0.25,1.34,0.33,2.07
		c0.07,0.72,0.11,1.49,0.11,2.28c0,0.87-0.05,1.78-0.16,2.72c-0.11,0.94-0.24,1.85-0.38,2.72c-0.58-0.14-1.18-0.22-1.79-0.22
		c-0.62,0-1.11,0-1.47,0c-1.96,0-3.82,0.27-5.6,0.81c-1.78,0.54-3.37,1.5-4.78,2.88c-1.41,1.38-2.54,3.26-3.37,5.65
		c-0.83,2.39-1.25,5.47-1.25,9.24v27.72c-0.8,0.14-1.68,0.25-2.66,0.33c-0.98,0.07-1.87,0.11-2.66,0.11c-0.8,0-1.69-0.04-2.66-0.11
		c-0.98-0.07-1.9-0.18-2.77-0.33V47.82z"/>
	<path class="st0" d="M190.9,15.04h-10.53l7.45-7.45c-0.59-0.82-1.24-1.59-1.95-2.3v0c-0.71-0.71-1.48-1.36-2.3-1.95l-7.45,7.45
		V0.25c-0.97-0.16-1.98-0.25-3-0.25h-0.02c-1.02,0-2.02,0.09-3,0.25v10.53l-7.45-7.45c-0.82,0.59-1.59,1.24-2.3,1.95l0,0
		c-0.71,0.71-1.36,1.48-1.95,2.3l7.45,7.45h-10.53c0,0-0.25,1.98-0.25,3v0.01c0,1.02,0.09,2.02,0.25,3h10.53l-7.45,7.45
		c1.17,1.64,2.61,3.08,4.25,4.25l7.45-7.45v10.53c0.97,0.16,1.97,0.25,2.99,0.25h0.03c1.02,0,2.02-0.09,2.99-0.25V25.3l7.45,7.45
		c0.82-0.58,1.59-1.24,2.3-1.95l0,0c0.71-0.71,1.36-1.48,1.95-2.3l-7.45-7.45h10.53c0.16-0.97,0.25-1.97,0.25-2.99v-0.03
		C191.15,17.01,191.06,16.01,190.9,15.04z M177.62,18.05c0,1.34-0.25,2.62-0.69,3.81c-1.18,0.45-2.47,0.69-3.81,0.69h-0.02
		c-1.34,0-2.62-0.25-3.81-0.69c-0.45-1.18-0.69-2.47-0.69-3.81v-0.02c0-1.34,0.25-2.62,0.69-3.81c1.18-0.45,2.47-0.69,3.81-0.69
		h0.02c1.34,0,2.63,0.25,3.81,0.69c0.45,1.18,0.69,2.47,0.69,3.81V18.05z"/>
</g>
</svg>
