<?xml version="1.0" encoding="utf-8"?>
<!-- Generator: Adobe Illustrator 24.0.1, SVG Export Plug-In . SVG Version: 6.00 Build 0)  -->
<svg version="1.1" id="LOGOS_SPOT" xmlns="http://www.w3.org/2000/svg" xmlns:xlink="http://www.w3.org/1999/xlink" x="0px" y="0px"
	 viewBox="0 0 283.46 283.46" style="enable-background:new 0 0 283.46 283.46;" xml:space="preserve">
<style type="text/css">
	.st0{fill:#FFFFFF;}
</style>
<g>
	<path class="st0" d="M220.47,118.47c-12.3,0-22.31,10.1-22.31,22.51c0,12.4,10.01,22.49,22.31,22.49
		c12.29,0,22.28-10.09,22.28-22.49C242.75,128.57,232.76,118.47,220.47,118.47z M220.47,149.16c-4.48,0-8.12-3.67-8.12-8.18
		c0-4.51,3.64-8.18,8.12-8.18c4.47,0,8.11,3.67,8.11,8.18C228.58,145.5,224.94,149.16,220.47,149.16z"/>
	<path class="st0" d="M125.7,118.69c-10.3,0-19.27,7.03-21.81,17.1h43.64C144.98,125.7,136.06,118.69,125.7,118.69z"/>
	<path class="st0" d="M141.73,0C63.44,0,0,63.46,0,141.73C0,220,63.44,283.46,141.73,283.46c78.26,0,141.74-63.47,141.74-141.73
		C283.46,63.46,219.99,0,141.73,0z M90.35,173.37c-1.24,0-2.42-0.52-3.34-1.47l-23.78-23.96l-23.88,24.08
		c-0.89,0.87-2.05,1.34-3.26,1.34c-2.54,0-4.6-2.09-4.6-4.65c0-1.27,0.51-2.46,1.42-3.34l23.79-24.05l-23.83-24.02
		c-0.89-0.9-1.39-2.08-1.39-3.32c0-2.56,2.06-4.65,4.6-4.65c1.23,0,2.38,0.48,3.25,1.34l23.9,24.02l23.81-23.98
		c0.88-0.89,2.04-1.39,3.28-1.39c2.55,0,4.63,2.09,4.63,4.65c0,1.24-0.48,2.4-1.35,3.26l-23.81,24.1l23.81,24.1
		c0.87,0.89,1.35,2.05,1.35,3.28C94.98,171.28,92.9,173.37,90.35,173.37z M155.46,141.91c-1.61,2.01-4.21,3.15-7.31,3.21
		l-44.61,0.01c0.01,0.11,0.02,0.23,0.02,0.34c0.2,1.1,0.51,2.28,0.94,3.57c2.76,7.19,9.81,14.93,21.34,15.06
		c3.67-0.03,7.18-0.93,10.43-2.68c2.27-1.27,4.33-2.95,6.13-4.98c0.52-0.61,0.98-1.22,1.42-1.81l0.1-0.14
		c1.33-1.75,2.81-2.12,3.81-2.12c1.03,0,2.08,0.38,2.97,1.07c0.93,0.72,1.53,1.81,1.69,3.07c0.17,1.41-0.25,2.88-1.15,4.02
		l-0.18,0.19c-2.72,3.45-5.3,5.92-8.11,7.75c-2.97,1.9-6.18,3.28-9.56,4.1c-2.6,0.68-5.12,1.02-7.72,1.02
		c-1.22,0-2.48-0.08-3.73-0.23c-12.96-1.61-23.84-11.27-27.07-24.04c-0.64-2.52-0.96-5.14-0.96-7.77c0-10.49,5.02-20.36,13.44-26.4
		c5.39-3.86,11.78-5.9,18.5-5.9c6.09,0,11.98,1.71,17.02,4.94c7.34,4.68,12.23,11.95,14.13,21.02
		C157.47,137.72,156.92,140.09,155.46,141.91z M184.44,119.02c-9.18,1.15-10.09,5.61-10.09,16.31v33c0,2.56-2.06,4.64-4.6,4.64
		c-2.52,0-4.58-2.08-4.6-4.64l-0.02-53.66c0.02-2.59,2.04-4.62,4.6-4.62c1.99,0,3.76,1.32,4.36,3.2c3.15-2.32,6.89-3.54,10.85-3.54
		l1.3,0.02c2.55,0,4.63,2.09,4.63,4.66c0,2.53-1.96,4.44-4.66,4.54C186.01,118.92,185.2,118.93,184.44,119.02z M220.47,173.07
		c-17.54,0-31.82-14.39-31.82-32.09c0-17.7,14.27-32.1,31.82-32.1c17.53,0,31.8,14.4,31.8,32.1
		C252.27,158.68,238.01,173.07,220.47,173.07z"/>
</g>
</svg>
