<?xml version="1.0" encoding="utf-8"?>
<!-- Generator: Adobe Illustrator 24.0.1, SVG Export Plug-In . SVG Version: 6.00 Build 0)  -->
<svg version="1.1" id="Layer_1" xmlns="http://www.w3.org/2000/svg" xmlns:xlink="http://www.w3.org/1999/xlink" x="0px" y="0px"
	 viewBox="0 0 283.46 71.78" style="enable-background:new 0 0 283.46 71.78;" xml:space="preserve">
<style type="text/css">
	.st0{fill:#F5F3F2;}
</style>
<g>
	<g>
		<path class="st0" d="M90.67,56.51l3.52-8.21c3.85,2.85,8.88,4.36,13.91,4.36c3.69,0,6.03-1.42,6.03-3.6
			c-0.08-6.03-22.2-1.34-22.37-16.51c-0.08-7.71,6.79-13.66,16.51-13.66c5.78,0,11.56,1.42,15.67,4.69l-3.29,8.39
			c-3.78-2.42-8.44-4.11-12.88-4.11c-3.02,0-5.03,1.42-5.03,3.27c0.08,5.95,22.37,2.68,22.62,17.18c0,7.88-6.7,13.4-16.26,13.4
			C102.06,61.7,95.61,60.03,90.67,56.51"/>
		<path class="st0" d="M226.56,45.32c-1.76,3.1-5.08,5.19-8.9,5.19c-5.65,0-10.22-4.58-10.22-10.22s4.58-10.22,10.22-10.22
			c3.82,0,7.14,2.09,8.9,5.19l9.78-5.42c-3.66-6.54-10.66-10.96-18.68-10.96c-11.82,0-21.41,9.58-21.41,21.41
			c0,11.82,9.58,21.41,21.41,21.41c8.03,0,15.02-4.42,18.68-10.96L226.56,45.32z"/>
		<rect x="130.29" y="1.07" class="st0" width="12.23" height="59.79"/>
		<polygon class="st0" points="241.1,1.07 241.1,60.86 253.33,60.86 253.33,42.95 267.83,60.86 283.46,60.86 265.03,39.58 
			282.12,19.72 267.16,19.72 253.33,36.23 253.33,1.07 		"/>
		<path class="st0" d="M178.79,45.41c-1.76,2.93-5.45,5.11-9.55,5.11c-5.65,0-10.22-4.58-10.22-10.22c0-5.65,4.58-10.22,10.22-10.22
			c4.11,0,7.79,2.26,9.55,5.28V45.41z M178.79,19.73v4.86c-2.01-3.35-6.95-5.7-12.15-5.7c-10.72,0-19.19,9.47-19.19,21.36
			c0,11.9,8.46,21.45,19.19,21.45c5.19,0,10.14-2.35,12.15-5.7v4.86h12.23V19.73H178.79z"/>
	</g>
	<g>
		<g>
			<path class="st0" d="M15.11,45.33c0,4.17-3.38,7.56-7.56,7.56S0,49.51,0,45.33s3.38-7.56,7.56-7.56h7.56V45.33z"/>
			<path class="st0" d="M18.89,45.33c0-4.17,3.38-7.56,7.56-7.56S34,41.16,34,45.33v18.89c0,4.17-3.38,7.56-7.56,7.56
				s-7.56-3.38-7.56-7.56V45.33z"/>
		</g>
		<g>
			<path class="st0" d="M26.44,15.11c-4.17,0-7.56-3.38-7.56-7.56S22.27,0,26.44,0S34,3.38,34,7.56v7.56H26.44z"/>
			<path class="st0" d="M26.44,18.89c4.17,0,7.56,3.38,7.56,7.56S30.62,34,26.44,34H7.56C3.38,34,0,30.62,0,26.44
				s3.38-7.56,7.56-7.56H26.44z"/>
		</g>
		<g>
			<path class="st0" d="M56.67,26.44c0-4.17,3.38-7.56,7.56-7.56c4.17,0,7.56,3.38,7.56,7.56S68.39,34,64.22,34h-7.56V26.44z"/>
			<path class="st0" d="M52.89,26.44c0,4.17-3.38,7.56-7.56,7.56s-7.56-3.38-7.56-7.56V7.56c0-4.17,3.38-7.56,7.56-7.56
				s7.56,3.38,7.56,7.56V26.44z"/>
		</g>
		<g>
			<path class="st0" d="M45.33,56.67c4.17,0,7.56,3.38,7.56,7.56c0,4.17-3.38,7.56-7.56,7.56s-7.56-3.38-7.56-7.56v-7.56H45.33z"/>
			<path class="st0" d="M45.33,52.89c-4.17,0-7.56-3.38-7.56-7.56s3.38-7.56,7.56-7.56h18.89c4.17,0,7.56,3.38,7.56,7.56
				s-3.38,7.56-7.56,7.56H45.33z"/>
		</g>
	</g>
</g>
</svg>
