<?xml version="1.0" encoding="utf-8"?>
<!-- Generator: Adobe Illustrator 24.0.1, SVG Export Plug-In . SVG Version: 6.00 Build 0)  -->
<svg version="1.1" id="Layer_1" xmlns="http://www.w3.org/2000/svg" xmlns:xlink="http://www.w3.org/1999/xlink" x="0px" y="0px"
	 viewBox="0 0 801.751 141.732" enable-background="new 0 0 801.751 141.732" xml:space="preserve">
<g>
	<g>
		<path fill="#231F20" d="M59.547,36.448c-0.75-4.95-4.8-13.349-17.699-13.349c-8.85,0-14.549,5.549-14.549,11.399
			c0,5.1,3.15,8.85,10.5,10.199l14.25,2.7c20.249,3.75,30.749,16.799,30.749,31.949c0,16.649-13.949,33.599-39.298,33.599
			C14.099,112.945,1.5,93.896,0,78.896l21.749-5.25c0.9,9.75,7.5,18.299,22.049,18.299c9.299,0,14.999-4.5,14.999-11.1
			c0-5.4-4.35-9.3-11.399-10.65l-14.549-2.7C14.849,64.047,3.9,52.048,3.9,36.298C3.9,16.199,21.599,2.1,41.998,2.1
			c26.549,0,36.599,15.899,38.849,28.349L59.547,36.448z"/>
		<path fill="#231F20" d="M94.499,139.194V36.148h22.049v7.649c3.15-4.8,11.25-9.449,21.899-9.449
			c21.6,0,34.649,16.499,34.649,38.848c0,22.799-14.7,39.148-35.549,39.148c-9.6,0-16.799-3.3-20.249-7.5v34.349H94.499z
			 M133.797,54.897c-8.85,0-16.799,6-16.799,18.449c0,12.3,7.95,18.6,16.799,18.6c9,0,16.949-6.15,16.949-18.6
			C150.747,60.897,142.797,54.897,133.797,54.897z"/>
		<path fill="#231F20" d="M261.595,73.347c0,23.099-17.25,39.599-39.599,39.599c-22.199,0-39.598-16.5-39.598-39.599
			s17.399-39.448,39.598-39.448C244.345,33.898,261.595,50.248,261.595,73.347z M238.795,73.347c0-12.599-8.1-18.449-16.799-18.449
			c-8.549,0-16.799,5.85-16.799,18.449c0,12.45,8.25,18.6,16.799,18.6C230.696,91.946,238.795,85.946,238.795,73.347z"/>
		<path fill="#231F20" d="M323.695,58.647c-2.55-0.6-4.95-0.75-7.2-0.75c-9.15,0-17.399,5.4-17.399,20.249v32.549h-22.799V36.148
			h22.049v10.049c3.9-8.399,13.35-10.799,19.349-10.799c2.25,0,4.5,0.3,6,0.75V58.647z"/>
		<path fill="#231F20" d="M370.046,36.148h14.549v19.949h-14.549v27.899c0,6.149,3.3,7.799,8.25,7.799c2.4,0,4.65-0.45,6-0.75
			v18.899c-0.9,0.45-4.649,2.1-11.849,2.1c-15.45,0-24.899-9.15-24.899-23.999V56.098h-13.2V36.148h3.75
			c7.799,0,11.549-5.25,11.549-12.149v-9.6h20.399V36.148z"/>
		<path fill="#231F20" d="M413.245,86.096c0.3,5.1,3.9,10.05,11.7,10.05c5.85,0,8.7-3.15,8.7-6.45c0-2.7-1.8-4.95-7.35-6.15
			l-8.549-1.95c-15.899-3.45-22.199-12.45-22.199-22.949c0-13.649,12-24.749,28.649-24.749c21.599,0,29.099,13.5,29.849,22.199
			l-18.899,3.45c-0.6-4.95-3.75-9.149-10.649-9.149c-4.35,0-8.1,2.55-8.1,6.45c0,3.15,2.55,4.95,5.85,5.55l9.9,1.95
			c15.449,3.15,22.949,12.45,22.949,23.399c0,12.75-9.75,25.199-29.699,25.199c-23.399,0-30.898-15.149-31.499-23.399
			L413.245,86.096z"/>
		<path fill="#231F20" d="M533.541,36.148l14.55,44.248l12.449-44.248h22.35l-23.1,74.547h-22.649l-16.199-48.148l-15.899,48.148
			h-23.099l-23.399-74.547h23.699l12.449,44.098l14.7-44.098H533.541z"/>
		<path fill="#231F20" d="M659.391,89.246c-3.6,12.899-15.449,23.699-34.349,23.699c-20.549,0-38.849-14.7-38.849-39.749
			c0-23.999,17.85-39.298,37.199-39.298c23.099,0,37.348,14.25,37.348,38.249c0,3.15-0.3,6.6-0.449,7.05h-51.898
			c0.45,8.399,8.1,14.399,16.949,14.399c8.25,0,12.899-3.9,15-9.75L659.391,89.246z M638.691,64.497
			c-0.3-5.7-4.199-12.599-14.999-12.599c-9.6,0-14.399,7.049-14.85,12.599H638.691z"/>
		<path fill="#231F20" d="M692.991,67.647l17.55-2.7c4.05-0.6,5.399-2.55,5.399-5.1c0-4.35-3.75-8.1-10.949-8.1
			c-7.95,0-12.3,5.4-12.75,10.95l-19.799-4.05c0.899-10.649,10.8-24.749,32.698-24.749c24.149,0,32.999,13.5,32.999,28.799v36.449
			c0,5.85,0.75,10.799,0.9,11.549h-20.55c-0.149-0.6-0.75-3.3-0.75-8.4c-3.899,6.3-11.1,10.5-20.999,10.5
			c-16.35,0-25.799-10.8-25.799-22.649C670.942,76.947,680.692,69.447,692.991,67.647z M715.94,81.446v-3.3l-14.1,2.25
			c-4.8,0.75-8.399,3-8.399,8.25c0,3.9,2.55,7.65,8.85,7.65C709.041,96.296,715.94,92.996,715.94,81.446z"/>
		<path fill="#231F20" d="M801.738,58.647c-2.55-0.6-4.949-0.75-7.199-0.75c-9.149,0-17.399,5.4-17.399,20.249v32.549h-22.799
			V36.148h22.049v10.049c3.899-8.399,13.35-10.799,19.35-10.799c2.25,0,4.499,0.3,5.999,0.75V58.647z"/>
	</g>
	<rect fill="none" width="801.751" height="141.732"/>
</g>
</svg>
