<?xml version="1.0" encoding="utf-8"?>
<!-- Generator: Adobe Illustrator 24.0.1, SVG Export Plug-In . SVG Version: 6.00 Build 0)  -->
<svg version="1.1" id="Layer_1" xmlns="http://www.w3.org/2000/svg" xmlns:xlink="http://www.w3.org/1999/xlink" x="0px" y="0px"
	 viewBox="0 0 526.054 141.732" enable-background="new 0 0 526.054 141.732" xml:space="preserve">
<g>
	<g>
		<path fill="#231F20" d="M0,110.695V4.35h68.547v22.499H23.699v22.499h39.448v21.599H23.849v39.749H0z"/>
		<path fill="#231F20" d="M101.248,67.647l17.55-2.7c4.05-0.6,5.399-2.55,5.399-5.1c0-4.35-3.75-8.1-10.949-8.1
			c-7.95,0-12.3,5.4-12.75,10.95l-19.799-4.05c0.899-10.649,10.8-24.749,32.698-24.749c24.149,0,32.999,13.5,32.999,28.799v36.449
			c0,5.85,0.75,10.799,0.9,11.549h-20.55c-0.149-0.6-0.75-3.3-0.75-8.4c-3.899,6.3-11.1,10.5-20.999,10.5
			c-16.35,0-25.799-10.8-25.799-22.649C79.199,76.947,88.949,69.447,101.248,67.647z M124.197,81.446v-3.3l-14.1,2.25
			c-4.8,0.75-8.399,3-8.399,8.25c0,3.9,2.55,7.65,8.85,7.65C117.298,96.296,124.197,92.996,124.197,81.446z"/>
		<path fill="#231F20" d="M178.797,86.096c0.3,5.1,3.899,10.05,11.699,10.05c5.851,0,8.7-3.15,8.7-6.45c0-2.7-1.8-4.95-7.35-6.15
			l-8.55-1.95c-15.899-3.45-22.199-12.45-22.199-22.949c0-13.649,11.999-24.749,28.648-24.749c21.6,0,29.1,13.5,29.85,22.199
			l-18.899,3.45c-0.601-4.95-3.75-9.149-10.649-9.149c-4.351,0-8.101,2.55-8.101,6.45c0,3.15,2.551,4.95,5.851,5.55l9.899,1.95
			c15.449,3.15,22.949,12.45,22.949,23.399c0,12.75-9.75,25.199-29.699,25.199c-23.398,0-30.898-15.149-31.499-23.399
			L178.797,86.096z"/>
		<path fill="#231F20" d="M258.295,110.695h-22.799V2.1h22.799v38.849c4.649-4.65,12.449-6.75,19.049-6.75
			c19.5,0,28.199,13.35,28.199,29.699v46.798h-22.799V67.797c0-7.35-3.9-12.899-12.149-12.899c-7.2,0-11.85,5.1-12.3,12V110.695z"/>
		<path fill="#231F20" d="M335.992,0c7.5,0,13.5,6,13.5,13.349s-6,13.35-13.5,13.35c-7.199,0-13.199-6-13.199-13.35
			S328.793,0,335.992,0z M324.743,110.695V36.148h22.799v74.547H324.743z"/>
		<path fill="#231F20" d="M441.289,73.347c0,23.099-17.249,39.599-39.599,39.599c-22.199,0-39.599-16.5-39.599-39.599
			s17.399-39.448,39.599-39.448C424.04,33.898,441.289,50.248,441.289,73.347z M418.49,73.347c0-12.599-8.1-18.449-16.8-18.449
			c-8.55,0-16.799,5.85-16.799,18.449c0,12.45,8.249,18.6,16.799,18.6C410.391,91.946,418.49,85.946,418.49,73.347z"/>
		<path fill="#231F20" d="M478.79,110.695h-22.799V36.148h22.049v8.549c4.05-7.049,13.199-10.5,20.85-10.5
			c18.749,0,27.148,13.35,27.148,29.699v46.798h-22.799V67.797c0-7.35-3.9-12.899-12.149-12.899c-7.5,0-12.3,5.55-12.3,13.05
			V110.695z"/>
	</g>
	<rect fill="none" width="526.054" height="141.732"/>
</g>
</svg>
