<?xml version="1.0" encoding="utf-8"?>
<!-- Generator: Adobe Illustrator 24.0.1, SVG Export Plug-In . SVG Version: 6.00 Build 0)  -->
<svg version="1.1" id="Layer_1" xmlns="http://www.w3.org/2000/svg" xmlns:xlink="http://www.w3.org/1999/xlink" x="0px" y="0px"
	 viewBox="0 0 964.035 141.732" enable-background="new 0 0 964.035 141.732" xml:space="preserve">
<g>
	<g>
		<g>
			<path fill="#231F20" d="M59.548,36.449c-0.75-4.95-4.8-13.349-17.699-13.349c-8.85,0-14.549,5.549-14.549,11.399
				c0,5.1,3.149,8.85,10.499,10.199l14.249,2.7c20.25,3.75,30.749,16.799,30.749,31.949c0,16.649-13.949,33.599-39.298,33.599
				C14.1,112.946,1.5,93.896,0,78.897l21.75-5.25c0.899,9.75,7.499,18.299,22.049,18.299c9.3,0,14.999-4.5,14.999-11.1
				c0-5.4-4.35-9.3-11.399-10.65l-14.55-2.7C14.85,64.048,3.9,52.048,3.9,36.299C3.9,16.2,21.6,2.1,41.999,2.1
				C68.548,2.1,78.598,18,80.847,30.449L59.548,36.449z"/>
			<path fill="#231F20" d="M145.047,103.196c-3.899,6.45-12.449,9.149-19.949,9.149c-18.149,0-28.349-13.199-28.349-29.099V36.149
				h22.799v42.298c0,7.2,3.9,12.899,12,12.899c7.649,0,12.449-5.25,12.449-12.75V36.149h22.799v61.197c0,6.75,0.6,12.15,0.75,13.35
				h-21.899C145.347,109.346,145.047,105.146,145.047,103.196z"/>
			<path fill="#231F20" d="M200.098,86.097c0.3,5.1,3.899,10.05,11.699,10.05c5.851,0,8.7-3.15,8.7-6.45c0-2.7-1.8-4.95-7.35-6.15
				l-8.55-1.95c-15.899-3.45-22.199-12.45-22.199-22.949c0-13.649,11.999-24.749,28.648-24.749c21.6,0,29.1,13.5,29.85,22.199
				l-18.899,3.45c-0.601-4.95-3.75-9.149-10.649-9.149c-4.351,0-8.101,2.55-8.101,6.45c0,3.15,2.551,4.95,5.851,5.55l9.899,1.95
				c15.449,3.15,22.949,12.45,22.949,23.399c0,12.75-9.75,25.199-29.699,25.199c-23.398,0-30.898-15.149-31.499-23.399
				L200.098,86.097z"/>
			<path fill="#231F20" d="M284.096,36.149h14.549v19.949h-14.549v27.899c0,6.149,3.3,7.799,8.249,7.799c2.4,0,4.65-0.45,6-0.75
				v18.899c-0.899,0.45-4.649,2.1-11.85,2.1c-15.449,0-24.898-9.15-24.898-23.999V56.098h-13.199V36.149h3.749
				c7.8,0,11.55-5.25,11.55-12.149v-9.6h20.399V36.149z"/>
			<path fill="#231F20" d="M331.644,67.647l17.55-2.7c4.05-0.6,5.399-2.55,5.399-5.1c0-4.35-3.75-8.1-10.949-8.1
				c-7.95,0-12.3,5.4-12.75,10.95l-19.799-4.05c0.899-10.649,10.8-24.749,32.698-24.749c24.149,0,32.999,13.5,32.999,28.799v36.449
				c0,5.85,0.75,10.799,0.9,11.549h-20.55c-0.149-0.6-0.75-3.3-0.75-8.4c-3.899,6.3-11.1,10.5-20.999,10.5
				c-16.35,0-25.799-10.8-25.799-22.649C309.595,76.947,319.345,69.447,331.644,67.647z M354.593,81.447v-3.3l-14.1,2.25
				c-4.8,0.75-8.399,3-8.399,8.25c0,3.9,2.55,7.65,8.85,7.65C347.693,96.296,354.593,92.997,354.593,81.447z"/>
			<path fill="#231F20" d="M407.242,0c7.5,0,13.5,6,13.5,13.349s-6,13.35-13.5,13.35c-7.199,0-13.199-6-13.199-13.35
				S400.043,0,407.242,0z M395.993,110.696V36.149h22.799v74.547H395.993z"/>
			<path fill="#231F20" d="M461.54,110.696h-22.799V36.149h22.049v8.549c4.05-7.049,13.199-10.5,20.85-10.5
				c18.749,0,27.148,13.35,27.148,29.699v46.798h-22.799V67.797c0-7.35-3.9-12.899-12.149-12.899c-7.5,0-12.3,5.55-12.3,13.05
				V110.696z"/>
			<path fill="#231F20" d="M545.538,67.647l17.55-2.7c4.05-0.6,5.399-2.55,5.399-5.1c0-4.35-3.75-8.1-10.949-8.1
				c-7.95,0-12.3,5.4-12.75,10.95l-19.799-4.05c0.899-10.649,10.8-24.749,32.698-24.749c24.149,0,32.999,13.5,32.999,28.799v36.449
				c0,5.85,0.75,10.799,0.9,11.549h-20.55c-0.149-0.6-0.75-3.3-0.75-8.4c-3.899,6.3-11.1,10.5-20.999,10.5
				c-16.35,0-25.799-10.8-25.799-22.649C523.489,76.947,533.239,69.447,545.538,67.647z M568.487,81.447v-3.3l-14.1,2.25
				c-4.8,0.75-8.399,3-8.399,8.25c0,3.9,2.55,7.65,8.85,7.65C561.588,96.296,568.487,92.997,568.487,81.447z"/>
			<path fill="#231F20" d="M609.888,110.696V2.1h22.349v41.099c3.15-4.65,11.399-8.85,21.6-8.85
				c21.599,0,34.648,16.499,34.648,38.848c0,22.799-14.699,39.148-35.549,39.148c-9.899,0-17.549-4.35-20.999-10.05v8.4H609.888z
				 M648.886,54.898c-8.85,0-16.949,5.85-16.949,18.449c0,12.3,8.1,18.6,16.949,18.6s16.8-6.15,16.8-18.6
				C665.686,60.748,657.735,54.898,648.886,54.898z"/>
			<path fill="#231F20" d="M714.437,0c7.5,0,13.5,6,13.5,13.349s-6,13.35-13.5,13.35c-7.199,0-13.199-6-13.199-13.35
				S707.237,0,714.437,0z M703.188,110.696V36.149h22.799v74.547H703.188z"/>
			<path fill="#231F20" d="M745.936,110.696V2.1h22.799v108.596H745.936z"/>
			<path fill="#231F20" d="M800.084,0c7.5,0,13.5,6,13.5,13.349s-6,13.35-13.5,13.35c-7.199,0-13.199-6-13.199-13.35
				S792.885,0,800.084,0z M788.835,110.696V36.149h22.799v74.547H788.835z"/>
			<path fill="#231F20" d="M858.882,36.149h14.549v19.949h-14.549v27.899c0,6.149,3.3,7.799,8.25,7.799
				c2.399,0,4.649-0.45,5.999-0.75v18.899c-0.899,0.45-4.649,2.1-11.85,2.1c-15.449,0-24.898-9.15-24.898-23.999V56.098h-13.199
				V36.149h3.749c7.8,0,11.55-5.25,11.55-12.149v-9.6h20.399V36.149z"/>
			<path fill="#231F20" d="M894.131,139.345l16.949-38.699l-31.349-64.497h25.498l18.149,39.898l16.5-39.898h24.148L918.13,139.345
				H894.131z"/>
		</g>
	</g>
	<rect fill="none" width="964.035" height="141.732"/>
</g>
</svg>
