<?xml version="1.0" encoding="utf-8"?>
<!-- Generator: Adobe Illustrator 24.0.1, SVG Export Plug-In . SVG Version: 6.00 Build 0)  -->
<svg version="1.1" id="Layer_1" xmlns="http://www.w3.org/2000/svg" xmlns:xlink="http://www.w3.org/1999/xlink" x="0px" y="0px"
	 viewBox="0 0 319.068 141.732" enable-background="new 0 0 319.068 141.732" xml:space="preserve">
<g>
	<g>
		<path fill="#231F20" d="M39.748,4.35c20.999,0,33.148,12.149,33.148,28.499c0,10.949-6.899,19.949-15.599,22.799
			c9.6,2.25,18.898,11.1,18.898,24.899c0,17.399-13.199,30.149-33.298,30.149H0V4.35H39.748z M35.998,46.948
			c8.25,0,13.649-4.35,13.649-11.549c0-6.9-4.649-11.399-13.949-11.399h-12.6v22.949H35.998z M37.948,91.346
			c9.149,0,14.699-4.8,14.699-12.45c0-7.35-5.399-12.449-14.699-12.449h-14.85v24.899H37.948z"/>
		<path fill="#231F20" d="M108.598,67.647l17.55-2.7c4.05-0.6,5.399-2.55,5.399-5.1c0-4.35-3.75-8.1-10.949-8.1
			c-7.95,0-12.3,5.4-12.75,10.95l-19.799-4.05c0.899-10.649,10.8-24.749,32.698-24.749c24.149,0,32.999,13.5,32.999,28.799v36.449
			c0,5.85,0.75,10.799,0.9,11.549h-20.55c-0.149-0.6-0.75-3.3-0.75-8.4c-3.899,6.3-11.1,10.5-20.999,10.5
			c-16.35,0-25.799-10.8-25.799-22.649C86.549,76.947,96.299,69.447,108.598,67.647z M131.547,81.446v-3.3l-14.1,2.25
			c-4.8,0.75-8.399,3-8.399,8.25c0,3.9,2.55,7.65,8.85,7.65C124.647,96.296,131.547,92.996,131.547,81.446z"/>
		<path fill="#231F20" d="M187.797,109.195c1.499,7.2,7.499,12.45,16.049,12.45c11.399,0,18.449-5.55,18.449-19.049v-3.45
			c-2.7,4.05-9.149,8.399-19.949,8.399c-19.799,0-34.648-15.599-34.648-36.298c0-19.649,14.249-36.449,34.648-36.449
			c12.149,0,18.6,5.4,20.699,9.3v-7.95h21.749v65.247c0,21.449-11.999,40.048-39.898,40.048c-21.449,0-35.099-13.199-37.198-26.549
			L187.797,109.195z M222.445,71.247c0-10.2-7.35-16.5-15.899-16.5s-16.05,6.3-16.05,16.5c0,10.199,6.9,16.499,16.05,16.499
			C215.846,87.746,222.445,81.446,222.445,71.247z"/>
		<path fill="#231F20" d="M277.195,86.096c0.3,5.1,3.899,10.05,11.699,10.05c5.851,0,8.7-3.15,8.7-6.45c0-2.7-1.8-4.95-7.35-6.15
			l-8.55-1.95c-15.899-3.45-22.199-12.45-22.199-22.949c0-13.649,11.999-24.749,28.648-24.749c21.6,0,29.1,13.5,29.85,22.199
			l-18.899,3.45c-0.601-4.95-3.75-9.149-10.649-9.149c-4.351,0-8.101,2.55-8.101,6.45c0,3.15,2.551,4.95,5.851,5.55l9.899,1.95
			c15.449,3.15,22.949,12.45,22.949,23.399c0,12.75-9.75,25.199-29.699,25.199c-23.398,0-30.898-15.149-31.499-23.399
			L277.195,86.096z"/>
	</g>
	<rect fill="none" width="319.068" height="141.732"/>
</g>
</svg>
