<?xml version="1.0" encoding="utf-8"?>
<!-- Generator: Adobe Illustrator 24.0.1, SVG Export Plug-In . SVG Version: 6.00 Build 0)  -->
<svg version="1.1" id="Layer_1" xmlns="http://www.w3.org/2000/svg" xmlns:xlink="http://www.w3.org/1999/xlink" x="0px" y="0px"
	 viewBox="0 0 322.214 141.732" enable-background="new 0 0 322.214 141.732" xml:space="preserve">
<g>
	<g>
		<path fill="#231F20" d="M56.398,26.999v83.697H32.699V26.999H0V4.35h89.247v22.649H56.398z"/>
		<path fill="#231F20" d="M151.946,89.246c-3.6,12.899-15.449,23.699-34.349,23.699c-20.549,0-38.849-14.7-38.849-39.749
			c0-23.999,17.85-39.298,37.199-39.298c23.099,0,37.348,14.25,37.348,38.249c0,3.15-0.3,6.6-0.449,7.05h-51.898
			c0.45,8.399,8.1,14.399,16.949,14.399c8.25,0,12.899-3.9,15-9.75L151.946,89.246z M131.247,64.497
			c-0.3-5.7-4.199-12.599-14.999-12.599c-9.6,0-14.399,7.049-14.85,12.599H131.247z"/>
		<path fill="#231F20" d="M185.247,73.497c0,11.85,7.95,18.45,17.399,18.45c8.85,0,13.8-5.55,15.449-11.1l20.1,6.149
			c-3.3,13.05-15.6,25.949-35.549,25.949c-22.199,0-40.049-16.35-40.049-39.449c0-23.249,17.399-39.598,39.299-39.598
			c20.549,0,32.549,12.6,35.849,25.949l-20.399,6.15c-1.649-5.7-6.149-11.1-14.999-11.1
			C192.896,54.897,185.247,61.498,185.247,73.497z"/>
		<path fill="#231F20" d="M274.945,110.695h-22.799V2.1h22.799v38.849c4.649-4.65,12.449-6.75,19.049-6.75
			c19.5,0,28.199,13.35,28.199,29.699v46.798h-22.799V67.797c0-7.35-3.9-12.899-12.149-12.899c-7.2,0-11.85,5.1-12.3,12V110.695z"/>
	</g>
	<rect fill="none" width="322.214" height="141.732"/>
</g>
</svg>
