<?xml version="1.0" encoding="utf-8"?>
<!-- Generator: Adobe Illustrator 24.0.1, SVG Export Plug-In . SVG Version: 6.00 Build 0)  -->
<svg version="1.1" id="Layer_1" xmlns="http://www.w3.org/2000/svg" xmlns:xlink="http://www.w3.org/1999/xlink" x="0px" y="0px"
	 viewBox="0 0 841.209 141.732" enable-background="new 0 0 841.209 141.732" xml:space="preserve">
<g>
	<g>
		<path fill="#231F20" d="M73.646,89.097H32.549l-7.65,21.599H0L40.048,4.35h27.449l39.599,106.346H81.297L73.646,89.097z
			 M40.349,67.498h25.799l-12.75-36.749L40.349,67.498z"/>
		<path fill="#231F20" d="M135.897,73.497c0,11.85,7.95,18.45,17.399,18.45c8.85,0,13.8-5.55,15.449-11.1l20.1,6.149
			c-3.3,13.05-15.6,25.949-35.549,25.949c-22.199,0-40.049-16.35-40.049-39.449c0-23.249,17.399-39.598,39.299-39.598
			c20.549,0,32.549,12.6,35.849,25.949l-20.399,6.15c-1.649-5.7-6.149-11.1-14.999-11.1
			C143.547,54.898,135.897,61.498,135.897,73.497z"/>
		<path fill="#231F20" d="M220.046,73.497c0,11.85,7.95,18.45,17.399,18.45c8.85,0,13.8-5.55,15.449-11.1l20.1,6.149
			c-3.3,13.05-15.6,25.949-35.549,25.949c-22.199,0-40.049-16.35-40.049-39.449c0-23.249,17.399-39.598,39.299-39.598
			c20.549,0,32.549,12.6,35.849,25.949l-20.399,6.15c-1.649-5.7-6.149-11.1-14.999-11.1
			C227.695,54.898,220.046,61.498,220.046,73.497z"/>
		<path fill="#231F20" d="M354.742,89.247c-3.6,12.899-15.449,23.699-34.349,23.699c-20.549,0-38.849-14.7-38.849-39.749
			c0-23.999,17.85-39.298,37.199-39.298c23.099,0,37.348,14.25,37.348,38.249c0,3.15-0.3,6.6-0.449,7.05h-51.898
			c0.45,8.399,8.1,14.399,16.949,14.399c8.25,0,12.899-3.9,15-9.75L354.742,89.247z M334.043,64.498
			c-0.3-5.7-4.199-12.599-14.999-12.599c-9.6,0-14.399,7.049-14.85,12.599H334.043z"/>
		<path fill="#231F20" d="M383.993,86.097c0.3,5.1,3.899,10.05,11.699,10.05c5.851,0,8.7-3.15,8.7-6.45c0-2.7-1.8-4.95-7.35-6.15
			l-8.55-1.95c-15.899-3.45-22.199-12.45-22.199-22.949c0-13.649,11.999-24.749,28.648-24.749c21.6,0,29.1,13.5,29.85,22.199
			l-18.899,3.45c-0.601-4.95-3.75-9.149-10.649-9.149c-4.351,0-8.101,2.55-8.101,6.45c0,3.15,2.551,4.95,5.851,5.55l9.899,1.95
			c15.449,3.15,22.949,12.45,22.949,23.399c0,12.75-9.75,25.199-29.699,25.199c-23.398,0-30.898-15.149-31.499-23.399
			L383.993,86.097z"/>
		<path fill="#231F20" d="M453.892,86.097c0.3,5.1,3.899,10.05,11.699,10.05c5.851,0,8.7-3.15,8.7-6.45c0-2.7-1.8-4.95-7.35-6.15
			l-8.55-1.95c-15.899-3.45-22.199-12.45-22.199-22.949c0-13.649,11.999-24.749,28.648-24.749c21.6,0,29.1,13.5,29.85,22.199
			l-18.899,3.45c-0.601-4.95-3.75-9.149-10.649-9.149c-4.351,0-8.101,2.55-8.101,6.45c0,3.15,2.551,4.95,5.851,5.55l9.899,1.95
			c15.449,3.15,22.949,12.45,22.949,23.399c0,12.75-9.75,25.199-29.699,25.199c-23.398,0-30.898-15.149-31.499-23.399
			L453.892,86.097z"/>
		<path fill="#231F20" d="M584.388,73.347c0,23.099-17.249,39.599-39.599,39.599c-22.199,0-39.599-16.5-39.599-39.599
			s17.399-39.448,39.599-39.448C567.139,33.899,584.388,50.248,584.388,73.347z M561.589,73.347c0-12.599-8.1-18.449-16.8-18.449
			c-8.55,0-16.799,5.85-16.799,18.449c0,12.45,8.249,18.6,16.799,18.6C553.489,91.947,561.589,85.947,561.589,73.347z"/>
		<path fill="#231F20" d="M646.487,58.648c-2.55-0.6-4.949-0.75-7.199-0.75c-9.149,0-17.399,5.4-17.399,20.249v32.549H599.09V36.149
			h22.049v10.049c3.9-8.399,13.35-10.799,19.35-10.799c2.25,0,4.499,0.3,5.999,0.75V58.648z"/>
		<path fill="#231F20" d="M670.789,0c7.5,0,13.5,6,13.5,13.349s-6,13.35-13.5,13.35c-7.199,0-13.199-6-13.199-13.35
			S663.59,0,670.789,0z M659.54,110.696V36.149h22.799v74.547H659.54z"/>
		<path fill="#231F20" d="M770.085,89.247c-3.6,12.899-15.449,23.699-34.349,23.699c-20.549,0-38.849-14.7-38.849-39.749
			c0-23.999,17.85-39.298,37.199-39.298c23.099,0,37.349,14.25,37.349,38.249c0,3.15-0.301,6.6-0.45,7.05h-51.898
			c0.45,8.399,8.1,14.399,16.949,14.399c8.25,0,12.899-3.9,15-9.75L770.085,89.247z M749.386,64.498
			c-0.3-5.7-4.199-12.599-14.999-12.599c-9.6,0-14.399,7.049-14.85,12.599H749.386z"/>
		<path fill="#231F20" d="M799.336,86.097c0.3,5.1,3.899,10.05,11.699,10.05c5.85,0,8.7-3.15,8.7-6.45c0-2.7-1.8-4.95-7.35-6.15
			l-8.55-1.95c-15.899-3.45-22.199-12.45-22.199-22.949c0-13.649,11.999-24.749,28.648-24.749c21.6,0,29.1,13.5,29.85,22.199
			l-18.899,3.45c-0.601-4.95-3.75-9.149-10.649-9.149c-4.351,0-8.1,2.55-8.1,6.45c0,3.15,2.55,4.95,5.85,5.55l9.899,1.95
			c15.449,3.15,22.949,12.45,22.949,23.399c0,12.75-9.75,25.199-29.699,25.199c-23.399,0-30.898-15.149-31.499-23.399
			L799.336,86.097z"/>
	</g>
	<rect fill="none" width="841.209" height="141.732"/>
</g>
</svg>
