<?xml version="1.0" encoding="utf-8"?>
<!-- Generator: Adobe Illustrator 24.0.1, SVG Export Plug-In . SVG Version: 6.00 Build 0)  -->
<svg version="1.1" id="Layer_1" xmlns="http://www.w3.org/2000/svg" xmlns:xlink="http://www.w3.org/1999/xlink" x="0px" y="0px"
	 viewBox="0 0 585.298 141.732" enable-background="new 0 0 585.298 141.732" xml:space="preserve">
<g>
	<g>
		<path fill="#231F20" d="M0,110.696V4.35h67.347v22.349H23.699v20.249h39.598v20.85H23.699v20.399h43.798v22.499H0z"/>
		<path fill="#231F20" d="M91.199,139.344l16.949-38.698L76.8,36.149h25.499l18.148,39.898l16.5-39.898h24.148l-45.897,103.195
			H91.199z"/>
		<path fill="#231F20" d="M237.444,89.247c-3.6,12.899-15.449,23.699-34.349,23.699c-20.549,0-38.849-14.7-38.849-39.749
			c0-23.999,17.85-39.298,37.199-39.298c23.099,0,37.349,14.249,37.349,38.248c0,3.15-0.301,6.6-0.45,7.05h-51.898
			c0.45,8.399,8.1,14.399,16.949,14.399c8.25,0,12.899-3.899,15-9.75L237.444,89.247z M216.745,64.498
			c-0.3-5.7-4.199-12.6-14.999-12.6c-9.6,0-14.399,7.05-14.85,12.6H216.745z"/>
		<path fill="#231F20" d="M317.092,36.149l14.55,44.248l12.449-44.248h22.35l-23.1,74.547h-22.648l-16.199-48.148l-15.899,48.148
			h-23.1l-23.398-74.547h23.698l12.45,44.098l14.699-44.098H317.092z"/>
		<path fill="#231F20" d="M442.942,89.247c-3.6,12.899-15.449,23.699-34.349,23.699c-20.549,0-38.849-14.7-38.849-39.749
			c0-23.999,17.85-39.298,37.199-39.298c23.099,0,37.349,14.249,37.349,38.248c0,3.15-0.301,6.6-0.45,7.05h-51.898
			c0.45,8.399,8.1,14.399,16.949,14.399c8.25,0,12.899-3.899,15-9.75L442.942,89.247z M422.243,64.498
			c-0.3-5.7-4.199-12.6-14.999-12.6c-9.6,0-14.399,7.05-14.85,12.6H422.243z"/>
		<path fill="#231F20" d="M476.543,67.647l17.55-2.699c4.05-0.601,5.399-2.55,5.399-5.101c0-4.35-3.75-8.1-10.949-8.1
			c-7.95,0-12.3,5.4-12.75,10.95l-19.799-4.05c0.899-10.649,10.8-24.749,32.698-24.749c24.149,0,32.999,13.499,32.999,28.799v36.448
			c0,5.85,0.75,10.8,0.9,11.55h-20.55c-0.149-0.601-0.75-3.3-0.75-8.4c-3.899,6.3-11.1,10.5-20.999,10.5
			c-16.35,0-25.799-10.8-25.799-22.649C454.494,76.947,464.244,69.447,476.543,67.647z M499.492,81.447v-3.3l-14.1,2.25
			c-4.8,0.75-8.399,3-8.399,8.249c0,3.9,2.55,7.65,8.85,7.65C492.593,96.296,499.492,92.997,499.492,81.447z"/>
		<path fill="#231F20" d="M585.29,58.648c-2.55-0.601-4.949-0.75-7.199-0.75c-9.149,0-17.399,5.399-17.399,20.249v32.549h-22.799
			V36.149h22.049v10.049c3.9-8.399,13.35-10.799,19.35-10.799c2.25,0,4.499,0.3,5.999,0.75V58.648z"/>
	</g>
	<rect fill="none" width="585.298" height="141.732"/>
</g>
</svg>
