<?xml version="1.0" encoding="utf-8"?>
<!-- Generator: Adobe Illustrator 24.0.1, SVG Export Plug-In . SVG Version: 6.00 Build 0)  -->
<svg version="1.1" id="Layer_1" xmlns="http://www.w3.org/2000/svg" xmlns:xlink="http://www.w3.org/1999/xlink" x="0px" y="0px"
	 viewBox="0 0 614.863 141.732" enable-background="new 0 0 614.863 141.732" xml:space="preserve">
<g>
	<g>
		<g>
			<path fill="#F5F3F2" d="M0,110.696V4.35h23.699v83.697h45.897v22.648H0z"/>
			<path fill="#F5F3F2" d="M157.196,73.347c0,23.1-17.249,39.599-39.599,39.599c-22.199,0-39.599-16.499-39.599-39.599
				c0-23.099,17.399-39.448,39.599-39.448C139.947,33.899,157.196,50.249,157.196,73.347z M134.397,73.347
				c0-12.599-8.1-18.449-16.8-18.449c-8.55,0-16.799,5.851-16.799,18.449c0,12.45,8.249,18.6,16.799,18.6
				C126.298,91.947,134.397,85.947,134.397,73.347z"/>
			<path fill="#F5F3F2" d="M186.748,109.196c1.499,7.2,7.499,12.45,16.049,12.45c11.399,0,18.449-5.55,18.449-19.05v-3.449
				c-2.7,4.05-9.149,8.399-19.949,8.399c-19.799,0-34.648-15.6-34.648-36.299c0-19.649,14.249-36.448,34.648-36.448
				c12.149,0,18.6,5.399,20.699,9.3v-7.95h21.749v65.247c0,21.449-11.999,40.049-39.898,40.049
				c-21.449,0-35.099-13.199-37.198-26.549L186.748,109.196z M221.396,71.248c0-10.199-7.35-16.499-15.899-16.499
				s-16.05,6.3-16.05,16.499s6.9,16.499,16.05,16.499C214.797,87.747,221.396,81.447,221.396,71.248z"/>
			<path fill="#F5F3F2" d="M274.197,0c7.5,0,13.5,6,13.5,13.35s-6,13.35-13.5,13.35c-7.199,0-13.199-6-13.199-13.35
				S266.998,0,274.197,0z M262.948,110.696V36.149h22.799v74.547H262.948z"/>
			<path fill="#F5F3F2" d="M318.896,86.097c0.3,5.1,3.899,10.05,11.699,10.05c5.85,0,8.7-3.15,8.7-6.45c0-2.7-1.8-4.949-7.35-6.149
				l-8.55-1.95c-15.899-3.45-22.199-12.449-22.199-22.949c0-13.649,11.999-24.749,28.648-24.749c21.6,0,29.1,13.5,29.85,22.199
				l-18.899,3.45c-0.601-4.95-3.75-9.149-10.649-9.149c-4.351,0-8.1,2.55-8.1,6.449c0,3.15,2.55,4.95,5.85,5.55l9.899,1.95
				c15.449,3.149,22.949,12.449,22.949,23.398c0,12.75-9.75,25.199-29.699,25.199c-23.399,0-30.898-15.149-31.499-23.398
				L318.896,86.097z"/>
			<path fill="#F5F3F2" d="M402.894,36.149h14.549v19.949h-14.549v27.899c0,6.149,3.3,7.799,8.25,7.799
				c2.399,0,4.649-0.449,5.999-0.75v18.899c-0.899,0.45-4.649,2.101-11.85,2.101c-15.449,0-24.898-9.15-24.898-23.999V56.098
				h-13.199V36.149h3.749c7.8,0,11.55-5.25,11.55-12.149v-9.6h20.399V36.149z"/>
			<path fill="#F5F3F2" d="M444.142,0c7.5,0,13.5,6,13.5,13.35s-6,13.35-13.5,13.35c-7.199,0-13.199-6-13.199-13.35
				S436.942,0,444.142,0z M432.893,110.696V36.149h22.799v74.547H432.893z"/>
			<path fill="#F5F3F2" d="M492.89,73.498c0,11.85,7.95,18.449,17.399,18.449c8.85,0,13.8-5.55,15.449-11.1l20.1,6.149
				c-3.3,13.05-15.6,25.949-35.549,25.949c-22.199,0-40.049-16.35-40.049-39.448c0-23.249,17.399-39.599,39.299-39.599
				c20.549,0,32.549,12.6,35.849,25.949l-20.399,6.149c-1.649-5.699-6.149-11.1-14.999-11.1
				C500.539,54.898,492.89,61.499,492.89,73.498z"/>
			<path fill="#F5F3F2" d="M572.988,86.097c0.3,5.1,3.899,10.05,11.699,10.05c5.851,0,8.7-3.15,8.7-6.45c0-2.7-1.8-4.949-7.35-6.149
				l-8.55-1.95c-15.899-3.45-22.199-12.449-22.199-22.949c0-13.649,11.999-24.749,28.648-24.749c21.6,0,29.1,13.5,29.85,22.199
				l-18.899,3.45c-0.601-4.95-3.75-9.149-10.649-9.149c-4.351,0-8.101,2.55-8.101,6.449c0,3.15,2.551,4.95,5.851,5.55l9.899,1.95
				c15.449,3.149,22.949,12.449,22.949,23.398c0,12.75-9.75,25.199-29.699,25.199c-23.398,0-30.898-15.149-31.499-23.398
				L572.988,86.097z"/>
		</g>
	</g>
	<rect fill="none" width="614.863" height="141.732"/>
</g>
</svg>
