<?xml version="1.0" encoding="utf-8"?>
<!-- Generator: Adobe Illustrator 24.0.1, SVG Export Plug-In . SVG Version: 6.00 Build 0)  -->
<svg version="1.1" id="Layer_1" xmlns="http://www.w3.org/2000/svg" xmlns:xlink="http://www.w3.org/1999/xlink" x="0px" y="0px"
	 viewBox="0 0 652.819 141.732" enable-background="new 0 0 652.819 141.732" xml:space="preserve">
<g>
	<g>
		<g>
			<path fill="#F5F3F2" d="M0,110.695V4.35h68.547v22.499H23.699v22.499h39.448v21.599H23.849v39.749H0z"/>
			<path fill="#F5F3F2" d="M157.496,73.347c0,23.099-17.249,39.599-39.599,39.599c-22.199,0-39.599-16.5-39.599-39.599
				s17.399-39.448,39.599-39.448C140.247,33.898,157.496,50.248,157.496,73.347z M134.697,73.347c0-12.599-8.1-18.449-16.8-18.449
				c-8.55,0-16.799,5.85-16.799,18.449c0,12.45,8.249,18.6,16.799,18.6C126.598,91.946,134.697,85.946,134.697,73.347z"/>
			<path fill="#F5F3F2" d="M245.995,73.347c0,23.099-17.249,39.599-39.599,39.599c-22.199,0-39.599-16.5-39.599-39.599
				s17.399-39.448,39.599-39.448C228.746,33.898,245.995,50.248,245.995,73.347z M223.196,73.347c0-12.599-8.1-18.449-16.8-18.449
				c-8.55,0-16.799,5.85-16.799,18.449c0,12.45,8.249,18.6,16.799,18.6C215.097,91.946,223.196,85.946,223.196,73.347z"/>
			<path fill="#F5F3F2" d="M287.997,36.148h14.549v19.949h-14.549v27.899c0,6.149,3.3,7.799,8.25,7.799
				c2.399,0,4.649-0.45,5.999-0.75v18.899c-0.899,0.45-4.649,2.1-11.85,2.1c-15.449,0-24.898-9.15-24.898-23.999V56.098h-13.199
				V36.148h3.749c7.8,0,11.55-5.25,11.55-12.149v-9.6h20.399V36.148z"/>
			<path fill="#F5F3F2" d="M384.593,36.148l14.55,44.248l12.449-44.248h22.35l-23.1,74.547h-22.648l-16.199-48.148l-15.899,48.148
				h-23.1l-23.398-74.547h23.698l12.45,44.098l14.699-44.098H384.593z"/>
			<path fill="#F5F3F2" d="M510.442,89.246c-3.6,12.899-15.449,23.699-34.349,23.699c-20.549,0-38.849-14.7-38.849-39.749
				c0-23.999,17.85-39.298,37.199-39.298c23.099,0,37.348,14.25,37.348,38.249c0,3.15-0.3,6.6-0.449,7.05h-51.898
				c0.45,8.399,8.1,14.399,16.949,14.399c8.25,0,12.899-3.9,15-9.75L510.442,89.246z M489.743,64.497
				c-0.3-5.7-4.199-12.599-14.999-12.599c-9.6,0-14.399,7.049-14.85,12.599H489.743z"/>
			<path fill="#F5F3F2" d="M544.043,67.647l17.55-2.7c4.05-0.6,5.399-2.55,5.399-5.1c0-4.35-3.75-8.1-10.949-8.1
				c-7.95,0-12.3,5.4-12.75,10.95l-19.799-4.05c0.899-10.649,10.8-24.749,32.698-24.749c24.149,0,32.999,13.5,32.999,28.799v36.449
				c0,5.85,0.75,10.799,0.9,11.549h-20.55c-0.149-0.6-0.75-3.3-0.75-8.4c-3.899,6.3-11.1,10.5-20.999,10.5
				c-16.35,0-25.799-10.8-25.799-22.649C521.994,76.947,531.744,69.447,544.043,67.647z M566.992,81.446v-3.3l-14.1,2.25
				c-4.8,0.75-8.399,3-8.399,8.25c0,3.9,2.55,7.65,8.85,7.65C560.093,96.296,566.992,92.996,566.992,81.446z"/>
			<path fill="#F5F3F2" d="M652.79,58.647c-2.55-0.6-4.949-0.75-7.199-0.75c-9.149,0-17.399,5.4-17.399,20.249v32.549h-22.799
				V36.148h22.049v10.049c3.899-8.399,13.35-10.799,19.35-10.799c2.25,0,4.499,0.3,5.999,0.75V58.647z"/>
		</g>
	</g>
	<rect fill="none" width="652.791" height="141.732"/>
</g>
</svg>
