<?xml version="1.0" encoding="utf-8"?>
<!-- Generator: Adobe Illustrator 24.0.1, SVG Export Plug-In . SVG Version: 6.00 Build 0)  -->
<svg version="1.1" id="Layer_1" xmlns="http://www.w3.org/2000/svg" xmlns:xlink="http://www.w3.org/1999/xlink" x="0px" y="0px"
	 viewBox="0 0 464.995 141.732" enable-background="new 0 0 464.995 141.732" xml:space="preserve">
<g>
	<g>
		<g>
			<path fill="#231F20" d="M0,110.696V4.35h38.548c31.949,0,53.398,20.399,53.398,53.248s-21.449,53.098-53.548,53.098H0z
				 M37.498,88.346c16.35,0,29.699-9.449,29.699-30.748S53.848,26.7,37.498,26.7H23.699v61.646H37.498z"/>
			<path fill="#231F20" d="M175.196,89.247c-3.6,12.899-15.449,23.699-34.349,23.699c-20.549,0-38.849-14.699-38.849-39.748
				c0-24,17.85-39.299,37.199-39.299c23.099,0,37.348,14.25,37.348,38.248c0,3.15-0.3,6.6-0.449,7.051h-51.898
				c0.45,8.398,8.1,14.398,16.949,14.398c8.25,0,12.899-3.899,15-9.75L175.196,89.247z M154.497,64.498
				c-0.3-5.7-4.199-12.599-14.999-12.599c-9.6,0-14.399,7.049-14.85,12.599H154.497z"/>
			<path fill="#231F20" d="M204.447,86.096c0.3,5.101,3.899,10.051,11.699,10.051c5.851,0,8.7-3.15,8.7-6.45
				c0-2.7-1.8-4.95-7.35-6.149l-8.55-1.95c-15.899-3.45-22.199-12.45-22.199-22.949c0-13.649,11.999-24.749,28.648-24.749
				c21.6,0,29.1,13.5,29.85,22.199l-18.899,3.449c-0.601-4.949-3.75-9.148-10.649-9.148c-4.351,0-8.101,2.549-8.101,6.449
				c0,3.15,2.551,4.949,5.851,5.55l9.899,1.95c15.449,3.149,22.949,12.449,22.949,23.398c0,12.75-9.75,25.199-29.699,25.199
				c-23.398,0-30.898-15.149-31.499-23.398L204.447,86.096z"/>
			<path fill="#231F20" d="M272.396,0c7.5,0,13.5,6,13.5,13.35s-6,13.35-13.5,13.35c-7.199,0-13.199-6-13.199-13.35
				S265.196,0,272.396,0z M261.146,110.696V36.149h22.799v74.547H261.146z"/>
			<path fill="#231F20" d="M318.744,109.196c1.499,7.199,7.499,12.449,16.049,12.449c11.399,0,18.449-5.549,18.449-19.049v-3.449
				c-2.7,4.049-9.149,8.398-19.949,8.398c-19.799,0-34.648-15.599-34.648-36.298c0-19.649,14.249-36.448,34.648-36.448
				c12.149,0,18.6,5.399,20.699,9.299v-7.949h21.749v65.247c0,21.449-11.999,40.048-39.898,40.048
				c-21.449,0-35.099-13.199-37.198-26.549L318.744,109.196z M353.393,71.248c0-10.2-7.35-16.499-15.899-16.499
				s-16.05,6.299-16.05,16.499c0,10.199,6.9,16.499,16.05,16.499C346.793,87.747,353.393,81.447,353.393,71.248z"/>
			<path fill="#231F20" d="M417.743,110.696h-22.799V36.149h22.049v8.549c4.05-7.049,13.199-10.499,20.85-10.499
				c18.749,0,27.148,13.35,27.148,29.698v46.799h-22.799V67.797c0-7.35-3.9-12.899-12.149-12.899c-7.5,0-12.3,5.55-12.3,13.05
				V110.696z"/>
		</g>
	</g>
	<rect fill="none" width="464.995" height="141.732"/>
</g>
</svg>
