<?xml version="1.0" encoding="utf-8"?>
<!-- Generator: Adobe Illustrator 24.0.1, SVG Export Plug-In . SVG Version: 6.00 Build 0)  -->
<svg version="1.1" id="Layer_1" xmlns="http://www.w3.org/2000/svg" xmlns:xlink="http://www.w3.org/1999/xlink" x="0px" y="0px"
	 viewBox="0 0 623.849 141.732" enable-background="new 0 0 623.849 141.732" xml:space="preserve">
<g>
	<g>
		<g>
			<path fill="#F5F3F2" d="M59.548,36.449c-0.75-4.95-4.8-13.349-17.699-13.349c-8.85,0-14.549,5.549-14.549,11.399
				c0,5.1,3.149,8.85,10.499,10.199l14.249,2.7c20.25,3.75,30.749,16.799,30.749,31.949c0,16.648-13.949,33.598-39.298,33.598
				C14.1,112.945,1.5,93.896,0,78.896l21.75-5.249c0.899,9.749,7.499,18.3,22.049,18.3c9.3,0,14.999-4.5,14.999-11.1
				c0-5.4-4.35-9.301-11.399-10.65l-14.55-2.699C14.85,64.048,3.9,52.048,3.9,36.299C3.9,16.2,21.6,2.1,41.999,2.1
				C68.548,2.1,78.598,18,80.847,30.449L59.548,36.449z"/>
			<path fill="#F5F3F2" d="M171.296,73.348c0,23.099-17.249,39.598-39.599,39.598c-22.199,0-39.599-16.499-39.599-39.598
				c0-23.1,17.399-39.449,39.599-39.449C154.047,33.899,171.296,50.248,171.296,73.348z M148.497,73.348
				c0-12.6-8.1-18.45-16.8-18.45c-8.55,0-16.799,5.85-16.799,18.45c0,12.449,8.249,18.6,16.799,18.6
				C140.397,91.947,148.497,85.947,148.497,73.348z"/>
			<path fill="#F5F3F2" d="M233.547,103.196c-3.899,6.45-12.449,9.149-19.949,9.149c-18.149,0-28.349-13.199-28.349-29.099V36.149
				h22.799v42.298c0,7.199,3.9,12.899,12,12.899c7.649,0,12.449-5.25,12.449-12.749V36.149h22.799v61.197
				c0,6.75,0.6,12.15,0.75,13.35h-21.899C233.847,109.346,233.547,105.146,233.547,103.196z"/>
			<path fill="#F5F3F2" d="M322.795,58.648c-2.55-0.601-4.949-0.75-7.199-0.75c-9.149,0-17.399,5.399-17.399,20.248v32.549h-22.799
				V36.149h22.049v10.049c3.9-8.399,13.35-10.799,19.35-10.799c2.25,0,4.499,0.3,5.999,0.75V58.648z"/>
			<path fill="#F5F3F2" d="M353.097,73.497c0,11.85,7.95,18.45,17.399,18.45c8.85,0,13.8-5.551,15.449-11.1l20.1,6.148
				c-3.3,13.051-15.6,25.949-35.549,25.949c-22.199,0-40.049-16.35-40.049-39.448c0-23.249,17.399-39.598,39.299-39.598
				c20.549,0,32.549,12.6,35.849,25.949l-20.399,6.15c-1.649-5.7-6.149-11.1-14.999-11.1
				C360.746,54.898,353.097,61.498,353.097,73.497z"/>
			<path fill="#F5F3F2" d="M431.245,0c7.5,0,13.5,6,13.5,13.349s-6,13.35-13.5,13.35c-7.199,0-13.199-6-13.199-13.35
				S424.046,0,431.245,0z M419.996,110.695V36.149h22.799v74.546H419.996z"/>
			<path fill="#F5F3F2" d="M485.543,110.695h-22.799V36.149h22.049v8.549c4.05-7.049,13.199-10.5,20.85-10.5
				c18.749,0,27.148,13.35,27.148,29.699v46.798h-22.799V67.797c0-7.35-3.9-12.899-12.149-12.899c-7.5,0-12.3,5.549-12.3,13.049
				V110.695z"/>
			<path fill="#F5F3F2" d="M566.842,109.195c1.499,7.2,7.499,12.45,16.049,12.45c11.399,0,18.449-5.55,18.449-19.05v-3.449
				c-2.7,4.05-9.149,8.399-19.949,8.399c-19.799,0-34.648-15.599-34.648-36.298c0-19.65,14.249-36.449,34.648-36.449
				c12.149,0,18.6,5.4,20.699,9.3v-7.95h21.749v65.248c0,21.449-11.999,40.048-39.898,40.048c-21.449,0-35.099-13.199-37.198-26.549
				L566.842,109.195z M601.49,71.248c0-10.2-7.35-16.5-15.899-16.5s-16.05,6.3-16.05,16.5c0,10.199,6.9,16.498,16.05,16.498
				C594.891,87.746,601.49,81.447,601.49,71.248z"/>
		</g>
	</g>
	<rect fill="none" width="623.849" height="141.732"/>
</g>
</svg>
