<?xml version="1.0" encoding="utf-8"?>
<!-- Generator: Adobe Illustrator 24.0.1, SVG Export Plug-In . SVG Version: 6.00 Build 0)  -->
<svg version="1.1" id="Layer_1" xmlns="http://www.w3.org/2000/svg" xmlns:xlink="http://www.w3.org/1999/xlink" x="0px" y="0px"
	 viewBox="0 0 765.439 141.732" enable-background="new 0 0 765.439 141.732" xml:space="preserve">
<g>
	<g>
		<g>
			<path fill="#231F20" d="M23.699,72.447v38.249H0V4.35h40.048c21.6,0,36.449,14.249,36.449,34.049
				c0,20.099-14.85,34.048-36.449,34.048H23.699z M37.648,52.048c8.999,0,15.149-5.25,15.149-13.5
				c0-8.549-6.15-13.648-15.149-13.648h-13.8v27.148H37.648z"/>
			<path fill="#231F20" d="M137.846,58.648c-2.55-0.6-4.949-0.75-7.199-0.75c-9.149,0-17.399,5.4-17.399,20.249v32.549H90.448
				V36.149h22.049v10.05c3.899-8.4,13.35-10.8,19.35-10.8c2.25,0,4.499,0.3,5.999,0.75V58.648z"/>
			<path fill="#231F20" d="M224.695,73.347c0,23.1-17.249,39.599-39.599,39.599c-22.199,0-39.599-16.499-39.599-39.599
				s17.399-39.448,39.599-39.448C207.446,33.899,224.695,50.248,224.695,73.347z M201.896,73.347c0-12.6-8.1-18.449-16.8-18.449
				c-8.55,0-16.799,5.85-16.799,18.449c0,12.449,8.249,18.6,16.799,18.6C193.797,91.947,201.896,85.947,201.896,73.347z"/>
			<path fill="#231F20" d="M312.745,97.346c0,6.75,0.45,11.7,0.601,13.35h-21.899c-0.15-0.899-0.601-4.2-0.601-7.2
				c-3.449,5.1-10.949,8.85-19.949,8.85c-20.999,0-36.898-16.199-36.898-39.148c0-22.199,15-38.848,36.148-38.848
				c12.75,0,18.3,4.8,20.1,7.649V2.1h22.499V97.346z M273.747,91.947c8.85,0,16.799-6.3,16.799-18.6
				c0-12.449-7.949-18.449-16.799-18.449s-16.8,6-16.8,18.449C256.947,85.647,264.897,91.947,273.747,91.947z"/>
			<path fill="#231F20" d="M380.845,103.197c-3.899,6.449-12.449,9.148-19.949,9.148c-18.149,0-28.349-13.199-28.349-29.098V36.149
				h22.799v42.298c0,7.2,3.9,12.9,12,12.9c7.649,0,12.449-5.25,12.449-12.75V36.149h22.799v61.197c0,6.75,0.6,12.149,0.75,13.35
				h-21.899C381.145,109.345,380.845,105.146,380.845,103.197z"/>
			<path fill="#231F20" d="M439.945,73.498c0,11.85,7.95,18.449,17.399,18.449c8.85,0,13.8-5.55,15.449-11.1l20.1,6.149
				c-3.3,13.05-15.6,25.949-35.549,25.949c-22.199,0-40.049-16.35-40.049-39.448c0-23.25,17.399-39.599,39.299-39.599
				c20.549,0,32.549,12.6,35.849,25.948l-20.399,6.15c-1.649-5.699-6.149-11.1-14.999-11.1
				C447.595,54.898,439.945,61.498,439.945,73.498z"/>
			<path fill="#231F20" d="M534.144,36.149h14.549v19.949h-14.549v27.899c0,6.148,3.3,7.799,8.249,7.799c2.4,0,4.65-0.449,6-0.75
				v18.899c-0.899,0.45-4.649,2.101-11.85,2.101c-15.449,0-24.898-9.15-24.898-24V56.098h-13.199V36.149h3.749
				c7.8,0,11.55-5.25,11.55-12.149v-9.6h20.399V36.149z"/>
			<path fill="#231F20" d="M575.392,0c7.5,0,13.5,5.999,13.5,13.349s-6,13.35-13.5,13.35c-7.199,0-13.199-6-13.199-13.35
				S568.192,0,575.392,0z M564.143,110.696V36.149h22.799v74.547H564.143z"/>
			<path fill="#231F20" d="M680.688,73.347c0,23.1-17.249,39.599-39.599,39.599c-22.199,0-39.599-16.499-39.599-39.599
				s17.399-39.448,39.599-39.448C663.438,33.899,680.688,50.248,680.688,73.347z M657.889,73.347c0-12.6-8.1-18.449-16.8-18.449
				c-8.55,0-16.799,5.85-16.799,18.449c0,12.449,8.249,18.6,16.799,18.6C649.789,91.947,657.889,85.947,657.889,73.347z"/>
			<path fill="#231F20" d="M718.189,110.696h-22.799V36.149h22.049v8.55c4.05-7.05,13.199-10.5,20.85-10.5
				c18.749,0,27.148,13.35,27.148,29.699v46.798h-22.799V67.797c0-7.35-3.9-12.899-12.149-12.899c-7.5,0-12.3,5.55-12.3,13.05
				V110.696z"/>
		</g>
	</g>
	<rect fill="none" width="765.439" height="141.732"/>
</g>
</svg>
