<?xml version="1.0" encoding="utf-8"?>
<!-- Generator: Adobe Illustrator 24.0.1, SVG Export Plug-In . SVG Version: 6.00 Build 0)  -->
<svg version="1.1" id="Layer_1" xmlns="http://www.w3.org/2000/svg" xmlns:xlink="http://www.w3.org/1999/xlink" x="0px" y="0px"
	 viewBox="0 0 515.395 141.732" enable-background="new 0 0 515.395 141.732" xml:space="preserve">
<g>
	<g>
		<g>
			<path fill="#231F20" d="M55.348,2.1c29.85,0,55.198,21.75,55.198,55.498c0,14.25-4.5,26.249-12,35.398l13.05,14.25l-15.6,13.199
				l-13.049-14.399c-8.1,4.5-17.699,6.899-27.6,6.899C25.35,112.946,0,91.198,0,57.598C0,23.85,25.35,2.1,55.348,2.1z
				 M55.348,89.547c3.601,0,7.2-0.6,10.8-1.801l-15.6-17.099l15.75-13.2l15.6,17.1c2.55-4.649,4.05-10.199,4.05-17.1
				c0-22.198-15.899-32.248-30.6-32.248C40.499,25.2,24.6,35.25,24.6,57.448C24.6,79.647,40.499,89.547,55.348,89.547z"/>
			<path fill="#231F20" d="M173.547,103.197c-3.899,6.45-12.449,9.149-19.949,9.149c-18.149,0-28.349-13.199-28.349-29.099V36.149
				h22.799v42.299c0,7.199,3.9,12.899,12,12.899c7.649,0,12.449-5.25,12.449-12.749V36.149h22.799v61.197
				c0,6.75,0.6,12.15,0.75,13.35h-21.899C173.847,109.346,173.547,105.147,173.547,103.197z"/>
			<path fill="#231F20" d="M232.946,67.648l17.55-2.7c4.05-0.6,5.399-2.549,5.399-5.1c0-4.35-3.75-8.1-10.949-8.1
				c-7.95,0-12.3,5.4-12.75,10.949l-19.799-4.049c0.899-10.65,10.8-24.75,32.698-24.75c24.149,0,32.999,13.5,32.999,28.799v36.449
				c0,5.85,0.75,10.799,0.9,11.549h-20.55c-0.149-0.6-0.75-3.299-0.75-8.399c-3.899,6.3-11.1,10.5-20.999,10.5
				c-16.35,0-25.799-10.8-25.799-22.649C210.897,76.948,220.647,69.448,232.946,67.648z M255.896,81.448v-3.301l-14.1,2.25
				c-4.8,0.75-8.399,3-8.399,8.25c0,3.9,2.55,7.65,8.85,7.65C248.996,96.297,255.896,92.997,255.896,81.448z"/>
			<path fill="#231F20" d="M297.297,110.696V2.1h22.799v108.596H297.297z"/>
			<path fill="#231F20" d="M351.444,0c7.5,0,13.5,6,13.5,13.35s-6,13.35-13.5,13.35c-7.199,0-13.199-6-13.199-13.35
				S344.245,0,351.444,0z M340.195,110.696V36.149h22.799v74.547H340.195z"/>
			<path fill="#231F20" d="M410.243,36.149h14.549v19.949h-14.549v27.899c0,6.149,3.3,7.8,8.25,7.8c2.399,0,4.649-0.45,5.999-0.75
				v18.898c-0.899,0.451-4.649,2.101-11.85,2.101c-15.449,0-24.898-9.149-24.898-23.999V56.098h-13.199V36.149h3.749
				c7.8,0,11.55-5.25,11.55-12.148v-9.6h20.399V36.149z"/>
			<path fill="#231F20" d="M445.492,139.345l16.949-38.698l-31.349-64.498h25.498l18.149,39.898l16.5-39.898h24.148l-45.897,103.196
				H445.492z"/>
		</g>
	</g>
	<rect fill="none" width="515.395" height="141.732"/>
</g>
</svg>
