<?xml version="1.0" encoding="utf-8"?>
<!-- Generator: Adobe Illustrator 24.0.1, SVG Export Plug-In . SVG Version: 6.00 Build 0)  -->
<svg version="1.1" id="Layer_1" xmlns="http://www.w3.org/2000/svg" xmlns:xlink="http://www.w3.org/1999/xlink" x="0px" y="0px"
	 viewBox="0 0 934.809 141.732" enable-background="new 0 0 934.809 141.732" xml:space="preserve">
<g>
	<g>
		<g>
			<path fill="#F5F3F2" d="M0,110.696V4.35h38.548c31.949,0,53.398,20.398,53.398,53.248c0,32.848-21.449,53.098-53.548,53.098H0z
				 M37.498,88.346c16.35,0,29.699-9.449,29.699-30.748c0-21.3-13.35-30.899-29.699-30.899H23.699v61.647H37.498z"/>
			<path fill="#F5F3F2" d="M175.196,89.247c-3.6,12.898-15.449,23.699-34.349,23.699c-20.549,0-38.849-14.7-38.849-39.749
				c0-23.999,17.85-39.298,37.199-39.298c23.099,0,37.349,14.249,37.349,38.248c0,3.15-0.301,6.6-0.45,7.05h-51.898
				c0.45,8.399,8.1,14.399,16.949,14.399c8.25,0,12.899-3.9,15-9.75L175.196,89.247z M154.497,64.497
				c-0.3-5.699-4.199-12.599-14.999-12.599c-9.6,0-14.399,7.05-14.85,12.599H154.497z"/>
			<path fill="#F5F3F2" d="M236.246,110.696h-22.949l-30.599-74.547h24.749l17.249,46.348l15.899-46.348h23.999L236.246,110.696z"/>
			<path fill="#F5F3F2" d="M343.944,89.247c-3.6,12.898-15.449,23.699-34.349,23.699c-20.549,0-38.849-14.7-38.849-39.749
				c0-23.999,17.85-39.298,37.199-39.298c23.099,0,37.349,14.249,37.349,38.248c0,3.15-0.301,6.6-0.45,7.05h-51.898
				c0.45,8.399,8.1,14.399,16.949,14.399c8.25,0,12.899-3.9,15-9.75L343.944,89.247z M323.245,64.497
				c-0.3-5.699-4.199-12.599-14.999-12.599c-9.6,0-14.399,7.05-14.85,12.599H323.245z"/>
			<path fill="#F5F3F2" d="M359.996,110.696V2.1h22.799v108.596H359.996z"/>
			<path fill="#F5F3F2" d="M476.692,73.346c0,23.1-17.249,39.6-39.599,39.6c-22.199,0-39.599-16.5-39.599-39.6
				c0-23.099,17.399-39.447,39.599-39.447C459.443,33.899,476.692,50.248,476.692,73.346z M453.894,73.346
				c0-12.599-8.1-18.449-16.8-18.449c-8.55,0-16.799,5.851-16.799,18.449c0,12.45,8.249,18.6,16.799,18.6
				C445.794,91.946,453.894,85.946,453.894,73.346z"/>
			<path fill="#F5F3F2" d="M491.395,139.194V36.149h22.049v7.648c3.15-4.799,11.25-9.449,21.899-9.449
				c21.599,0,34.648,16.5,34.648,38.849c0,22.8-14.699,39.148-35.549,39.148c-9.6,0-16.799-3.3-20.249-7.499v34.348H491.395z
				 M530.692,54.897c-8.85,0-16.799,6-16.799,18.449c0,12.301,7.949,18.6,16.799,18.6c9,0,16.949-6.149,16.949-18.6
				C547.642,60.897,539.692,54.897,530.692,54.897z"/>
			<path fill="#F5F3F2" d="M584.694,110.696V36.149h21.749v8.549c3.75-6.6,13.35-10.799,21.449-10.799
				c10.649,0,18.299,4.35,22.049,11.699c5.85-8.4,13.05-11.699,23.1-11.699c14.099,0,27.599,8.249,27.599,28.498v48.299h-22.05
				V67.497c0-7.049-3.749-12.6-11.849-12.6c-8.101,0-12.45,6.15-12.45,12.75v43.049h-22.499V67.497c0-7.049-3.75-12.6-11.999-12.6
				c-7.95,0-12.3,6.15-12.3,12.9v42.898H584.694z"/>
			<path fill="#F5F3F2" d="M787.639,89.247c-3.6,12.898-15.449,23.699-34.349,23.699c-20.549,0-38.849-14.7-38.849-39.749
				c0-23.999,17.85-39.298,37.199-39.298c23.099,0,37.348,14.249,37.348,38.248c0,3.15-0.3,6.6-0.449,7.05h-51.898
				c0.45,8.399,8.1,14.399,16.949,14.399c8.25,0,12.899-3.9,15-9.75L787.639,89.247z M766.939,64.497
				c-0.3-5.699-4.199-12.599-14.999-12.599c-9.6,0-14.399,7.05-14.85,12.599H766.939z"/>
			<path fill="#F5F3F2" d="M826.489,110.696H803.69V36.149h22.049v8.549c4.05-7.049,13.199-10.5,20.85-10.5
				c18.749,0,27.148,13.35,27.148,29.699v46.799h-22.799V67.797c0-7.35-3.9-12.9-12.149-12.9c-7.5,0-12.3,5.551-12.3,13.051V110.696
				z"/>
			<path fill="#F5F3F2" d="M920.237,36.149h14.549v19.949h-14.549v27.898c0,6.149,3.3,7.799,8.249,7.799c2.4,0,4.65-0.449,6-0.75
				v18.9c-0.899,0.449-4.649,2.1-11.85,2.1c-15.449,0-24.898-9.15-24.898-23.999V56.098h-13.199V36.149h3.749
				c7.8,0,11.55-5.25,11.55-12.15v-9.6h20.399V36.149z"/>
		</g>
	</g>
	<rect fill="none" width="934.809" height="141.732"/>
</g>
</svg>
