<?xml version="1.0" encoding="utf-8"?>
<!-- Generator: Adobe Illustrator 24.0.2, SVG Export Plug-In . SVG Version: 6.00 Build 0)  -->
<svg version="1.1" id="Layer_1" xmlns="http://www.w3.org/2000/svg" xmlns:xlink="http://www.w3.org/1999/xlink" x="0px" y="0px"
	 viewBox="0 0 757.64 141.73" style="enable-background:new 0 0 757.64 141.73;" xml:space="preserve">
<style type="text/css">
	.st0{fill:#F5F3F2;}
	.st1{fill:#231F20;}
	.st2{fill:none;}
</style>
<g>
	<path class="st1" d="M0,57.75C0,24.6,25.2,2.1,54.9,2.1c31.95,0,46.05,20.55,49.5,35.85L82.05,45c-1.65-7.35-8.4-19.8-27.15-19.8
		c-14.25,0-30.3,10.2-30.3,32.55c0,19.95,14.7,31.5,30.6,31.5c18.45,0,25.8-12.3,27.9-19.95l22.65,6.45
		c-3.45,14.7-17.55,37.2-50.55,37.2C24.6,112.95,0,90.9,0,57.75z"/>
	<path class="st1" d="M131.7,0c7.5,0,13.5,6,13.5,13.35s-6,13.35-13.5,13.35c-7.2,0-13.2-6-13.2-13.35S124.5,0,131.7,0z
		 M120.45,110.7V36.15h22.8v74.55H120.45z"/>
	<path class="st1" d="M210.59,58.65c-2.55-0.6-4.95-0.75-7.2-0.75c-9.15,0-17.4,5.4-17.4,20.25v32.55h-22.8V36.15h22.05V46.2
		c3.9-8.4,13.35-10.8,19.35-10.8c2.25,0,4.5,0.3,6,0.75V58.65z"/>
	<path class="st1" d="M240.9,73.5c0,11.85,7.95,18.45,17.4,18.45c8.85,0,13.8-5.55,15.45-11.1l20.1,6.15
		c-3.3,13.05-15.6,25.95-35.55,25.95c-22.2,0-40.05-16.35-40.05-39.45c0-23.25,17.4-39.6,39.3-39.6c20.55,0,32.55,12.6,35.85,25.95
		L272.99,66c-1.65-5.7-6.15-11.1-15-11.1C248.54,54.9,240.9,61.5,240.9,73.5z"/>
	<path class="st1" d="M355.34,103.2c-3.9,6.45-12.45,9.15-19.95,9.15c-18.15,0-28.35-13.2-28.35-29.1v-47.1h22.8v42.3
		c0,7.2,3.9,12.9,12,12.9c7.65,0,12.45-5.25,12.45-12.75V36.15h22.8v61.2c0,6.75,0.6,12.15,0.75,13.35h-21.9
		C355.64,109.35,355.34,105.15,355.34,103.2z"/>
	<path class="st1" d="M397.19,110.7V2.1h22.8v108.6H397.19z"/>
	<path class="st1" d="M457.64,67.65l17.55-2.7c4.05-0.6,5.4-2.55,5.4-5.1c0-4.35-3.75-8.1-10.95-8.1c-7.95,0-12.3,5.4-12.75,10.95
		l-19.8-4.05c0.9-10.65,10.8-24.75,32.7-24.75c24.15,0,33,13.5,33,28.8v36.45c0,5.85,0.75,10.8,0.9,11.55h-20.55
		c-0.15-0.6-0.75-3.3-0.75-8.4c-3.9,6.3-11.1,10.5-21,10.5c-16.35,0-25.8-10.8-25.8-22.65C435.59,76.95,445.34,69.45,457.64,67.65z
		 M480.59,81.45v-3.3l-14.1,2.25c-4.8,0.75-8.4,3-8.4,8.25c0,3.9,2.55,7.65,8.85,7.65C473.69,96.3,480.59,93,480.59,81.45z"/>
	<path class="st1" d="M569.39,58.65c-2.55-0.6-4.95-0.75-7.2-0.75c-9.15,0-17.4,5.4-17.4,20.25v32.55h-22.8V36.15h22.05V46.2
		c3.9-8.4,13.35-10.8,19.35-10.8c2.25,0,4.5,0.3,6,0.75V58.65z"/>
	<path class="st1" d="M593.69,0c7.5,0,13.5,6,13.5,13.35s-6,13.35-13.5,13.35c-7.2,0-13.2-6-13.2-13.35S586.49,0,593.69,0z
		 M582.44,110.7V36.15h22.8v74.55H582.44z"/>
	<path class="st1" d="M652.49,36.15h14.55V56.1h-14.55V84c0,6.15,3.3,7.8,8.25,7.8c2.4,0,4.65-0.45,6-0.75v18.9
		c-0.9,0.45-4.65,2.1-11.85,2.1c-15.45,0-24.9-9.15-24.9-24V56.1h-13.2V36.15h3.75c7.8,0,11.55-5.25,11.55-12.15v-9.6h20.4V36.15z"
		/>
	<path class="st1" d="M687.74,139.34l16.95-38.7l-31.35-64.5h25.5l18.15,39.9l16.5-39.9h24.15l-45.9,103.2H687.74z"/>
</g>
</svg>
